<?xml version="1.0" standalone="no"?>
<!DOCTYPE svg PUBLIC "-//W3C//DTD SVG 1.1//EN" "http://www.w3.org/Graphics/SVG/1.1/DTD/svg11.dtd" >
<svg>
<metadata>
Created by FontForge 20120731 at Tue Jul  2 01:04:00 2019
 By www
Copyright 2012 Adobe Systems Incorporated. All rights reserved.
</metadata>
<defs>
<font id="Novecento-Book" horiz-adv-x="651" >
  <font-face 
    font-family="Novecento Book"
    font-weight="400"
    font-stretch="normal"
    units-per-em="1000"
    panose-1="0 0 0 0 0 0 0 0 0 0"
    ascent="844"
    descent="-156"
    x-height="700"
    cap-height="700"
    bbox="-188 -240 1223 925"
    underline-thickness="49"
    underline-position="-153"
    unicode-range="U+0020-25CA"
  />
<missing-glyph horiz-adv-x="680" 
d="M91 85v530v-1q0 40 24 63q25 23 61 23h330q38 0 61 -22q24 -22 24 -63v-530q0 -42 -24 -63t-61 -21h-330q-37 0 -61 21t-24 63zM187 20h306h1q37 0 56 17q18 17 18 59v508q0 42 -21 59q-22 17 -64 17h-286q-47 0 -66 -17q-18 -17 -18 -59v-508q0 -42 20 -59t54 -17z
M484 545l37 -35l-146 -158l146 -159l-38 -35l-143 156l-144 -156l-38 35l146 158l-146 159l38 35l144 -155z" />
    <glyph glyph-name=".notdef" horiz-adv-x="680" 
d="M91 85v530v-1q0 40 24 63q25 23 61 23h330q38 0 61 -22q24 -22 24 -63v-530q0 -42 -24 -63t-61 -21h-330q-37 0 -61 21t-24 63zM187 20h306h1q37 0 56 17q18 17 18 59v508q0 42 -21 59q-22 17 -64 17h-286q-47 0 -66 -17q-18 -17 -18 -59v-508q0 -42 20 -59t54 -17z
M484 545l37 -35l-146 -158l146 -159l-38 -35l-143 156l-144 -156l-38 35l146 158l-146 159l38 35l144 -155z" />
    <glyph glyph-name=".null" horiz-adv-x="0" 
 />
    <glyph glyph-name="nonmarkingreturn" horiz-adv-x="333" 
 />
    <glyph glyph-name="space" unicode=" " horiz-adv-x="230" 
 />
    <glyph glyph-name="exclam" unicode="!" horiz-adv-x="237" 
d="M90 232v468h57v-468h-57zM90 0v157h57v-157h-57z" />
    <glyph glyph-name="quotedbl" unicode="&#x22;" horiz-adv-x="362" 
d="M90 483v217h57v-217h-57zM215 483v217h57v-217h-57z" />
    <glyph glyph-name="numbersign" unicode="#" horiz-adv-x="783" 
d="M733 468h-127l-101 -222h125l-23 -48h-124l-90 -198h-56l91 198h-224l-90 -198h-56l91 198h-118l23 48h117l102 222h-117l23 48h116l84 184h53l-84 -184h226l85 184h53l-84 -184h127zM450 246l102 222h-225l-101 -222h224z" />
    <glyph glyph-name="dollar" unicode="$" horiz-adv-x="542" 
d="M494 536l-54 -14l-4 -9q-12 67 -57 104q-46 38 -114 38q-35 0 -63 -9q-30 -10 -50 -25q-21 -17 -33 -40q-12 -24 -12 -52q0 -29 17 -52q16 -23 42 -39q25 -16 59 -30q8 -3 65 -25q34 -13 72 -30q40 -18 68 -40q31 -25 50 -57q20 -34 20 -81q0 -41 -15 -75t-42 -60
q-28 -27 -65 -40q-38 -15 -84 -18v-77h-55v78q-91 9 -142 62q-53 54 -63 132l54 15q3 -33 17 -63t37 -50q24 -21 57 -33t75 -12q38 0 71 11q30 10 54 29q21 17 34 44q12 26 12 56q0 40 -19 66q-20 28 -49 45q-32 19 -66 32q-24 9 -72 29q-35 15 -62 27q-32 14 -61 36
q-28 20 -46 51q-18 30 -18 72q0 34 14 67q13 31 39 55q25 24 60 39q33 14 77 19v77h55v-77q79 -8 131 -54t66 -122z" />
    <glyph glyph-name="percent" unicode="%" horiz-adv-x="825" 
d="M174 297v-4q-38 0 -68 15t-51 42t-33 65q-12 37 -12 83t12 83q12 38 33 65t51 42t68 15t68 -15t51 -42t33 -64q12 -38 12 -82t-12 -82q-12 -37 -33 -64t-51 -42t-68 -15zM163 -2l446 699h44l-445 -699h-45zM176 341h-2q56 0 87 45q32 46 32 115q0 71 -31 115
q-32 45 -87 45t-87 -45q-31 -44 -31 -115q0 -69 32 -115q31 -45 87 -45zM645 -7v-3q-37 0 -68 14q-30 15 -51 42t-33 65q-12 37 -12 83q0 44 12 81q12 38 33 65t51 42t68 15t68 -15t51 -42t33 -64q12 -38 12 -81q0 -45 -12 -82t-33 -64t-51 -42q-31 -14 -68 -14zM647 36h-2
q55 0 87 45q32 46 32 115q0 71 -31 115q-31 45 -87 45t-87 -45q-31 -44 -31 -115q0 -69 32 -115q32 -45 87 -45z" />
    <glyph glyph-name="ampersand" unicode="&#x26;" horiz-adv-x="664" 
d="M640 386v-48l-126 -7v-99q0 -60 -13 -105q-14 -47 -42 -80q-29 -33 -74 -50q-45 -18 -110 -18q-53 0 -96 15q-42 13 -73 41q-30 27 -47 65q-17 39 -17 83q0 42 13 72q14 33 34 53q22 22 48 35t56 16v1q-22 3 -46 15q-22 11 -43 32q-20 20 -32 48q-12 29 -12 66
q0 35 12 69q12 35 37 61q26 28 66 44q42 17 96 17q84 0 144 -48t78 -141l-51 -14q-17 76 -58 114q-42 39 -114 39q-44 0 -73 -13q-31 -14 -48 -34t-25 -46q-7 -24 -7 -48q0 -25 11 -52q10 -24 32 -43t52 -29q33 -11 72 -11h356zM462 240v99l-179 -1q-83 0 -133 -37
q-51 -37 -51 -112q0 -36 13 -63q14 -29 37 -48q24 -20 57 -30q35 -11 72 -11q51 0 88 14q36 13 57 39t30 63t9 87z" />
    <glyph glyph-name="quotesingle" unicode="'" horiz-adv-x="237" 
d="M90 483v217h57v-217h-57z" />
    <glyph glyph-name="parenleft" unicode="(" horiz-adv-x="337" 
d="M282 848l19 -52l-2 -1q-103 -37 -150 -147q-47 -111 -47 -298q0 -189 47 -300q47 -109 150 -146l-19 -51q-55 19 -99 59q-42 37 -73 100q-29 60 -46 145q-16 81 -16 193q0 216 62 337t174 161z" />
    <glyph glyph-name="parenright" unicode=")" horiz-adv-x="339" 
d="M39 796l19 52l-2 -1q113 -41 174 -160q62 -121 62 -337q0 -112 -16 -193q-17 -85 -46 -145q-30 -61 -73 -99q-44 -40 -99 -59l-19 51q103 37 150 146q47 111 47 300q0 187 -47 298q-47 109 -150 147z" />
    <glyph glyph-name="asterisk" unicode="*" horiz-adv-x="487" 
d="M385 605l12 -38l-123 -37l78 -114l-33 -23l-75 115l-75 -115l-33 23l77 114l-123 37l12 38l121 -39v134h42l-3 -134z" />
    <glyph glyph-name="plus" unicode="+" 
d="M539 380v-49h-187v-189h-53v189h-186v49h186v185h53v-185h187z" />
    <glyph glyph-name="comma" unicode="," horiz-adv-x="198" 
d="M93 -16l9 4l-11 2q-14 -2 -26 9q-12 9 -12 29q0 18 12 29q13 11 29 11q18 0 30 -14t12 -36t-6 -44t-15 -42t-21 -36q-12 -17 -22 -28h-27q18 20 33 51t15 65z" />
    <glyph glyph-name="hyphen" unicode="-" horiz-adv-x="607" 
d="M90 380h427v-49h-427v49z" />
    <glyph glyph-name="period" unicode="." horiz-adv-x="198" 
d="M99 -13l-1 -1q-16 0 -28 12q-12 10 -12 28t12 30t29 12t27 -12q11 -13 11 -29q0 -17 -11 -28q-10 -12 -27 -12z" />
    <glyph glyph-name="slash" unicode="/" horiz-adv-x="423" 
d="M24 0l321 700h54l-319 -700h-56z" />
    <glyph glyph-name="zero" unicode="0" horiz-adv-x="647" 
d="M322 712v-6q68 0 120 -28t88 -78t54 -115q18 -66 18 -142t-18 -142q-18 -65 -54 -115t-88 -78q-52 -27 -120 -27q-66 0 -120 28q-52 29 -87 78q-35 50 -53 116t-18 143t18 143t53 116q35 49 87 78q53 29 120 29zM323 659l-1 -2q-56 0 -96 -24t-69 -66t-42 -99
q-13 -55 -13 -121q0 -62 14 -121q14 -57 42 -99t69 -66t96 -24t97 24t69 66q28 43 41 99q14 59 14 122t-14 122q-13 56 -41 99q-27 42 -69 66t-97 24z" />
    <glyph glyph-name="one" unicode="1" horiz-adv-x="360" 
d="M230 700h40l1 -699h-57v503v40q0 15 2 37q1 11 1 27v11h-1l-5 -5q-3 -3 -13 -15t-16 -18l-15 -15l-86 -85l-37 35z" />
    <glyph glyph-name="two" unicode="2" horiz-adv-x="526" 
d="M121 53l2 -1l-2 -1q10 0 28 1t76 1h261v-53h-442v44q50 48 150 142t150 142q34 31 60 77t26 100q0 35 -12 63q-12 29 -33 50q-22 22 -51 32q-31 11 -64 11q-73 0 -117 -38q-43 -37 -60 -101l-53 14q24 86 84 131t148 45q46 0 87 -15t69 -42t45 -66q16 -38 16 -85
q0 -49 -17 -91q-16 -39 -42 -73q-24 -32 -56 -60q-30 -27 -57 -51q-31 -29 -66 -60t-63 -57t-48 -42z" />
    <glyph glyph-name="three" unicode="3" horiz-adv-x="553" 
d="M109 523l-51 13l7 1q18 84 77 131t147 47q57 0 98 -15q39 -14 67 -41q27 -26 39 -58q12 -33 12 -68q0 -38 -13 -67q-14 -31 -34 -51q-21 -21 -48 -33q-28 -13 -54 -14v-2q28 -2 57 -12q28 -10 51 -32q23 -21 36 -52q14 -33 14 -72q0 -47 -17 -87q-16 -38 -47 -66
q-30 -27 -72 -42q-44 -14 -91 -14q-43 0 -87 13q-40 14 -72 39q-31 25 -52 61q-20 35 -28 79l51 14q4 -33 20 -63q15 -28 39 -49t56 -33t69 -12q43 0 74 12q32 12 53 33q22 21 32 50q11 30 11 62q0 70 -48 106t-127 36h-56v49h56q77 0 122 36t45 105q0 24 -9 48t-28 43
q-20 20 -51 32t-75 12q-74 0 -115 -37t-58 -102z" />
    <glyph glyph-name="four" unicode="4" horiz-adv-x="573" 
d="M534 241v-52h-93v-189h-55v189h-346v41l358 469h43v-458h93zM225 242h165l-4 227v54q0 19 2 45q0 6 0.5 17t1.5 15l1 12h-1l-6 -8q-6 -8 -15 -21t-21 -30q-8 -11 -26 -35l-153 -200q-27 -36 -48 -59q-13 -14 -13 -16l1 -1h15h29h36h36z" />
    <glyph glyph-name="five" unicode="5" horiz-adv-x="538" 
d="M123 387l1 -2l1 -4q7 11 21 24t33 24t45 18q24 7 54 7q48 0 91 -17q42 -17 72 -48q31 -32 47 -75q17 -45 17 -96t-17 -96q-16 -43 -47 -75q-30 -31 -72 -48q-42 -18 -91 -18q-50 0 -90 15q-38 13 -70 40q-29 24 -49 62q-20 36 -27 79l52 14q13 -69 59 -115
q45 -45 122 -45q36 0 69 14q32 13 54 39t36 60q13 33 13 75t-13 75q-14 34 -36 60t-54 39q-33 14 -69 14t-63 -9q-25 -8 -46 -23q-19 -13 -31 -31q-11 -17 -19 -34l-49 14l61 375h337v-54h-294l-23 -134q-10 -57 -18 -90q-7 -31 -7 -34z" />
    <glyph glyph-name="six" unicode="6" horiz-adv-x="549" 
d="M365 696l-223 -304l3 2q22 30 59 48q36 18 87 18t93 -18q43 -18 72 -49q31 -32 47 -75q17 -45 17 -94q0 -52 -18 -96t-49 -75t-75 -49q-45 -17 -96 -17t-96 17q-43 18 -75 50q-31 31 -49 75q-18 43 -18 96q0 35 6 65q6 28 17 59q11 29 27 57t39 60l169 230h63zM282 38
l-1 -4q40 0 74 14q33 14 57 39q23 25 37 60q14 36 14 77q0 42 -12 76t-36 58q-25 25 -58 38q-36 14 -75 14q-42 0 -74 -13t-57 -38q-23 -23 -37 -58q-13 -33 -13 -75q0 -45 13 -78q14 -36 37 -59q25 -25 57 -38t74 -13z" />
    <glyph glyph-name="seven" unicode="7" horiz-adv-x="500" 
d="M30 700h448l-2 -41l-342 -661h-60l290 557l18 33q3 6 17 28l12 20l5 8l-1 2h-9h-22h-30h-33h-291v54z" />
    <glyph glyph-name="eight" unicode="8" horiz-adv-x="571" 
d="M363 369v-2l2 2q29 -3 57 -15t53 -35q24 -23 39 -55q15 -33 15 -76q0 -46 -18 -84q-18 -37 -49 -64q-33 -28 -76 -41q-45 -15 -99 -15t-99 15q-43 13 -76 41q-31 27 -49 64q-18 38 -18 84q0 43 15 76q15 32 39 55q25 23 53 35t57 15v2q-17 1 -39 12q-24 11 -44 30
q-21 19 -36 48t-15 68t15 72q15 32 44 57q30 25 67 38q40 14 86 14q47 0 87 -14q39 -14 66 -39q27 -26 42 -58q15 -33 15 -72t-15 -68t-36 -48q-20 -19 -44 -30q-22 -11 -39 -12zM124 529v-3q0 -60 45 -96t116 -36q37 0 66 10q31 11 51 28q21 18 33 42t12 53q0 31 -12 57
t-33 44q-20 17 -51 28q-29 10 -66 10q-72 0 -116 -37q-45 -37 -45 -100zM99 191v-1q0 -72 50 -114q49 -42 135 -42q88 0 137 42q50 42 50 114q0 70 -51 111q-52 41 -136 41q-86 0 -135 -40q-50 -41 -50 -111z" />
    <glyph glyph-name="nine" unicode="9" horiz-adv-x="557" 
d="M182 0l235 302l-3 2q-26 -31 -66 -49q-39 -18 -82 -18q-56 0 -99 18q-44 18 -74 50q-29 31 -46 75q-16 42 -16 93q0 55 18 100q17 43 50 76q31 31 77 48t96 17q53 0 95 -16q44 -17 77 -48q33 -32 51 -76q18 -45 18 -103q0 -36 -7 -67q-8 -34 -22 -67q-15 -35 -39 -72
q-26 -41 -58 -81l-142 -184h-63zM272 662l1 -1q-37 0 -70 -12q-34 -12 -59 -36q-25 -23 -40 -60q-15 -36 -15 -84q0 -47 15 -81t41 -57q25 -22 59 -33q35 -11 69 -11q39 0 73 12t60 36t39 58q14 36 14 78q0 49 -15 85q-16 37 -40 59q-26 23 -60 35t-72 12z" />
    <glyph glyph-name="colon" unicode=":" horiz-adv-x="198" 
d="M98 301l-1 -1q-16 0 -28 12t-12 29q0 18 12 30t29 12q16 0 27 -12q11 -13 11 -29t-11 -29q-11 -12 -27 -12zM99 -13l-1 -1q-16 0 -28 12q-12 10 -12 28t12 30t29 12t27 -12q11 -13 11 -29q0 -17 -11 -28q-10 -12 -27 -12z" />
    <glyph glyph-name="semicolon" unicode=";" horiz-adv-x="211" 
d="M107 303l-1 -1q-16 0 -28 12t-12 29q0 18 12 30t29 12t27 -12q11 -13 11 -29t-11 -29q-10 -12 -27 -12zM108 -19l9 4l-11 2q-14 -2 -26 9q-12 9 -12 29q0 19 12 29q13 11 29 11q18 0 30 -14q12 -13 12 -36q0 -21 -6 -44t-15 -42t-21 -36t-22 -28h-27q18 19 33 51t15 65z
" />
    <glyph glyph-name="less" unicode="&#x3c;" 
d="M182 367l341 -244h-79l-343 244l343 244h79z" />
    <glyph glyph-name="equal" unicode="=" 
d="M113 464h426v-49h-426v49zM113 293h426v-49h-426v49z" />
    <glyph glyph-name="greater" unicode="&#x3e;" 
d="M110 123l341 244l-341 244h79l343 -244l-343 -244h-79z" />
    <glyph glyph-name="question" unicode="?" horiz-adv-x="530" 
d="M222 232v92l2 -4q54 22 94 45q36 21 64 47q25 24 36 50q11 27 11 56q0 24 -8 51q-7 25 -27 45q-21 21 -49 32q-30 12 -73 12q-78 0 -120 -36q-41 -35 -58 -101l-49 13q18 86 79 132t150 46q56 0 96 -15t66 -42q27 -28 38 -61q12 -34 12 -72q0 -42 -18 -76
q-19 -36 -46 -62q-28 -27 -66 -48q-35 -20 -76 -37v-67h-58zM222 0v157h58v-157h-58z" />
    <glyph glyph-name="at" unicode="@" horiz-adv-x="740" 
d="M475 535h43l-7 -275q-1 -28 15 -49q15 -19 39 -19q20 0 35 12q16 13 26 33q10 19 16 51q6 30 6 66q0 71 -21 131q-21 59 -59 102q-38 42 -90 66t-115 24t-115 -24t-90 -66q-38 -43 -59 -102q-21 -60 -21 -130q0 -72 21 -132q21 -59 59 -105q37 -44 90 -70q51 -25 114 -25
q50 0 84 9t57 21q22 12 35 23q16 14 17 15l32 -16q-3 -5 -20 -22q-15 -15 -42 -30q-28 -16 -68 -26q-41 -12 -96 -12q-71 0 -131 27q-59 28 -103 78q-43 49 -67 117q-24 67 -24 147q0 79 24 145q24 65 68 114q43 48 104 75q60 27 131 27q72 0 132 -27q61 -27 104 -75
q44 -49 68 -114q24 -66 24 -145q0 -42 -9 -78t-24 -63q-15 -26 -38 -42q-22 -15 -53 -15q-34 0 -60 23q-25 22 -27 68l-1 1q-7 -20 -21 -36q-13 -16 -31 -28q-17 -11 -37 -19q-18 -7 -41 -7q-36 0 -69 14q-32 14 -54 39t-34 61t-12 78q0 46 12 83t35 65q23 27 54 42t70 15
q31 0 54 -9t38 -21q16 -13 23 -24q8 -13 8 -16h1v50zM478 337v64l-3 2q0 25 -9 45t-25 33q-17 13 -39 21q-21 7 -46 7q-57 0 -91 -43q-35 -44 -33 -117q0 -69 36 -109t90 -40q53 0 86 37q34 39 34 100z" />
    <glyph glyph-name="A" unicode="A" horiz-adv-x="655" 
d="M569 0l-79 204h-329l-79 -204h-60l277 700h53l277 -700h-60zM183 255h289l-118 299q-5 13 -18 54q-8 24 -9 24h-1q-2 0 -9 -24q-13 -41 -18 -54z" />
    <glyph glyph-name="B" unicode="B" horiz-adv-x="585" 
d="M88 698h216l1 -2q45 0 81 -12t61 -34t39 -54q14 -33 14 -69q0 -29 -12 -55q-12 -25 -30 -43t-39 -30t-41 -15v-2q21 -1 51 -14q27 -12 54 -35q26 -23 42 -55q17 -34 17 -76q0 -96 -59 -150q-57 -53 -162 -53h-233v699zM147 403h154h-2q32 0 59 9q26 9 45 26t29 39
q11 24 11 48q0 56 -39 89t-105 33h-152v-244zM147 51h175v-2q35 0 66 11q30 10 51 30t33 48t12 65q0 35 -13 62q-13 29 -36 48q-23 20 -53 32t-64 12h-171v-306z" />
    <glyph glyph-name="C" unicode="C" horiz-adv-x="678" 
d="M643 532l-57 -15l-4 -3q-32 69 -90 105t-132 36q-57 0 -105 -21t-82 -61q-35 -41 -54 -97t-19 -129q0 -71 20 -129q19 -56 54 -97q34 -39 83 -61q48 -21 104 -21q79 0 141 44q61 43 93 119l55 -16q-36 -97 -112 -149t-177 -52q-66 0 -127 25q-59 26 -101 74t-66 115
t-24 150t24 151t67 115t102 73q60 26 127 26q95 0 168 -48q72 -47 112 -134z" />
    <glyph glyph-name="D" unicode="D" horiz-adv-x="710" 
d="M91 700h246h2q73 0 132 -25q61 -26 104 -72q45 -48 68 -112q24 -66 24 -145q0 -80 -24 -144q-24 -65 -67 -109q-44 -45 -102 -69t-129 -24h-254v700zM147 54h199h1q56 0 105 20t83 57t54 92t20 122q0 71 -21 126t-57 94t-85 60q-50 21 -108 21h-191v-592z" />
    <glyph glyph-name="E" unicode="E" horiz-adv-x="558" 
d="M147 54h358v-54h-415v700h409v-54h-352v-245h280v-53h-280v-294z" />
    <glyph glyph-name="F" unicode="F" horiz-adv-x="521" 
d="M492 646h-345v-265h273v-53h-273v-328h-57v700h402v-54z" />
    <glyph glyph-name="G" unicode="G" horiz-adv-x="707" 
d="M601 108h-1l-4 -6q-10 -15 -30 -36q-19 -20 -50 -39q-33 -20 -69 -31q-38 -13 -88 -13q-65 0 -126 25q-59 26 -101 72t-66 114t-24 150q0 84 24 151q24 68 67 115t102 73q60 26 126 26q100 -1 171 -50q70 -48 108 -132l-57 -15q-31 69 -90 105t-132 36q-57 0 -105 -21
q-47 -21 -82 -60q-34 -39 -54 -96q-19 -56 -19 -129q0 -71 20 -129q20 -57 55 -97t84 -61q48 -21 105 -21q46 0 86 14q38 13 69 35q29 20 51 47q21 25 30 50v120h-197v50h247v-357h-50v86v24z" />
    <glyph glyph-name="H" unicode="H" horiz-adv-x="666" 
d="M518 700h57v-700h-57v338h-371v-338h-57v700h57v-307h371v307z" />
    <glyph glyph-name="I" unicode="I" horiz-adv-x="237" 
d="M147 0h-57v700h57v-700z" />
    <glyph glyph-name="J" unicode="J" horiz-adv-x="591" 
d="M461 700h58l-3 -440q-2 -133 -66 -203q-65 -71 -191 -71q-95 0 -157 47q-64 48 -86 129l56 15q18 -66 69 -102t120 -36q101 0 150 57q50 58 50 160v444z" />
    <glyph glyph-name="K" unicode="K" horiz-adv-x="621" 
d="M586 0h-66l-261 376l-112 -120v-256h-57v699h57v-208q0 -90 -1 -120q-2 -45 0 -45h1l11 12q10 12 27 30q24 26 35 39t35 39l236 254h69l-264 -283z" />
    <glyph glyph-name="L" unicode="L" horiz-adv-x="514" 
d="M147 54h347v-54h-404v700h57v-646z" />
    <glyph glyph-name="M" unicode="M" horiz-adv-x="752" 
d="M608 700h54l-8 -702h-56v338q0 64 1 96q1 46 3 85q0 11 0.5 31.5t1.5 29.5l1 24h-1l-4 -9l-12 -24q-2 -3 -5 -9.5t-6 -12.5l-6 -12q-12 -26 -19 -40l-166 -318h-30l-166 318q-14 28 -20 41q-2 4 -7.5 16.5t-8.5 18.5l-12 24l-4 9h-1l1 -23q1 -9 1.5 -29.5t0.5 -31.5
q2 -39 3 -85q1 -32 1 -96v-339h-56v700h54l169 -327q13 -24 31 -60q4 -9 10.5 -22l8.5 -17q3 -6 6 -13t4 -8l3 -6h2l3 6q3 6 9 21t18 39q6 12 32 60z" />
    <glyph glyph-name="N" unicode="N" horiz-adv-x="684" 
d="M537 700h57l-4 -699h-52l-320 485q-51 77 -57 87q-19 34 -21 34h-2l1 -14q1 -5 1.5 -18t0.5 -20q1 -24 3 -57q1 -22 1 -70v-427h-57v700h53l319 -483q43 -63 56 -85q21 -34 22 -34h1v15v39q0 35 -1 56t-1 66v425z" />
    <glyph glyph-name="O" unicode="O" horiz-adv-x="727" 
d="M40 347l-3 -2q0 83 24 151t67 115t102 73q60 26 126 26q68 0 128 -26q59 -26 102 -73t67 -115t24 -150q0 -84 -24 -151q-24 -68 -67 -115t-102 -73q-58 -24 -126 -24q-66 0 -127 25q-59 26 -101 74t-66 115t-24 150zM102 350l-4 -3q0 -71 20 -129q19 -56 54 -97
q34 -39 83 -61q48 -21 105 -21t105 21t83 62q34 40 54 98t20 128q0 75 -19 131q-19 57 -54 96q-34 39 -83 60q-48 21 -104 21q-57 0 -105 -21q-47 -21 -82 -60t-54 -96q-19 -56 -19 -129z" />
    <glyph glyph-name="P" unicode="P" horiz-adv-x="533" 
d="M90 700h176l-1 -2q114 0 178 -58t64 -160q0 -49 -17 -91q-16 -41 -48 -69q-31 -28 -76 -43t-100 -15h-119v-262h-57v700zM147 316h119q88 0 135 45t47 120q0 81 -49 123t-133 42h-119v-330z" />
    <glyph glyph-name="Q" unicode="Q" horiz-adv-x="727" 
d="M330 -134v119v-1q-63 6 -117 33q-54 29 -93 75t-60 111t-21 143q0 84 24 151q24 68 67 115t102 73q60 26 126 26q68 0 128 -26q59 -26 102 -73t67 -115q24 -67 24 -150q0 -81 -22 -144q-23 -66 -61 -111q-39 -46 -92 -75q-54 -28 -116 -32v-119h-58zM363 41l-4 -3
q57 0 105 21t83 62q34 40 54 98t20 128q0 75 -19 131q-20 57 -54 96t-83 60q-48 21 -104 21q-57 0 -105 -21q-47 -21 -82 -60q-34 -39 -54 -96q-19 -56 -19 -129q0 -71 20 -129q19 -56 54 -97q34 -39 83 -61q48 -21 105 -21z" />
    <glyph glyph-name="R" unicode="R" horiz-adv-x="574" 
d="M529 0h-64l-154 273q-23 -3 -48 -3h-119v-270h-57v700h177q56 0 101 -15q47 -16 77 -43q32 -28 48 -69q17 -42 17 -90q0 -75 -36 -125t-102 -72zM147 321h122h-1q88 0 135 45t47 119q0 77 -48 119t-133 42h-122v-325z" />
    <glyph glyph-name="S" unicode="S" horiz-adv-x="542" 
d="M494 536l-54 -14l-4 -7q-12 67 -57 104q-46 38 -114 38q-35 0 -63 -9q-30 -10 -50 -25q-21 -17 -33 -40q-12 -24 -12 -52q0 -29 17 -52q16 -23 42 -39q25 -16 59 -30q8 -3 65 -25q34 -13 72 -30q40 -18 68 -40q31 -25 50 -57q20 -34 20 -81q0 -43 -16 -78
q-16 -36 -46 -61q-30 -26 -72 -39q-42 -15 -94 -15t-94 15q-40 13 -72 40q-30 25 -48 62q-18 36 -24 78l54 15q3 -33 17 -63t37 -50q24 -21 57 -33t75 -12q38 0 71 11q30 10 54 29q21 17 34 44q12 26 12 56q0 40 -19 66q-20 28 -49 45q-32 19 -66 32q-24 9 -72 29
q-35 15 -62 27q-32 14 -61 36q-28 20 -46 51q-18 30 -18 72q0 40 16 72q16 33 45 57q28 23 69 37q42 14 88 14q44 0 81 -12t67 -36q29 -23 49 -57q20 -33 27 -73z" />
    <glyph glyph-name="T" unicode="T" horiz-adv-x="543" 
d="M24 700h495v-54h-219v-646h-57v646h-219v54z" />
    <glyph glyph-name="U" unicode="U" 
d="M522 700h57l1 -439q0 -137 -66 -207q-65 -69 -189 -69q-125 0 -188 69q-65 71 -65 207v439h57v-442q0 -110 49 -165t147 -55q99 0 148 55t49 165v442z" />
    <glyph glyph-name="V" unicode="V" horiz-adv-x="650" 
d="M566 700h60l-273 -700h-58l-272 699h60l206 -533q4 -11 12 -35l11 -33l8 -24l4 -9h2l3 10l8 24l11 33q8 24 12 35z" />
    <glyph glyph-name="W" unicode="W" horiz-adv-x="885" 
d="M798 700h59l-220 -702h-50l-112 384q-24 81 -29 108q-6 32 -7 32h-1q-1 0 -7 -32q-7 -37 -28 -107l-113 -384h-50l-215 699h59l156 -512q12 -40 19 -75q6 -28 7 -28h1q1 0 7 29q5 22 20 75l123 412h48l123 -412q15 -53 20 -75q6 -28 7 -28h1q1 0 7 29q5 22 20 75z" />
    <glyph glyph-name="X" unicode="X" horiz-adv-x="604" 
d="M302 321h-1l-2 -8l-10 -15q-6 -9 -12 -21q-6 -13 -13 -22l-176 -255h-68l249 365l-227 334h68l154 -229q1 -1 5 -7.5t6 -10.5l12 -21q2 -4 6 -10.5t5 -7.5l5 -7h1l5 8q1 1 5 7.5t6 10.5l12 21q2 4 6 10.5t5 7.5l155 229h68l-227 -334l249 -366h-69l-175 256q-5 7 -15 23
q-2 3 -6.5 10.5t-6.5 10.5l-10 15z" />
    <glyph glyph-name="Y" unicode="Y" horiz-adv-x="586" 
d="M504 700h64l-249 -355v-345h-56v345l-247 355h64l169 -241l15 -24l14 -21l10 -15l4 -6h1l4 6l10 15q2 3 6.5 10.5t6.5 10.5l15 24z" />
    <glyph glyph-name="Z" unicode="Z" horiz-adv-x="619" 
d="M564 700v-52l-398 -541q-22 -28 -31 -40q-12 -15 -12 -16l1 -1q9 0 24 1t59 1h356v-53h-509v51l399 542q4 5 14 17t15 17q9 9 12 13l5 6l-2 1h-24h-61h-347v54h499z" />
    <glyph glyph-name="bracketleft" unicode="[" horiz-adv-x="303" 
d="M149 802v-897h120v-54h-179v1005h179v-54h-120z" />
    <glyph glyph-name="backslash" unicode="\" horiz-adv-x="423" 
d="M77 700l322 -700h-56l-319 700h53z" />
    <glyph glyph-name="bracketright" unicode="]" horiz-adv-x="313" 
d="M164 -95v897h-120v54h179v-1005h-179v54h120z" />
    <glyph glyph-name="asciicircum" unicode="^" horiz-adv-x="612" 
d="M522 477l-31 -29l-185 204l-184 -204l-32 29l216 236z" />
    <glyph glyph-name="underscore" unicode="_" horiz-adv-x="704" 
d="M90 0h524v-45h-524v45z" />
    <glyph glyph-name="grave" unicode="`" horiz-adv-x="303" 
d="M235 741l-192 105l24 41l189 -111z" />
    <glyph glyph-name="a" unicode="a" horiz-adv-x="655" 
d="M569 0l-79 204h-329l-79 -204h-60l277 700h53l277 -700h-60zM183 255h289l-118 299q-5 13 -18 54q-8 24 -9 24h-1q-2 0 -9 -24q-13 -41 -18 -54z" />
    <glyph glyph-name="b" unicode="b" horiz-adv-x="585" 
d="M88 698h216l1 -2q45 0 81 -12t61 -34t39 -54q14 -33 14 -69q0 -29 -12 -55q-12 -25 -30 -43t-39 -30t-41 -15v-2q21 -1 51 -14q27 -12 54 -35q26 -23 42 -55q17 -34 17 -76q0 -96 -59 -150q-57 -53 -162 -53h-233v699zM147 403h154h-2q32 0 59 9q26 9 45 26t29 39
q11 24 11 48q0 56 -39 89t-105 33h-152v-244zM147 51h175v-2q35 0 66 11q30 10 51 30t33 48t12 65q0 35 -13 62q-13 29 -36 48q-23 20 -53 32t-64 12h-171v-306z" />
    <glyph glyph-name="c" unicode="c" horiz-adv-x="678" 
d="M643 532l-57 -15l-4 -3q-32 69 -90 105t-132 36q-57 0 -105 -21t-82 -61q-35 -41 -54 -97t-19 -129q0 -71 20 -129q19 -56 54 -97q34 -39 83 -61q48 -21 104 -21q79 0 141 44q61 43 93 119l55 -16q-36 -97 -112 -149t-177 -52q-66 0 -127 25q-59 26 -101 74t-66 115
t-24 150t24 151t67 115t102 73q60 26 127 26q95 0 168 -48q72 -47 112 -134z" />
    <glyph glyph-name="d" unicode="d" horiz-adv-x="710" 
d="M91 700h246h2q73 0 132 -25q61 -26 104 -72q45 -48 68 -112q24 -66 24 -145q0 -80 -24 -144q-24 -65 -67 -109q-44 -45 -102 -69t-129 -24h-254v700zM147 54h199h1q56 0 105 20t83 57t54 92t20 122q0 71 -21 126t-57 94t-85 60q-50 21 -108 21h-191v-592z" />
    <glyph glyph-name="e" unicode="e" horiz-adv-x="558" 
d="M147 54h358v-54h-415v700h409v-54h-352v-245h280v-53h-280v-294z" />
    <glyph glyph-name="f" unicode="f" horiz-adv-x="521" 
d="M492 646h-345v-265h273v-53h-273v-328h-57v700h402v-54z" />
    <glyph glyph-name="g" unicode="g" horiz-adv-x="707" 
d="M601 108h-1l-4 -6q-10 -15 -30 -36q-19 -20 -50 -39q-33 -20 -69 -31q-38 -13 -88 -13q-65 0 -126 25q-59 26 -101 72t-66 114t-24 150q0 84 24 151q24 68 67 115t102 73q60 26 126 26q100 -1 171 -50q70 -48 108 -132l-57 -15q-31 69 -90 105t-132 36q-57 0 -105 -21
q-47 -21 -82 -60q-34 -39 -54 -96q-19 -56 -19 -129q0 -71 20 -129q20 -57 55 -97t84 -61q48 -21 105 -21q46 0 86 14q38 13 69 35q29 20 51 47q21 25 30 50v120h-197v50h247v-357h-50v86v24z" />
    <glyph glyph-name="h" unicode="h" horiz-adv-x="666" 
d="M518 700h57v-700h-57v338h-371v-338h-57v700h57v-307h371v307z" />
    <glyph glyph-name="i" unicode="i" horiz-adv-x="237" 
d="M147 0h-57v700h57v-700z" />
    <glyph glyph-name="j" unicode="j" horiz-adv-x="591" 
d="M461 700h58l-3 -440q-2 -133 -66 -203q-65 -71 -191 -71q-95 0 -157 47q-64 48 -86 129l56 15q18 -66 69 -102t120 -36q101 0 150 57q50 58 50 160v444z" />
    <glyph glyph-name="k" unicode="k" horiz-adv-x="621" 
d="M586 0h-66l-261 376l-112 -120v-256h-57v699h57v-208q0 -90 -1 -120q-2 -45 0 -45h1l11 12q10 12 27 30q24 26 35 39t35 39l236 254h69l-264 -283z" />
    <glyph glyph-name="l" unicode="l" horiz-adv-x="514" 
d="M147 54h347v-54h-404v700h57v-646z" />
    <glyph glyph-name="m" unicode="m" horiz-adv-x="752" 
d="M608 700h54l-8 -702h-56v338q0 64 1 96q1 46 3 85q0 11 0.5 31.5t1.5 29.5l1 24h-1l-4 -9l-12 -24q-2 -3 -5 -9.5t-6 -12.5l-6 -12q-12 -26 -19 -40l-166 -318h-30l-166 318q-14 28 -20 41q-2 4 -7.5 16.5t-8.5 18.5l-12 24l-4 9h-1l1 -23q1 -9 1.5 -29.5t0.5 -31.5
q2 -39 3 -85q1 -32 1 -96v-339h-56v700h54l169 -327q13 -24 31 -60q4 -9 10.5 -22l8.5 -17q3 -6 6 -13t4 -8l3 -6h2l3 6q3 6 9 21t18 39q6 12 32 60z" />
    <glyph glyph-name="n" unicode="n" horiz-adv-x="684" 
d="M537 700h57l-4 -699h-52l-320 485q-51 77 -57 87q-19 34 -21 34h-2l1 -14q1 -5 1.5 -18t0.5 -20q1 -24 3 -57q1 -22 1 -70v-427h-57v700h53l319 -483q43 -63 56 -85q21 -34 22 -34h1v15v39q0 35 -1 56t-1 66v425z" />
    <glyph glyph-name="o" unicode="o" horiz-adv-x="727" 
d="M40 347l-3 -2q0 83 24 151t67 115t102 73q60 26 126 26q68 0 128 -26q59 -26 102 -73t67 -115t24 -150q0 -84 -24 -151q-24 -68 -67 -115t-102 -73q-58 -24 -126 -24q-66 0 -127 25q-59 26 -101 74t-66 115t-24 150zM102 350l-4 -3q0 -71 20 -129q19 -56 54 -97
q34 -39 83 -61q48 -21 105 -21t105 21t83 62q34 40 54 98t20 128q0 75 -19 131q-19 57 -54 96q-34 39 -83 60q-48 21 -104 21q-57 0 -105 -21q-47 -21 -82 -60t-54 -96q-19 -56 -19 -129z" />
    <glyph glyph-name="p" unicode="p" horiz-adv-x="533" 
d="M90 700h176l-1 -2q114 0 178 -58t64 -160q0 -49 -17 -91q-16 -41 -48 -69q-31 -28 -76 -43t-100 -15h-119v-262h-57v700zM147 316h119q88 0 135 45t47 120q0 81 -49 123t-133 42h-119v-330z" />
    <glyph glyph-name="q" unicode="q" horiz-adv-x="727" 
d="M330 -134v119v-1q-63 6 -117 33q-54 29 -93 75t-60 111t-21 143q0 84 24 151q24 68 67 115t102 73q60 26 126 26q68 0 128 -26q59 -26 102 -73t67 -115q24 -67 24 -150q0 -81 -22 -144q-23 -66 -61 -111q-39 -46 -92 -75q-54 -28 -116 -32v-119h-58zM363 41l-4 -3
q57 0 105 21t83 62q34 40 54 98t20 128q0 75 -19 131q-20 57 -54 96t-83 60q-48 21 -104 21q-57 0 -105 -21q-47 -21 -82 -60q-34 -39 -54 -96q-19 -56 -19 -129q0 -71 20 -129q19 -56 54 -97q34 -39 83 -61q48 -21 105 -21z" />
    <glyph glyph-name="r" unicode="r" horiz-adv-x="574" 
d="M529 0h-64l-154 273q-23 -3 -48 -3h-119v-270h-57v700h177q56 0 101 -15q47 -16 77 -43q32 -28 48 -69q17 -42 17 -90q0 -75 -36 -125t-102 -72zM147 321h122h-1q88 0 135 45t47 119q0 77 -48 119t-133 42h-122v-325z" />
    <glyph glyph-name="s" unicode="s" horiz-adv-x="542" 
d="M494 536l-54 -14l-4 -7q-12 67 -57 104q-46 38 -114 38q-35 0 -63 -9q-30 -10 -50 -25q-21 -17 -33 -40q-12 -24 -12 -52q0 -29 17 -52q16 -23 42 -39q25 -16 59 -30q8 -3 65 -25q34 -13 72 -30q40 -18 68 -40q31 -25 50 -57q20 -34 20 -81q0 -43 -16 -78
q-16 -36 -46 -61q-30 -26 -72 -39q-42 -15 -94 -15t-94 15q-40 13 -72 40q-30 25 -48 62q-18 36 -24 78l54 15q3 -33 17 -63t37 -50q24 -21 57 -33t75 -12q38 0 71 11q30 10 54 29q21 17 34 44q12 26 12 56q0 40 -19 66q-20 28 -49 45q-32 19 -66 32q-24 9 -72 29
q-35 15 -62 27q-32 14 -61 36q-28 20 -46 51q-18 30 -18 72q0 40 16 72q16 33 45 57q28 23 69 37q42 14 88 14q44 0 81 -12t67 -36q29 -23 49 -57q20 -33 27 -73z" />
    <glyph glyph-name="t" unicode="t" horiz-adv-x="543" 
d="M24 700h495v-54h-219v-646h-57v646h-219v54z" />
    <glyph glyph-name="u" unicode="u" 
d="M522 700h57l1 -439q0 -137 -66 -207q-65 -69 -189 -69q-125 0 -188 69q-65 71 -65 207v439h57v-442q0 -110 49 -165t147 -55q99 0 148 55t49 165v442z" />
    <glyph glyph-name="v" unicode="v" horiz-adv-x="650" 
d="M566 700h60l-273 -700h-58l-272 699h60l206 -533q4 -11 12 -35l11 -33l8 -24l4 -9h2l3 10l8 24l11 33q8 24 12 35z" />
    <glyph glyph-name="w" unicode="w" horiz-adv-x="885" 
d="M798 700h59l-220 -702h-50l-112 384q-24 81 -29 108q-6 32 -7 32h-1q-1 0 -7 -32q-7 -37 -28 -107l-113 -384h-50l-215 699h59l156 -512q12 -40 19 -75q6 -28 7 -28h1q1 0 7 29q5 22 20 75l123 412h48l123 -412q15 -53 20 -75q6 -28 7 -28h1q1 0 7 29q5 22 20 75z" />
    <glyph glyph-name="x" unicode="x" horiz-adv-x="604" 
d="M302 321h-1l-2 -8l-10 -15q-6 -9 -12 -21q-6 -13 -13 -22l-176 -255h-68l249 365l-227 334h68l154 -229q1 -1 5 -7.5t6 -10.5l12 -21q2 -4 6 -10.5t5 -7.5l5 -7h1l5 8q1 1 5 7.5t6 10.5l12 21q2 4 6 10.5t5 7.5l155 229h68l-227 -334l249 -366h-69l-175 256q-5 7 -15 23
q-2 3 -6.5 10.5t-6.5 10.5l-10 15z" />
    <glyph glyph-name="y" unicode="y" horiz-adv-x="586" 
d="M504 700h64l-249 -355v-345h-56v345l-247 355h64l169 -241l15 -24l14 -21l10 -15l4 -6h1l4 6l10 15q2 3 6.5 10.5t6.5 10.5l15 24z" />
    <glyph glyph-name="z" unicode="z" horiz-adv-x="619" 
d="M564 700v-52l-398 -541q-22 -28 -31 -40q-12 -15 -12 -16l1 -1q9 0 24 1t59 1h356v-53h-509v51l399 542q4 5 14 17t15 17q9 9 12 13l5 6l-2 1h-24h-61h-347v54h499z" />
    <glyph glyph-name="braceleft" unicode="{" horiz-adv-x="350" 
d="M212 645v-133l-5 -1q0 -50 -7 -78t-17 -48q-9 -17 -18 -25t-12 -9q3 -1 12 -9t18 -25q10 -20 17 -48q8 -32 8 -78v-133q0 -50 10 -80q10 -31 27 -49q16 -18 38 -24q21 -6 44 -6v-54q-83 0 -130 53q-46 52 -46 167v132q0 51 -10 80q-11 32 -22 47q-13 19 -32 27
q19 8 32 27q13 17 23 47q11 31 11 81v132q0 115 47 168t131 53v-54q-23 0 -44 -6q-22 -6 -38 -24q-17 -18 -27 -49q-10 -30 -10 -81z" />
    <glyph glyph-name="bar" unicode="|" horiz-adv-x="230" 
d="M140 -73h-50v848h50v-848z" />
    <glyph glyph-name="braceright" unicode="}" horiz-adv-x="353" 
d="M141 512v133l-3 -2q0 51 -10 81q-10 31 -27 49q-16 18 -38 24q-21 6 -44 6v54q85 0 131 -52q47 -53 47 -168v-132q0 -52 10 -81q11 -30 22 -46q13 -20 33 -27q-20 -7 -33 -27q-11 -15 -22 -47q-10 -29 -10 -80v-132q0 -115 -46 -167t-130 -52v54q23 0 44 6q22 6 38 24
q17 18 27 49q10 30 10 80v133q0 46 8 78q7 28 17 48q9 17 18 25q9 7 12 9q-3 2 -12 9q-9 8 -18 25q-10 20 -17 48t-7 78z" />
    <glyph glyph-name="asciitilde" unicode="~" 
d="M477 400l49 -13l-3 -5q-6 -45 -37 -69q-32 -24 -75 -24q-29 0 -50 12q-18 10 -39 26q-24 18 -36 26q-18 12 -39 12q-30 0 -49 -17q-17 -16 -22 -42l-48 13q8 45 39 69t75 24q28 0 51 -12q27 -14 41 -25q12 -9 36 -25q18 -12 39 -12q30 0 48 18q19 18 20 44z" />
    <glyph glyph-name="uni00A0" unicode="&#xa0;" horiz-adv-x="230" 
 />
    <glyph glyph-name="exclamdown" unicode="&#xa1;" horiz-adv-x="237" 
d="M90 700h57v-157h-57v157zM90 468h57v-468h-57v468z" />
    <glyph glyph-name="cent" unicode="&#xa2;" horiz-adv-x="505" 
d="M431 252l48 -13l-1 -4q-22 -63 -71 -103q-48 -39 -113 -45v-104h-47v104q-45 5 -81 25q-37 20 -64 54q-27 33 -42 80q-15 46 -15 102t15 102q15 47 42 80q28 34 64 53q38 19 81 24v104h48v-104q61 -6 108 -41t71 -93l-49 -13q-23 50 -61 75t-91 25q-78 0 -126 -55
t-48 -156q0 -50 12 -89q12 -38 35 -66t54 -41q33 -14 71 -14q55 0 98 29t62 84z" />
    <glyph glyph-name="sterling" unicode="&#xa3;" horiz-adv-x="613" 
d="M382 54h183l-2 -54h-475v54q35 8 54 25q20 18 27 45q8 29 8 63q0 41 -4 80l-6 67h-68v49h64l-10 108q-4 48 8 90q12 41 37 69t62 45q36 16 80 18q31 1 66 -8q34 -9 62 -30q29 -21 51 -55q23 -35 36 -85l-50 -13q-23 75 -63 108q-41 33 -103 32q-64 -1 -100 -46
q-36 -46 -29 -124l10 -106h226v-49h-222l6 -66q9 -98 -6 -149q-15 -52 -52 -68l1 -1l18 1h47h66h78z" />
    <glyph glyph-name="currency" unicode="&#xa4;" horiz-adv-x="612" 
d="M454 546l70 68l28 -36l-69 -69q29 -33 45 -78q16 -44 16 -97q0 -48 -13 -88q-13 -41 -39 -76l73 -73l-32 -32l-71 72q-32 -29 -72 -45q-42 -17 -85 -17q-45 0 -87 17q-40 16 -72 47l-72 -73l-31 32l74 74q-25 33 -39 75q-14 44 -14 89q0 52 16 96t45 79l-70 69l32 32
l70 -69q31 26 68 41t80 15q41 0 80 -14q37 -13 69 -39zM306 550v-2q-40 0 -75 -15t-60 -43t-39 -66q-14 -39 -14 -83t14 -83q14 -38 39 -66t60 -43t75 -15t75 15q34 15 60 44q25 29 39 66q14 39 14 83t-14 83q-14 37 -39 66q-26 29 -60 44q-35 15 -75 15z" />
    <glyph glyph-name="yen" unicode="&#xa5;" horiz-adv-x="586" 
d="M568 700l-200 -287h147v-44h-179l-17 -24v-20h196v-44h-196v-281h-56v281h-191v44h191v20l-17 24h-174v44h144l-200 287h64l169 -241l15 -24l14 -21l10 -15l4 -6h1l4 6l10 15q2 3 6.5 10.5t6.5 10.5l15 24l169 241h64z" />
    <glyph glyph-name="brokenbar" unicode="&#xa6;" horiz-adv-x="230" 
d="M90 775h50v-280h-50v280zM90 216h50v-289h-50v289z" />
    <glyph glyph-name="section" unicode="&#xa7;" horiz-adv-x="479" 
d="M427 595l-50 -13v-8q-7 44 -44 70q-35 25 -92 25t-93 -21t-36 -58q0 -21 14 -35q13 -13 35 -24q21 -11 48 -18q49 -14 53 -15q13 -4 60 -22q33 -13 57 -28q25 -16 42 -39t17 -56q0 -42 -28 -69t-78 -39q19 -8 40 -21q18 -11 34 -27q15 -15 24 -33t9 -42q0 -31 -14 -57
q-14 -27 -40 -44t-63 -28q-34 -10 -81 -10q-45 0 -81 12q-33 10 -61 31q-26 20 -41 47q-14 26 -19 58l48 13q4 -48 44 -82q39 -33 112 -33q66 0 105 27t39 69q0 28 -16 45q-17 19 -42 32q-25 14 -57 24l-63 21q-25 7 -54 18q-31 11 -54 25q-25 15 -42 36q-16 20 -16 52
q0 40 30 69t81 42q-16 7 -35 17q-15 8 -30 23q-13 13 -21 30q-8 18 -8 37q0 27 14 50q13 22 38 39t57 26q33 9 72 9q74 0 123 -34q50 -35 63 -91zM94 377l-4 3q0 -21 15 -36q16 -16 39 -26q29 -13 52 -20q38 -12 57 -17q5 -1 15 -5l16 -6q42 8 72 30t30 57q0 27 -15 45
t-39 30t-54 21l-60 18h-1h-2q-18 -3 -40 -9q-21 -6 -39 -18q-19 -12 -30 -28q-12 -16 -12 -39z" />
    <glyph glyph-name="dieresis" unicode="&#xa8;" horiz-adv-x="374" 
d="M84 763q-16 0 -27 12q-11 13 -11 30t11 30q11 12 27 12t27 -12q11 -13 11 -30t-11 -30q-11 -12 -27 -12zM286 763q-16 0 -27 12q-11 13 -11 30t11 30q11 12 27 12t27 -12q11 -13 11 -30t-11 -30q-11 -12 -27 -12z" />
    <glyph glyph-name="copyright" unicode="&#xa9;" horiz-adv-x="753" 
d="M377 714h-3q70 0 132 -27q61 -27 106 -75q46 -49 71 -115q26 -69 26 -147t-26 -147q-25 -66 -71 -115q-45 -48 -106 -75q-63 -26 -132 -26t-130 26q-60 27 -105 75q-44 47 -70 115q-25 66 -25 147q0 78 26 147q25 66 71 115q45 48 105 75t131 27zM377 673v-2
q-63 0 -114 -22q-53 -23 -90 -64q-38 -43 -59 -102q-21 -60 -21 -133q0 -72 21 -131q21 -58 59 -101t90 -65q54 -23 114 -23t114 23q51 22 91 65q39 42 60 101t21 131q0 73 -21 133t-60 102q-40 43 -91 65q-54 23 -114 23zM488 285l38 -12l1 2q-15 -49 -56 -78t-90 -29
q-33 0 -64 14q-29 13 -51 38q-21 24 -33 57t-12 74t12 74t33 57q20 23 50 37q27 13 63 13q48 0 87 -27q40 -28 56 -70l-39 -12q-13 34 -42 52t-63 18q-52 0 -85 -39t-33 -106q0 -68 33 -106q33 -37 85 -37q37 0 67 21q29 20 43 59z" />
    <glyph glyph-name="ordfeminine" unicode="&#xaa;" horiz-adv-x="324" 
d="M95 460l-30 -85h-44l122 333h33l123 -333h-45l-30 85h-129zM162 659h-1l-3 -6q-2 -6 -3 -15q-1 -3 -5 -21q-4 -16 -7 -23l-35 -98h105l-35 98q-3 7 -7 23q-5 18 -5 21q-2 9 -3 15zM20 308h284v-42h-284v42z" />
    <glyph glyph-name="guillemotleft" unicode="&#xab;" horiz-adv-x="675" 
d="M338 352l211 233l36 -32l-184 -201l184 -202l-36 -31zM90 352l211 233l36 -32l-184 -201l184 -202l-36 -31z" />
    <glyph glyph-name="uni00AD" unicode="&#xad;" horiz-adv-x="602" 
d="M90 380h427v-49h-427v49z" />
    <glyph glyph-name="registered" unicode="&#xae;" horiz-adv-x="753" 
d="M375 712h-3q70 0 132 -27q61 -27 106 -75q46 -49 71 -115q26 -69 26 -147t-26 -147q-25 -66 -71 -115q-45 -48 -106 -75q-63 -26 -132 -26t-130 26q-60 27 -105 75q-44 47 -70 115q-25 66 -25 147q0 78 26 147q25 66 71 115q45 48 105 75t131 27zM375 30v-2q60 0 114 23
q51 22 91 65q39 42 60 101t21 131q0 73 -21 133t-60 102q-40 43 -91 65q-54 23 -114 23q-63 0 -114 -22q-52 -22 -91 -64t-60 -102t-21 -133q0 -72 21 -131t60 -101q40 -43 91 -65q54 -23 114 -23zM276 533h99h-1q58 0 93 -30t35 -82q0 -38 -19 -64q-19 -27 -51 -39l85 -151
h-44l-80 143q-3 -1 -9 -1h-9h-59v-142h-40v366zM316 344h60q88 0 88 76t-88 76h-60v-152z" />
    <glyph glyph-name="macron" unicode="&#xaf;" horiz-adv-x="370" 
d="M39 744h288v-46h-288v46z" />
    <glyph glyph-name="degree" unicode="&#xb0;" horiz-adv-x="272" 
d="M136 595l-2 2q-41 0 -68 28q-27 29 -27 69q0 42 27 69t68 27q21 0 38 -7t31 -21t21 -31q8 -19 8 -39q0 -21 -7 -38t-21 -31t-31 -21t-37 -7zM136 632q24 0 42 18t18 43t-18 42q-19 17 -42 17q-24 0 -41 -17t-17 -42q0 -24 17 -43q17 -18 41 -18z" />
    <glyph glyph-name="plusminus" unicode="&#xb1;" 
d="M352 380h187v-49h-187v-176h-53v176h-186v49h186v185h53v-185zM113 -9v48h426v-48h-426z" />
    <glyph glyph-name="uni00B2" unicode="&#xb2;" horiz-adv-x="302" 
d="M73 506l1 -1l-1 -4q5 0 11 1q9 2 21 3t27 3q10 1 32 1h113v-41h-254v31l154 138q18 15 42 51q19 28 19 60q0 36 -24 59q-25 23 -61 23q-42 0 -63 -21q-22 -22 -32 -60l-40 10q12 50 47 81q35 30 89 30q27 0 51 -9q26 -10 41 -25q16 -16 27 -39q10 -21 10 -48
q0 -42 -22 -74t-51 -58l-45 -39l-45 -39q-20 -17 -33 -24q-14 -8 -14 -9z" />
    <glyph glyph-name="uni00B3" unicode="&#xb3;" horiz-adv-x="304" 
d="M64 753l-39 11h-8q7 49 44 78t86 29q63 0 95 -30t32 -74q0 -21 -7 -36t-20 -28q-12 -12 -27 -18q-13 -5 -30 -7v-1q15 -1 33 -8q17 -6 30 -18q14 -12 21 -28q8 -18 8 -39q0 -53 -36 -86t-93 -33q-28 0 -52 9t-42 24t-30 36q-11 20 -13 45l40 10q1 -39 29 -63
q27 -24 68 -24q42 0 65 23t23 57q0 35 -25 54q-26 20 -66 20h-35v35h35q39 0 63 21t24 52q0 24 -20 46q-19 21 -63 21q-74 0 -90 -78z" />
    <glyph glyph-name="acute" unicode="&#xb4;" horiz-adv-x="303" 
d="M232 887l24 -41l-192 -105l-21 35z" />
    <glyph glyph-name="paragraph" unicode="&#xb6;" horiz-adv-x="560" 
d="M244 700h226l-1 -700h-57v645h-78v-645h-55v354h-36q-95 0 -147 45t-52 128q0 80 53 127q52 46 147 46z" />
    <glyph glyph-name="periodcentered" unicode="&#xb7;" horiz-adv-x="198" 
d="M99 302l-1 -1q-16 0 -28 12t-12 29q0 18 12 30t29 12t27 -12q11 -13 11 -29t-11 -29q-10 -12 -27 -12z" />
    <glyph glyph-name="cedilla" unicode="&#xb8;" horiz-adv-x="245" 
d="M119 0l-18 -47h-2q42 1 70 -23q27 -24 27 -65q0 -43 -27 -65q-28 -23 -69 -23h-57l15 37h42q25 0 42 14t17 36q0 24 -16 39q-17 15 -42 15h-51l30 82h39z" />
    <glyph glyph-name="uni00B9" unicode="&#xb9;" horiz-adv-x="196" 
d="M125 862h30l-3 -393h-44v248q0 16 1 26q2 20 3 29q2 14 3 24l1 10h-1q-1 0 -9 -11t-18 -21l-45 -44l-28 26z" />
    <glyph glyph-name="ordmasculine" unicode="&#xba;" horiz-adv-x="333" 
d="M10 540h-2q0 40 12 71t33 54t50 35t62 12t62 -12t50 -35t33 -54t12 -71t-12 -71t-33 -54t-50 -35t-62 -12t-61 12q-27 11 -49 35q-21 23 -33 54t-12 71zM52 540q0 -60 32 -97q32 -36 81 -36q51 0 83 36q32 37 32 96q0 61 -33 97t-82 36q-51 0 -82 -36q-31 -35 -31 -96z
M21 308h293v-42h-293v42z" />
    <glyph glyph-name="guillemotright" unicode="&#xbb;" horiz-adv-x="675" 
d="M126 585l211 -233l-211 -233l-36 31l184 202l-184 201zM374 585l211 -233l-211 -233l-35 31l183 202l-183 201z" />
    <glyph glyph-name="onequarter" unicode="&#xbc;" horiz-adv-x="616" 
d="M115 644h-1l-3 -1q-1 0 -9 -11q-8 -10 -18 -21l-45 -44l-28 26l110 106h30v-392h-44v248q0 16 1 26q2 20 3 29q1 14 3 24zM494 699h44l-445 -699h-45zM594 140v-39h-51v-101h-41v101h-190v31l199 259h32v-251h51zM427 141h77l-2 87q0 25 1 37q2 24 2 32q0 11 2 23l1 9h-1
l-5 -8q-6 -7 -15 -21q-12 -18 -19 -28q-14 -20 -21 -29l-44 -55q-13 -16 -29 -32q-15 -15 -15 -16l1 -1q8 0 21 1t46 1z" />
    <glyph glyph-name="onehalf" unicode="&#xbd;" horiz-adv-x="658" 
d="M124 696h30l-3 -393h-44v248q0 16 1 26q2 20 3 29q1 14 3 24l1 10h-1q-1 0 -9 -11q-7 -11 -18 -21l-45 -44l-28 26zM49 -3l446 699h44l-445 -699h-45zM429 36l1 -1l-1 -4q5 0 11 1q9 2 21 3t27 3q10 1 32 1h113v-40h-254v30l154 138q18 15 42 51q19 28 19 60q0 36 -24 59
q-25 23 -61 23q-42 0 -63 -21q-22 -22 -32 -60l-40 10q12 50 47 81q35 30 89 30q27 0 51 -9q26 -10 41 -25q16 -16 27 -39q10 -21 10 -48q0 -42 -22 -74t-51 -58l-45 -39l-45 -39q-20 -17 -33 -24q-14 -8 -14 -9z" />
    <glyph glyph-name="threequarters" unicode="&#xbe;" horiz-adv-x="693" 
d="M192 512v-1h-8q15 -1 33 -8q17 -6 30 -18q14 -12 21 -28q8 -18 8 -39q0 -53 -36 -86t-93 -33q-28 0 -52 9t-42 24t-30 36q-11 20 -13 45l40 10q1 -39 29 -63q27 -24 68 -24q42 0 65 23t23 57q0 35 -25 54q-26 20 -66 20h-35v35h35q39 0 63 21t24 52q0 24 -20 46
q-19 21 -63 21q-74 0 -90 -78l-39 11q7 49 44 78t86 29q63 0 95 -30t32 -74q0 -21 -7 -36t-20 -28q-12 -12 -27 -18q-13 -5 -30 -7zM570 699h45l-446 -699h-45zM671 140v-39h-51v-101h-41v101h-190v31l199 259h32v-251h51zM504 141h77l-2 87q0 25 1 37q2 24 2 32q0 11 2 23
l1 9h-1l-5 -8q-6 -7 -15 -21q-12 -18 -19 -28q-14 -20 -21 -29l-44 -55q-14 -16 -29 -32q-15 -15 -15 -16l1 -1q8 0 21 1t46 1z" />
    <glyph glyph-name="questiondown" unicode="&#xbf;" horiz-adv-x="530" 
d="M304 701v-157h-58v157h58zM308 468v-92l-4 1q-54 -22 -94 -45q-39 -23 -64 -46q-25 -24 -36 -50q-11 -27 -11 -56q0 -24 8 -51q7 -25 27 -45q19 -19 49 -31t74 -12q78 0 120 36q41 35 58 101l49 -13q-18 -86 -79 -132q-60 -45 -150 -45q-54 0 -96 14q-41 15 -66 42
q-27 28 -38 61q-12 35 -12 72q0 43 18 77q18 35 47 62q28 27 66 48q35 20 76 37v67h58z" />
    <glyph glyph-name="Agrave" unicode="&#xc0;" horiz-adv-x="655" 
d="M394 776l-21 -35l-192 105l24 41zM569 0l-79 204h-329l-79 -204h-60l277 700h53l277 -700h-60zM183 255h289l-118 299q-5 13 -18 54q-8 24 -9 24h-1q-2 0 -9 -24q-13 -41 -18 -54z" />
    <glyph glyph-name="Aacute" unicode="&#xc1;" horiz-adv-x="655" 
d="M458 846l-192 -105l-21 35l189 111zM569 0l-79 204h-329l-79 -204h-60l277 700h53l277 -700h-60zM183 255h289l-118 299q-5 13 -18 54q-8 24 -9 24h-1q-2 0 -9 -24q-13 -41 -18 -54z" />
    <glyph glyph-name="Acircumflex" unicode="&#xc2;" horiz-adv-x="655" 
d="M325 851l-112 -103l-32 31l144 131l144 -131l-31 -31zM569 0l-79 204h-329l-79 -204h-60l277 700h53l277 -700h-60zM183 255h289l-118 299q-5 13 -18 54q-8 24 -9 24h-1q-2 0 -9 -24q-13 -41 -18 -54z" />
    <glyph glyph-name="Atilde" unicode="&#xc3;" horiz-adv-x="655" 
d="M217 770h-46l1 -2q0 20 6 36q6 17 18 29t29 18t36 6q23 0 39 -9q19 -10 30 -19q9 -7 27 -19q13 -9 28 -9q20 0 34 14q13 13 15 33h46q2 -38 -25 -63q-26 -25 -67 -25q-21 0 -36 9q-20 12 -29 19q-18 14 -27 20q-14 9 -30 9q-23 0 -36 -13t-13 -34zM569 0l-79 204h-329
l-79 -204h-60l277 700h53l277 -700h-60zM183 255h289l-118 299q-5 13 -18 54q-8 24 -9 24h-1q-2 0 -9 -24q-13 -41 -18 -54z" />
    <glyph glyph-name="Adieresis" unicode="&#xc4;" horiz-adv-x="655" 
d="M223 763h-1q-16 0 -28 12t-12 30t12 30t29 12t27 -12q11 -13 11 -30t-11 -30q-10 -12 -27 -12zM426 763h-1q-16 0 -28 12t-12 30t12 30t29 12q16 0 27 -12q11 -13 11 -30t-11 -30q-11 -12 -27 -12zM569 0l-79 204h-329l-79 -204h-60l277 700h53l277 -700h-60zM183 255
h289l-118 299q-5 13 -18 54q-8 24 -9 24h-1q-2 0 -9 -24q-13 -41 -18 -54z" />
    <glyph glyph-name="Aring" unicode="&#xc5;" horiz-adv-x="655" 
d="M569 0l-79 203h-329l-79 -203h-60l276 696q-29 9 -49 35q-19 25 -19 59q0 42 27 69t68 27q21 0 38 -7t31 -21t21 -31q8 -19 8 -39q0 -32 -20 -58q-19 -25 -50 -34l276 -696h-60zM268 791v-1q0 -24 17 -43q17 -18 41 -18t42 18t18 43q0 26 -18 42q-19 17 -42 17
q-25 0 -41 -16q-17 -17 -17 -42zM183 255h289l-118 299q-5 13 -18 54q-8 24 -9 24h-1q-2 0 -9 -24q-13 -41 -18 -54z" />
    <glyph glyph-name="AE" unicode="&#xc6;" horiz-adv-x="887" 
d="M474 54h360v-54h-416v204h-252l-82 -204h-61l285 700h520v-54h-354v-245h283v-53h-283v-294zM419 255v391h-77l-5 -12q-1 -4 -5.5 -14.5l-7.5 -17.5t-8.5 -22t-7.5 -21t-7.5 -21.5t-8.5 -23.5l-104 -259h231z" />
    <glyph glyph-name="Ccedilla" unicode="&#xc7;" horiz-adv-x="678" 
d="M597 204l55 -16l-7 -3q-35 -95 -109 -147q-74 -51 -172 -53l-13 -34q42 1 70 -23q27 -24 27 -65q0 -43 -27 -65q-28 -23 -69 -23h-57l15 37h42q25 0 42 14t17 36q0 24 -16 39q-17 15 -42 15h-51l25 70q-67 6 -116 33q-53 29 -90 75q-38 48 -59 111q-21 65 -21 143
q0 84 24 151q24 68 67 115t102 73q60 26 127 26q95 0 168 -48q72 -47 112 -134l-57 -15q-32 69 -90 105t-132 36q-57 0 -105 -21t-82 -61q-35 -41 -54 -97t-19 -129q0 -71 20 -129q19 -56 54 -97q34 -39 83 -61q48 -21 104 -21q79 0 141 44q61 43 93 119z" />
    <glyph glyph-name="Egrave" unicode="&#xc8;" horiz-adv-x="558" 
d="M367 776l-21 -35l-192 105l24 41zM147 54h358v-54h-415v700h409v-54h-352v-245h280v-53h-280v-294z" />
    <glyph glyph-name="Eacute" unicode="&#xc9;" horiz-adv-x="558" 
d="M431 846l-192 -105l-21 35l189 111zM147 54h358v-54h-415v700h409v-54h-352v-245h280v-53h-280v-294z" />
    <glyph glyph-name="Ecircumflex" unicode="&#xca;" horiz-adv-x="558" 
d="M298 851l-112 -103l-32 31l144 131l144 -131l-31 -31zM147 54h358v-54h-415v700h409v-54h-352v-245h280v-53h-280v-294z" />
    <glyph glyph-name="Edieresis" unicode="&#xcb;" horiz-adv-x="558" 
d="M196 763h-1q-16 0 -28 12t-12 30t12 30t29 12q16 0 27 -12q11 -13 11 -30t-11 -30q-11 -12 -27 -12zM399 763h-1q-16 0 -28 12t-12 30t12 30t29 12t27 -12q11 -13 11 -30t-11 -30q-10 -12 -27 -12zM147 54h358v-54h-415v700h409v-54h-352v-245h280v-53h-280v-294z" />
    <glyph glyph-name="Igrave" unicode="&#xcc;" horiz-adv-x="237" 
d="M165 741l-191 105l24 41l188 -111zM147 0h-57v700h57v-700z" />
    <glyph glyph-name="Iacute" unicode="&#xcd;" horiz-adv-x="237" 
d="M226 887l24 -41l-192 -105l-21 35zM147 0h-57v700h57v-700z" />
    <glyph glyph-name="Icircumflex" unicode="&#xce;" horiz-adv-x="237" 
d="M-26 779l143 131l144 -131l-31 -31l-113 103l-112 -103zM147 0h-57v700h57v-700z" />
    <glyph glyph-name="Idieresis" unicode="&#xcf;" horiz-adv-x="237" 
d="M15 763h-1q-15 0 -27 12t-12 30t12 30t28 12q17 0 27 -12q11 -13 11 -30t-11 -30q-10 -12 -27 -12zM218 763h-1q-16 0 -28 12t-12 30t12 30t29 12q16 0 27 -12q11 -13 11 -30t-11 -30q-11 -12 -27 -12zM147 0h-57v700h57v-700z" />
    <glyph glyph-name="Eth" unicode="&#xd0;" horiz-adv-x="715" 
d="M95 700h246h2q73 0 132 -25q61 -26 104 -72q45 -48 68 -112q24 -66 24 -145q0 -80 -24 -144q-24 -65 -67 -109q-44 -45 -102 -69t-129 -24h-254v331h-50v53h50v316zM151 54h199h1q56 0 105 20t83 57t54 92t20 122q0 71 -21 126t-57 94t-85 60q-50 21 -108 21h-191v-262
h172v-53h-172v-277z" />
    <glyph glyph-name="Ntilde" unicode="&#xd1;" horiz-adv-x="684" 
d="M447 852h46l1 -2q2 -38 -25 -63q-26 -25 -67 -25q-21 0 -36 9q-20 12 -29 19q-18 14 -27 20q-14 9 -30 9q-23 0 -36 -13t-13 -34h-46q0 20 6 36q6 17 18 29t29 18q16 6 36 6q22 0 39 -9q19 -10 30 -19q9 -7 27 -19q14 -9 28 -9q20 0 34 14q14 13 15 33zM537 700h57
l-4 -699h-52l-320 485q-51 77 -57 87q-19 34 -21 34h-2l1 -14q1 -5 1.5 -18t0.5 -20q1 -24 3 -57q1 -22 1 -70v-427h-57v700h53l319 -483q43 -63 56 -85q21 -34 22 -34h1v15v39q0 35 -1 56t-1 66v425z" />
    <glyph glyph-name="Ograve" unicode="&#xd2;" horiz-adv-x="727" 
d="M407 736l-192 105l24 41l189 -111zM40 347l-3 -2q0 83 24 151t67 115t102 73q60 26 126 26q68 0 128 -26q59 -26 102 -73t67 -115t24 -150q0 -84 -24 -151q-24 -68 -67 -115t-102 -73q-58 -24 -126 -24q-66 0 -127 25q-59 26 -101 74t-66 115t-24 150zM102 350l-4 -3
q0 -71 20 -129q19 -56 54 -97q34 -39 83 -61q48 -21 105 -21t105 21t83 62q34 40 54 98t20 128q0 75 -19 131q-19 57 -54 96q-34 39 -83 60q-48 21 -104 21q-57 0 -105 -21q-47 -21 -82 -60t-54 -96q-19 -56 -19 -129z" />
    <glyph glyph-name="Oacute" unicode="&#xd3;" horiz-adv-x="727" 
d="M468 882l24 -41l-192 -105l-21 35zM40 347l-3 -2q0 83 24 151t67 115t102 73q60 26 126 26q68 0 128 -26q59 -26 102 -73t67 -115t24 -150q0 -84 -24 -151q-24 -68 -67 -115t-102 -73q-58 -24 -126 -24q-66 0 -127 25q-59 26 -101 74t-66 115t-24 150zM102 350l-4 -3
q0 -71 20 -129q19 -56 54 -97q34 -39 83 -61q48 -21 105 -21t105 21t83 62q34 40 54 98t20 128q0 75 -19 131q-19 57 -54 96q-34 39 -83 60q-48 21 -104 21q-57 0 -105 -21q-47 -21 -82 -60t-54 -96q-19 -56 -19 -129z" />
    <glyph glyph-name="Ocircumflex" unicode="&#xd4;" horiz-adv-x="727" 
d="M215 774l144 131l144 -131l-31 -31l-113 103l-112 -103zM40 347l-3 -2q0 83 24 151t67 115t102 73q60 26 126 26q68 0 128 -26q59 -26 102 -73t67 -115t24 -150q0 -84 -24 -151q-24 -68 -67 -115t-102 -73q-58 -24 -126 -24q-66 0 -127 25q-59 26 -101 74t-66 115
t-24 150zM102 350l-4 -3q0 -71 20 -129q19 -56 54 -97q34 -39 83 -61q48 -21 105 -21t105 21t83 62q34 40 54 98t20 128q0 75 -19 131q-19 57 -54 96q-34 39 -83 60q-48 21 -104 21q-57 0 -105 -21q-47 -21 -82 -60t-54 -96q-19 -56 -19 -129z" />
    <glyph glyph-name="Otilde" unicode="&#xd5;" horiz-adv-x="727" 
d="M468 846h46l1 -2q2 -38 -25 -63q-26 -25 -67 -25q-21 0 -36 9q-20 12 -29 19q-18 14 -27 20q-13 9 -30 9q-23 0 -36 -13t-13 -34h-46q0 20 6 36q6 17 18 29t29 18t36 6q23 0 39 -9q19 -10 30 -19q9 -7 27 -19q13 -9 28 -9q20 0 34 14q13 13 15 33zM40 347l-3 -2
q0 83 24 151t67 115t102 73q60 26 126 26q68 0 128 -26q59 -26 102 -73t67 -115t24 -150q0 -84 -24 -151q-24 -68 -67 -115t-102 -73q-58 -24 -126 -24q-66 0 -127 25q-59 26 -101 74t-66 115t-24 150zM102 350l-4 -3q0 -71 20 -129q19 -56 54 -97q34 -39 83 -61
q48 -21 105 -21t105 21t83 62q34 40 54 98t20 128q0 75 -19 131q-19 57 -54 96q-34 39 -83 60q-48 21 -104 21q-57 0 -105 -21q-47 -21 -82 -60t-54 -96q-19 -56 -19 -129z" />
    <glyph glyph-name="Odieresis" unicode="&#xd6;" horiz-adv-x="727" 
d="M257 758h-1q-16 0 -28 12t-12 30t12 30t29 12t27 -12q11 -13 11 -30t-11 -30q-10 -12 -27 -12zM460 758h-1q-16 0 -28 12t-12 30t12 30t29 12q16 0 27 -12q11 -13 11 -30t-11 -30q-11 -12 -27 -12zM40 347l-3 -2q0 83 24 151t67 115t102 73q60 26 126 26q68 0 128 -26
q59 -26 102 -73t67 -115t24 -150q0 -84 -24 -151q-24 -68 -67 -115t-102 -73q-58 -24 -126 -24q-66 0 -127 25q-59 26 -101 74t-66 115t-24 150zM102 350l-4 -3q0 -71 20 -129q19 -56 54 -97q34 -39 83 -61q48 -21 105 -21t105 21t83 62q34 40 54 98t20 128q0 75 -19 131
q-19 57 -54 96q-34 39 -83 60q-48 21 -104 21q-57 0 -105 -21q-47 -21 -82 -60t-54 -96q-19 -56 -19 -129z" />
    <glyph glyph-name="multiply" unicode="&#xd7;" 
d="M470 554l37 -35l-146 -158l146 -159l-38 -35l-143 156l-144 -156l-38 35l146 158l-146 159l38 35l144 -155z" />
    <glyph glyph-name="Oslash" unicode="&#xd8;" horiz-adv-x="727" 
d="M621 669l-37 -52h-3q47 -48 72 -117q26 -70 26 -154t-24 -151q-24 -68 -67 -115t-102 -73q-58 -24 -126 -24q-107 0 -183 57l-31 -44l-40 28l34 48q-46 48 -72 117q-26 70 -26 156q0 83 24 151t67 115t102 73q60 26 126 26q107 0 186 -60l33 47zM175 123l341 486l-1 -4
q-65 50 -154 50q-57 0 -105 -21q-47 -21 -82 -60q-34 -39 -54 -96q-19 -56 -19 -129q0 -71 20 -129q19 -56 54 -97zM553 574l-341 -485h-1q65 -48 150 -48q57 0 105 21t83 62q34 40 54 98t20 128q0 72 -18 128t-52 96z" />
    <glyph glyph-name="Ugrave" unicode="&#xd9;" 
d="M376 741l-192 105l24 41l189 -111zM522 700h57l1 -439q0 -137 -66 -207q-65 -69 -189 -69q-125 0 -188 69q-65 71 -65 207v439h57v-442q0 -110 49 -165t147 -55q99 0 148 55t49 165v442z" />
    <glyph glyph-name="Uacute" unicode="&#xda;" 
d="M437 887l24 -41l-192 -105l-21 35zM522 700h57l1 -439q0 -137 -66 -207q-65 -69 -189 -69q-125 0 -188 69q-65 71 -65 207v439h57v-442q0 -110 49 -165t147 -55q99 0 148 55t49 165v442z" />
    <glyph glyph-name="Ucircumflex" unicode="&#xdb;" 
d="M184 779l144 131l144 -131l-31 -31l-113 103l-112 -103zM522 700h57l1 -439q0 -137 -66 -207q-65 -69 -189 -69q-125 0 -188 69q-65 71 -65 207v439h57v-442q0 -110 49 -165t147 -55q99 0 148 55t49 165v442z" />
    <glyph glyph-name="Udieresis" unicode="&#xdc;" 
d="M226 763h-1q-16 0 -28 12t-12 30t12 30t29 12q16 0 27 -12q11 -13 11 -30t-11 -30q-11 -12 -27 -12zM429 763h-1q-16 0 -28 12t-12 30t12 30t29 12t27 -12q11 -13 11 -30t-11 -30q-10 -12 -27 -12zM522 700h57l1 -439q0 -137 -66 -207q-65 -69 -189 -69q-125 0 -188 69
q-65 71 -65 207v439h57v-442q0 -110 49 -165t147 -55q99 0 148 55t49 165v442z" />
    <glyph glyph-name="Yacute" unicode="&#xdd;" horiz-adv-x="586" 
d="M399 887l24 -41l-192 -105l-21 35zM504 700h64l-249 -355v-345h-56v345l-247 355h64l169 -241l15 -24l14 -21l10 -15l4 -6h1l4 6l10 15q2 3 6.5 10.5t6.5 10.5l15 24z" />
    <glyph glyph-name="Thorn" unicode="&#xde;" horiz-adv-x="546" 
d="M146 569h136h-1q51 0 90 -16q41 -17 71 -45q29 -28 46 -69q16 -39 16 -88t-16 -88q-17 -41 -46 -69q-31 -30 -70 -44q-40 -15 -90 -15h-136v-135h-57v699h57v-130zM147 190h137l-1 -1q74 0 119 45t45 118q0 74 -45 119t-118 45h-137v-326z" />
    <glyph glyph-name="germandbls" unicode="&#xdf;" horiz-adv-x="703" 
d="M90 700h513l-126 -229l-15 -27q-5 -9 -15 -25q-2 -3 -6 -9.5t-6 -9.5l-4 -8l2 -2h6q50 0 89 -15q40 -15 68 -42q30 -28 44 -64q15 -37 15 -82t-15 -83q-16 -39 -43 -65q-29 -28 -69 -41q-40 -15 -88 -15q-36 0 -69 9q-37 10 -62 26q-28 17 -51 44q-22 26 -36 57l54 16
q21 -48 66 -75t99 -27q37 0 65 12q29 12 50 33t33 49q12 29 12 63q0 33 -10 60q-11 28 -30 51q-20 23 -50 35t-69 12h-58v46l93 174l4 8t5 9t5 8q1 2 6.5 11t7.5 14q2 4 11 19l5 8l-1 1h-24h-57h-292v-646h-57v700z" />
    <glyph glyph-name="agrave" unicode="&#xe0;" horiz-adv-x="655" 
d="M394 776l-21 -35l-192 105l24 41zM569 0l-79 204h-329l-79 -204h-60l277 700h53l277 -700h-60zM183 255h289l-118 299q-5 13 -18 54q-8 24 -9 24h-1q-2 0 -9 -24q-13 -41 -18 -54z" />
    <glyph glyph-name="aacute" unicode="&#xe1;" horiz-adv-x="655" 
d="M458 846l-192 -105l-21 35l189 111zM569 0l-79 204h-329l-79 -204h-60l277 700h53l277 -700h-60zM183 255h289l-118 299q-5 13 -18 54q-8 24 -9 24h-1q-2 0 -9 -24q-13 -41 -18 -54z" />
    <glyph glyph-name="acircumflex" unicode="&#xe2;" horiz-adv-x="655" 
d="M325 851l-112 -103l-32 31l144 131l144 -131l-31 -31zM569 0l-79 204h-329l-79 -204h-60l277 700h53l277 -700h-60zM183 255h289l-118 299q-5 13 -18 54q-8 24 -9 24h-1q-2 0 -9 -24q-13 -41 -18 -54z" />
    <glyph glyph-name="atilde" unicode="&#xe3;" horiz-adv-x="655" 
d="M217 770h-46l1 -2q0 20 6 36q6 17 18 29t29 18t36 6q23 0 39 -9q19 -10 30 -19q9 -7 27 -19q13 -9 28 -9q20 0 34 14q13 13 15 33h46q2 -38 -25 -63q-26 -25 -67 -25q-21 0 -36 9q-20 12 -29 19q-18 14 -27 20q-14 9 -30 9q-23 0 -36 -13t-13 -34zM569 0l-79 204h-329
l-79 -204h-60l277 700h53l277 -700h-60zM183 255h289l-118 299q-5 13 -18 54q-8 24 -9 24h-1q-2 0 -9 -24q-13 -41 -18 -54z" />
    <glyph glyph-name="adieresis" unicode="&#xe4;" horiz-adv-x="655" 
d="M223 763h-1q-16 0 -28 12t-12 30t12 30t29 12t27 -12q11 -13 11 -30t-11 -30q-10 -12 -27 -12zM426 763h-1q-16 0 -28 12t-12 30t12 30t29 12q16 0 27 -12q11 -13 11 -30t-11 -30q-11 -12 -27 -12zM569 0l-79 204h-329l-79 -204h-60l277 700h53l277 -700h-60zM183 255
h289l-118 299q-5 13 -18 54q-8 24 -9 24h-1q-2 0 -9 -24q-13 -41 -18 -54z" />
    <glyph glyph-name="aring" unicode="&#xe5;" horiz-adv-x="655" 
d="M569 0l-79 203h-329l-79 -203h-60l276 696q-29 9 -49 35q-19 25 -19 59q0 42 27 69t68 27q21 0 38 -7t31 -21t21 -31q8 -19 8 -39q0 -32 -20 -58q-19 -25 -50 -34l276 -696h-60zM268 791v-1q0 -24 17 -43q17 -18 41 -18t42 18t18 43q0 26 -18 42q-19 17 -42 17
q-25 0 -41 -16q-17 -17 -17 -42zM183 255h289l-118 299q-5 13 -18 54q-8 24 -9 24h-1q-2 0 -9 -24q-13 -41 -18 -54z" />
    <glyph glyph-name="ae" unicode="&#xe6;" horiz-adv-x="887" 
d="M474 54h360v-54h-416v204h-252l-82 -204h-61l285 700h520v-54h-354v-245h283v-53h-283v-294zM419 255v391h-77l-5 -12q-1 -4 -5.5 -14.5l-7.5 -17.5t-8.5 -22t-7.5 -21t-7.5 -21.5t-8.5 -23.5l-104 -259h231z" />
    <glyph glyph-name="ccedilla" unicode="&#xe7;" horiz-adv-x="678" 
d="M597 204l55 -16l-7 -3q-35 -95 -109 -147q-74 -51 -172 -53l-13 -34q42 1 70 -23q27 -24 27 -65q0 -43 -27 -65q-28 -23 -69 -23h-57l15 37h42q25 0 42 14t17 36q0 24 -16 39q-17 15 -42 15h-51l25 70q-67 6 -116 33q-53 29 -90 75q-38 48 -59 111q-21 65 -21 143
q0 84 24 151q24 68 67 115t102 73q60 26 127 26q95 0 168 -48q72 -47 112 -134l-57 -15q-32 69 -90 105t-132 36q-57 0 -105 -21t-82 -61q-35 -41 -54 -97t-19 -129q0 -71 20 -129q19 -56 54 -97q34 -39 83 -61q48 -21 104 -21q79 0 141 44q61 43 93 119z" />
    <glyph glyph-name="egrave" unicode="&#xe8;" horiz-adv-x="558" 
d="M363 776l-21 -35l-192 105l24 41zM147 54h358v-54h-415v700h409v-54h-352v-245h280v-53h-280v-294z" />
    <glyph glyph-name="eacute" unicode="&#xe9;" horiz-adv-x="558" 
d="M427 846l-192 -105l-21 35l189 111zM147 54h358v-54h-415v700h409v-54h-352v-245h280v-53h-280v-294z" />
    <glyph glyph-name="ecircumflex" unicode="&#xea;" horiz-adv-x="558" 
d="M294 851l-112 -103l-32 31l144 131l144 -131l-31 -31zM147 54h358v-54h-415v700h409v-54h-352v-245h280v-53h-280v-294z" />
    <glyph glyph-name="edieresis" unicode="&#xeb;" horiz-adv-x="558" 
d="M192 763h-1q-16 0 -28 12t-12 30t12 30t29 12q16 0 27 -12q11 -13 11 -30t-11 -30q-11 -12 -27 -12zM395 763h-1q-16 0 -28 12t-12 30t12 30t29 12t27 -12q11 -13 11 -30t-11 -30q-10 -12 -27 -12zM147 54h358v-54h-415v700h409v-54h-352v-245h280v-53h-280v-294z" />
    <glyph glyph-name="igrave" unicode="&#xec;" horiz-adv-x="237" 
d="M166 741l-191 105l24 41l188 -111zM147 0h-57v700h57v-700z" />
    <glyph glyph-name="iacute" unicode="&#xed;" horiz-adv-x="237" 
d="M227 887l24 -41l-192 -105l-21 35zM147 0h-57v700h57v-700z" />
    <glyph glyph-name="icircumflex" unicode="&#xee;" horiz-adv-x="237" 
d="M-25 779l143 131l144 -131l-31 -31l-113 103l-112 -103zM147 0h-57v700h57v-700z" />
    <glyph glyph-name="idieresis" unicode="&#xef;" horiz-adv-x="237" 
d="M16 763h-1q-15 0 -27 12t-12 30t12 30t28 12t27 -12q11 -13 11 -30t-11 -30q-11 -12 -27 -12zM219 763h-1q-16 0 -28 12t-12 30t12 30t29 12t27 -12q11 -13 11 -30t-11 -30q-10 -12 -27 -12zM147 0h-57v700h57v-700z" />
    <glyph glyph-name="eth" unicode="&#xf0;" horiz-adv-x="715" 
d="M95 700h246h2q73 0 132 -25q61 -26 104 -72q45 -48 68 -112q24 -66 24 -145q0 -80 -24 -144q-24 -65 -67 -109q-44 -45 -102 -69t-129 -24h-254v331h-50v53h50v316zM151 54h199h1q56 0 105 20t83 57t54 92t20 122q0 71 -21 126t-57 94t-85 60q-50 21 -108 21h-191v-262
h172v-53h-172v-277z" />
    <glyph glyph-name="ntilde" unicode="&#xf1;" horiz-adv-x="684" 
d="M447 852h46l1 -2q2 -38 -25 -63q-26 -25 -67 -25q-21 0 -36 9q-20 12 -29 19q-18 14 -27 20q-14 9 -30 9q-23 0 -36 -13t-13 -34h-46q0 20 6 36q6 17 18 29t29 18q16 6 36 6q22 0 39 -9q19 -10 30 -19q9 -7 27 -19q14 -9 28 -9q20 0 34 14q14 13 15 33zM537 700h57
l-4 -699h-52l-320 485q-51 77 -57 87q-19 34 -21 34h-2l1 -14q1 -5 1.5 -18t0.5 -20q1 -24 3 -57q1 -22 1 -70v-427h-57v700h53l319 -483q43 -63 56 -85q21 -34 22 -34h1v15v39q0 35 -1 56t-1 66v425z" />
    <glyph glyph-name="ograve" unicode="&#xf2;" horiz-adv-x="727" 
d="M406 736l-192 105l24 41l189 -111zM40 347l-3 -2q0 83 24 151t67 115t102 73q60 26 126 26q68 0 128 -26q59 -26 102 -73t67 -115t24 -150q0 -84 -24 -151q-24 -68 -67 -115t-102 -73q-58 -24 -126 -24q-66 0 -127 25q-59 26 -101 74t-66 115t-24 150zM102 350l-4 -3
q0 -71 20 -129q19 -56 54 -97q34 -39 83 -61q48 -21 105 -21t105 21t83 62q34 40 54 98t20 128q0 75 -19 131q-19 57 -54 96q-34 39 -83 60q-48 21 -104 21q-57 0 -105 -21q-47 -21 -82 -60t-54 -96q-19 -56 -19 -129z" />
    <glyph glyph-name="oacute" unicode="&#xf3;" horiz-adv-x="727" 
d="M467 882l24 -41l-192 -105l-21 35zM40 347l-3 -2q0 83 24 151t67 115t102 73q60 26 126 26q68 0 128 -26q59 -26 102 -73t67 -115t24 -150q0 -84 -24 -151q-24 -68 -67 -115t-102 -73q-58 -24 -126 -24q-66 0 -127 25q-59 26 -101 74t-66 115t-24 150zM102 350l-4 -3
q0 -71 20 -129q19 -56 54 -97q34 -39 83 -61q48 -21 105 -21t105 21t83 62q34 40 54 98t20 128q0 75 -19 131q-19 57 -54 96q-34 39 -83 60q-48 21 -104 21q-57 0 -105 -21q-47 -21 -82 -60t-54 -96q-19 -56 -19 -129z" />
    <glyph glyph-name="ocircumflex" unicode="&#xf4;" horiz-adv-x="727" 
d="M214 774l144 131l144 -131l-31 -31l-113 103l-112 -103zM40 347l-3 -2q0 83 24 151t67 115t102 73q60 26 126 26q68 0 128 -26q59 -26 102 -73t67 -115t24 -150q0 -84 -24 -151q-24 -68 -67 -115t-102 -73q-58 -24 -126 -24q-66 0 -127 25q-59 26 -101 74t-66 115
t-24 150zM102 350l-4 -3q0 -71 20 -129q19 -56 54 -97q34 -39 83 -61q48 -21 105 -21t105 21t83 62q34 40 54 98t20 128q0 75 -19 131q-19 57 -54 96q-34 39 -83 60q-48 21 -104 21q-57 0 -105 -21q-47 -21 -82 -60t-54 -96q-19 -56 -19 -129z" />
    <glyph glyph-name="otilde" unicode="&#xf5;" horiz-adv-x="727" 
d="M467 846h46l1 -2q2 -38 -25 -63q-26 -25 -67 -25q-21 0 -36 9q-20 12 -29 19q-18 14 -27 20q-14 9 -30 9q-23 0 -36 -13t-13 -34h-46q0 20 6 36q6 17 18 29t29 18q16 6 36 6q22 0 39 -9q19 -10 30 -19q9 -7 27 -19q14 -9 28 -9q20 0 34 14q14 13 15 33zM40 347l-3 -2
q0 83 24 151t67 115t102 73q60 26 126 26q68 0 128 -26q59 -26 102 -73t67 -115t24 -150q0 -84 -24 -151q-24 -68 -67 -115t-102 -73q-58 -24 -126 -24q-66 0 -127 25q-59 26 -101 74t-66 115t-24 150zM102 350l-4 -3q0 -71 20 -129q19 -56 54 -97q34 -39 83 -61
q48 -21 105 -21t105 21t83 62q34 40 54 98t20 128q0 75 -19 131q-19 57 -54 96q-34 39 -83 60q-48 21 -104 21q-57 0 -105 -21q-47 -21 -82 -60t-54 -96q-19 -56 -19 -129z" />
    <glyph glyph-name="odieresis" unicode="&#xf6;" horiz-adv-x="727" 
d="M256 758h-1q-16 0 -28 12t-12 30t12 30t29 12q16 0 27 -12q11 -13 11 -30t-11 -30q-11 -12 -27 -12zM459 758h-1q-16 0 -28 12t-12 30t12 30t29 12t27 -12q11 -13 11 -30t-11 -30q-10 -12 -27 -12zM40 347l-3 -2q0 83 24 151t67 115t102 73q60 26 126 26q68 0 128 -26
q59 -26 102 -73t67 -115t24 -150q0 -84 -24 -151q-24 -68 -67 -115t-102 -73q-58 -24 -126 -24q-66 0 -127 25q-59 26 -101 74t-66 115t-24 150zM102 350l-4 -3q0 -71 20 -129q19 -56 54 -97q34 -39 83 -61q48 -21 105 -21t105 21t83 62q34 40 54 98t20 128q0 75 -19 131
q-19 57 -54 96q-34 39 -83 60q-48 21 -104 21q-57 0 -105 -21q-47 -21 -82 -60t-54 -96q-19 -56 -19 -129z" />
    <glyph glyph-name="divide" unicode="&#xf7;" 
d="M318 535l-1 -1q-16 0 -28 12t-12 29q0 18 12 30t29 12q16 0 27 -12q11 -13 11 -29t-11 -29q-11 -12 -27 -12zM108 379h426v-49h-426v49zM319 95l-1 -1q-16 0 -28 12t-12 29q0 18 12 30t29 12t27 -12q11 -13 11 -29t-11 -29q-10 -12 -27 -12z" />
    <glyph glyph-name="oslash" unicode="&#xf8;" horiz-adv-x="727" 
d="M621 669l-37 -52h-3q47 -48 72 -117q26 -70 26 -154t-24 -151q-24 -68 -67 -115t-102 -73q-58 -24 -126 -24q-107 0 -183 57l-31 -44l-40 28l34 48q-46 48 -72 117q-26 70 -26 156q0 83 24 151t67 115t102 73q60 26 126 26q107 0 186 -60l33 47zM175 123l341 486l-1 -4
q-65 50 -154 50q-57 0 -105 -21q-47 -21 -82 -60q-34 -39 -54 -96q-19 -56 -19 -129q0 -71 20 -129q19 -56 54 -97zM553 574l-341 -485h-1q65 -48 150 -48q57 0 105 21t83 62q34 40 54 98t20 128q0 72 -18 128t-52 96z" />
    <glyph glyph-name="ugrave" unicode="&#xf9;" 
d="M376 741l-192 105l24 41l189 -111zM522 700h57l1 -439q0 -137 -66 -207q-65 -69 -189 -69q-125 0 -188 69q-65 71 -65 207v439h57v-442q0 -110 49 -165t147 -55q99 0 148 55t49 165v442z" />
    <glyph glyph-name="uacute" unicode="&#xfa;" 
d="M437 887l24 -41l-192 -105l-21 35zM522 700h57l1 -439q0 -137 -66 -207q-65 -69 -189 -69q-125 0 -188 69q-65 71 -65 207v439h57v-442q0 -110 49 -165t147 -55q99 0 148 55t49 165v442z" />
    <glyph glyph-name="ucircumflex" unicode="&#xfb;" 
d="M184 779l144 131l144 -131l-31 -31l-113 103l-112 -103zM522 700h57l1 -439q0 -137 -66 -207q-65 -69 -189 -69q-125 0 -188 69q-65 71 -65 207v439h57v-442q0 -110 49 -165t147 -55q99 0 148 55t49 165v442z" />
    <glyph glyph-name="udieresis" unicode="&#xfc;" 
d="M226 763h-1q-16 0 -28 12t-12 30t12 30t29 12q16 0 27 -12q11 -13 11 -30t-11 -30q-11 -12 -27 -12zM429 763h-1q-16 0 -28 12t-12 30t12 30t29 12t27 -12q11 -13 11 -30t-11 -30q-10 -12 -27 -12zM522 700h57l1 -439q0 -137 -66 -207q-65 -69 -189 -69q-125 0 -188 69
q-65 71 -65 207v439h57v-442q0 -110 49 -165t147 -55q99 0 148 55t49 165v442z" />
    <glyph glyph-name="yacute" unicode="&#xfd;" horiz-adv-x="586" 
d="M399 887l24 -41l-192 -105l-21 35zM504 700h64l-249 -355v-345h-56v345l-247 355h64l169 -241l15 -24l14 -21l10 -15l4 -6h1l4 6l10 15q2 3 6.5 10.5t6.5 10.5l15 24z" />
    <glyph glyph-name="thorn" unicode="&#xfe;" horiz-adv-x="546" 
d="M146 569h136h-1q51 0 90 -16q41 -17 71 -45q29 -28 46 -69q16 -39 16 -88t-16 -88q-17 -41 -46 -69q-31 -30 -70 -44q-40 -15 -90 -15h-136v-135h-57v699h57v-130zM147 190h137l-1 -1q74 0 119 45t45 118q0 74 -45 119t-118 45h-137v-326z" />
    <glyph glyph-name="ydieresis" unicode="&#xff;" horiz-adv-x="586" 
d="M188 763h-1q-16 0 -28 12t-12 30t12 30t29 12q16 0 27 -12q11 -13 11 -30t-11 -30q-11 -12 -27 -12zM391 763h-1q-16 0 -28 12t-12 30t12 30t29 12t27 -12q11 -13 11 -30t-11 -30q-10 -12 -27 -12zM504 700h64l-249 -355v-345h-56v345l-247 355h64l169 -241l15 -24
l14 -21l10 -15l4 -6h1l4 6l10 15q2 3 6.5 10.5t6.5 10.5l15 24z" />
    <glyph glyph-name="Amacron" unicode="&#x100;" horiz-adv-x="655" 
d="M474 828v-45h-288v45h288zM569 0l-79 204h-329l-79 -204h-60l277 700h53l277 -700h-60zM183 255h289l-118 299q-5 13 -18 54q-8 24 -9 24h-1q-2 0 -9 -24q-13 -41 -18 -54z" />
    <glyph glyph-name="amacron" unicode="&#x101;" horiz-adv-x="655" 
d="M474 828v-45h-288v45h288zM569 0l-79 204h-329l-79 -204h-60l277 700h53l277 -700h-60zM183 255h289l-118 299q-5 13 -18 54q-8 24 -9 24h-1q-2 0 -9 -24q-13 -41 -18 -54z" />
    <glyph glyph-name="Abreve" unicode="&#x102;" horiz-adv-x="655" 
d="M418 859h41v-2q-7 -50 -44 -82q-35 -31 -86 -31q-25 0 -48 9q-22 9 -40 24q-17 14 -28 36q-11 21 -15 46h42q6 -31 30 -54q23 -22 59 -22t59 22q24 23 30 54zM569 0l-79 204h-329l-79 -204h-60l277 700h53l277 -700h-60zM183 255h289l-118 299q-5 13 -18 54q-8 24 -9 24
h-1q-2 0 -9 -24q-13 -41 -18 -54z" />
    <glyph glyph-name="abreve" unicode="&#x103;" horiz-adv-x="655" 
d="M418 859h41v-2q-7 -50 -44 -82q-35 -31 -86 -31q-25 0 -48 9q-22 9 -40 24q-17 14 -28 36q-11 21 -15 46h42q6 -31 30 -54q23 -22 59 -22t59 22q24 23 30 54zM569 0l-79 204h-329l-79 -204h-60l277 700h53l277 -700h-60zM183 255h289l-118 299q-5 13 -18 54q-8 24 -9 24
h-1q-2 0 -9 -24q-13 -41 -18 -54z" />
    <glyph glyph-name="Aogonek" unicode="&#x104;" horiz-adv-x="655" 
d="M659 -126l36 -16l-2 -2q-17 -42 -49 -68q-33 -27 -85 -27q-57 0 -94 35q-36 34 -36 92q0 30 11 57q10 25 29 44q20 18 41 28q22 10 47 12l-67 174h-329l-79 -203h-60l277 699h53l277 -699h-24q-24 0 -48 -6q-23 -6 -42 -20t-30 -34q-12 -21 -12 -51q0 -37 23 -63
q22 -25 65 -25t65 22q22 23 33 51zM183 255h289l-118 299q-5 13 -18 54q-8 24 -9 24h-1q-2 0 -9 -24q-13 -41 -18 -54z" />
    <glyph glyph-name="aogonek" unicode="&#x105;" horiz-adv-x="655" 
d="M659 -126l36 -16l-2 -2q-17 -42 -49 -68q-33 -27 -85 -27q-57 0 -94 35q-36 34 -36 92q0 30 11 57q10 25 29 44q20 18 41 28q22 10 47 12l-67 174h-329l-79 -203h-60l277 699h53l277 -699h-24q-24 0 -48 -6q-23 -6 -42 -20t-30 -34q-12 -21 -12 -51q0 -37 23 -63
q22 -25 65 -25t65 22q22 23 33 51zM183 255h289l-118 299q-5 13 -18 54q-8 24 -9 24h-1q-2 0 -9 -24q-13 -41 -18 -54z" />
    <glyph glyph-name="Cacute" unicode="&#x106;" horiz-adv-x="678" 
d="M463 884l24 -41l-192 -105l-21 35zM643 532l-57 -15l-4 -3q-32 69 -90 105t-132 36q-57 0 -105 -21t-82 -61q-35 -41 -54 -97t-19 -129q0 -71 20 -129q19 -56 54 -97q34 -39 83 -61q48 -21 104 -21q79 0 141 44q61 43 93 119l55 -16q-36 -97 -112 -149t-177 -52
q-66 0 -127 25q-59 26 -101 74t-66 115t-24 150t24 151t67 115t102 73q60 26 127 26q95 0 168 -48q72 -47 112 -134z" />
    <glyph glyph-name="cacute" unicode="&#x107;" horiz-adv-x="678" 
d="M463 884l24 -41l-192 -105l-21 35zM643 532l-57 -15l-4 -3q-32 69 -90 105t-132 36q-57 0 -105 -21t-82 -61q-35 -41 -54 -97t-19 -129q0 -71 20 -129q19 -56 54 -97q34 -39 83 -61q48 -21 104 -21q79 0 141 44q61 43 93 119l55 -16q-36 -97 -112 -149t-177 -52
q-66 0 -127 25q-59 26 -101 74t-66 115t-24 150t24 151t67 115t102 73q60 26 127 26q95 0 168 -48q72 -47 112 -134z" />
    <glyph glyph-name="Cdotaccent" unicode="&#x10a;" horiz-adv-x="678" 
d="M354 761q-16 0 -27 12q-11 13 -11 30q0 16 11 29q11 12 27 12t27 -12q11 -13 11 -29q0 -17 -11 -30q-11 -12 -27 -12zM643 532l-57 -15l-4 -3q-32 69 -90 105t-132 36q-57 0 -105 -21t-82 -61q-35 -41 -54 -97t-19 -129q0 -71 20 -129q19 -56 54 -97q34 -39 83 -61
q48 -21 104 -21q79 0 141 44q61 43 93 119l55 -16q-36 -97 -112 -149t-177 -52q-66 0 -127 25q-59 26 -101 74t-66 115t-24 150t24 151t67 115t102 73q60 26 127 26q95 0 168 -48q72 -47 112 -134z" />
    <glyph glyph-name="cdotaccent" unicode="&#x10b;" horiz-adv-x="678" 
d="M354 761q-16 0 -27 12q-11 13 -11 30q0 16 11 29q11 12 27 12t27 -12q11 -13 11 -29q0 -17 -11 -30q-11 -12 -27 -12zM643 532l-57 -15l-4 -3q-32 69 -90 105t-132 36q-57 0 -105 -21t-82 -61q-35 -41 -54 -97t-19 -129q0 -71 20 -129q19 -56 54 -97q34 -39 83 -61
q48 -21 104 -21q79 0 141 44q61 43 93 119l55 -16q-36 -97 -112 -149t-177 -52q-66 0 -127 25q-59 26 -101 74t-66 115t-24 150t24 151t67 115t102 73q60 26 127 26q95 0 168 -48q72 -47 112 -134z" />
    <glyph glyph-name="Ccaron" unicode="&#x10c;" horiz-adv-x="678" 
d="M586 517l57 15l-1 -2q-40 87 -112 134q-74 48 -168 48q-70 0 -127 -25q-59 -26 -102 -73t-67 -115q-24 -67 -24 -151q0 -82 24 -150q24 -67 66 -115q41 -47 101 -73q61 -25 128 -25q101 0 177 52q77 53 113 149l-55 16q-31 -74 -93 -118q-61 -43 -141 -43q-56 0 -104 21
q-49 22 -83 61q-35 41 -54 97t-19 129q0 71 20 129q19 56 54 97t83 62t105 21q74 0 132 -36t90 -105zM359 732l-144 131l31 31l113 -103l113 103l31 -31z" />
    <glyph glyph-name="ccaron" unicode="&#x10d;" horiz-adv-x="678" 
d="M586 517l57 15l-1 -2q-40 87 -112 134q-74 48 -168 48q-70 0 -127 -25q-59 -26 -102 -73t-67 -115q-24 -67 -24 -151q0 -82 24 -150q24 -67 66 -115q41 -47 101 -73q61 -25 128 -25q101 0 177 52q77 53 113 149l-55 16q-31 -74 -93 -118q-61 -43 -141 -43q-56 0 -104 21
q-49 22 -83 61q-35 41 -54 97t-19 129q0 71 20 129q19 56 54 97t83 62t105 21q74 0 132 -36t90 -105zM359 732l-144 131l31 31l113 -103l113 103l31 -31z" />
    <glyph glyph-name="Dcaron" unicode="&#x10e;" horiz-adv-x="710" 
d="M344 53h-199l-3 592h191q59 0 108 -21q50 -21 86 -60t57 -94q21 -56 21 -126q0 -69 -19 -122q-20 -55 -54 -92t-83 -57t-105 -20zM336 700h-246l-2 -700h254q73 0 129 23q59 24 102 69q43 44 67 109t24 144q0 80 -24 146q-23 64 -68 112q-43 46 -104 72q-59 25 -132 25z
M337 732l-144 131l31 31l113 -103l113 103l31 -31z" />
    <glyph glyph-name="dcaron" unicode="&#x10f;" horiz-adv-x="710" 
d="M344 53h-199l-3 592h191q59 0 108 -21q50 -21 86 -60t57 -94q21 -56 21 -126q0 -69 -19 -122q-20 -55 -54 -92t-83 -57t-105 -20zM336 700h-246l-2 -700h254q73 0 129 23q59 24 102 69q43 44 67 109t24 144q0 80 -24 146q-23 64 -68 112q-43 46 -104 72q-59 25 -132 25z
M337 732l-144 131l31 31l113 -103l113 103l31 -31z" />
    <glyph glyph-name="Dcroat" unicode="&#x110;" horiz-adv-x="715" 
d="M95 700h246h2q73 0 132 -25q61 -26 104 -72q45 -48 68 -112q24 -66 24 -145q0 -80 -24 -144q-24 -65 -67 -109q-44 -45 -102 -69t-129 -24h-254v331h-50v53h50v316zM151 54h199h1q56 0 105 20t83 57t54 92t20 122q0 71 -21 126t-57 94t-85 60q-50 21 -108 21h-191v-262
h172v-53h-172v-277z" />
    <glyph glyph-name="dcroat" unicode="&#x111;" horiz-adv-x="715" 
d="M95 700h246h2q73 0 132 -25q61 -26 104 -72q45 -48 68 -112q24 -66 24 -145q0 -80 -24 -144q-24 -65 -67 -109q-44 -45 -102 -69t-129 -24h-254v331h-50v53h50v316zM151 54h199h1q56 0 105 20t83 57t54 92t20 122q0 71 -21 126t-57 94t-85 60q-50 21 -108 21h-191v-262
h172v-53h-172v-277z" />
    <glyph glyph-name="Emacron" unicode="&#x112;" horiz-adv-x="558" 
d="M447 828v-45h-288v45h288zM147 54h358v-54h-415v700h409v-54h-352v-245h280v-53h-280v-294z" />
    <glyph glyph-name="emacron" unicode="&#x113;" horiz-adv-x="558" 
d="M443 828v-45h-288v45h288zM147 54h358v-54h-415v700h409v-54h-352v-245h280v-53h-280v-294z" />
    <glyph glyph-name="Edotaccent" unicode="&#x116;" horiz-adv-x="558" 
d="M298 764q-16 0 -27 12q-11 13 -11 30q0 16 11 29q11 12 27 12t27 -12q11 -13 11 -29q0 -17 -11 -30q-11 -12 -27 -12zM147 54h358v-54h-415v700h409v-54h-352v-245h280v-53h-280v-294z" />
    <glyph glyph-name="edotaccent" unicode="&#x117;" horiz-adv-x="558" 
d="M298 764q-16 0 -27 12q-11 13 -11 30q0 16 11 29q11 12 27 12t27 -12q11 -13 11 -29q0 -17 -11 -30q-11 -12 -27 -12zM147 54h358v-54h-415v700h409v-54h-352v-245h280v-53h-280v-294z" />
    <glyph glyph-name="Eogonek" unicode="&#x118;" horiz-adv-x="558" 
d="M492 -126l36 -16l-1 -3q-12 -38 -49 -68q-33 -27 -85 -27q-57 0 -94 35q-36 35 -36 92q0 37 15 66t38 47h-226v699h409v-54h-352v-245h280v-53h-280v-294h358v-53h-67q-24 0 -48 -6q-23 -6 -42 -20q-18 -14 -30 -34q-12 -21 -12 -51q0 -37 23 -63q22 -25 65 -25t65 22
q23 23 33 51z" />
    <glyph glyph-name="eogonek" unicode="&#x119;" horiz-adv-x="558" 
d="M510 -126l36 -16l-1 -3q-12 -38 -49 -68q-33 -27 -85 -27q-57 0 -94 35q-36 35 -36 92q0 37 15 66t38 47h-244v699h409v-54h-352v-245h280v-53h-280v-294h358v-53h-49q-24 0 -48 -6q-23 -6 -42 -20q-18 -14 -30 -34q-12 -21 -12 -51q0 -37 23 -63q22 -25 65 -25t65 22
q23 23 33 51z" />
    <glyph glyph-name="Ecaron" unicode="&#x11a;" horiz-adv-x="558" 
d="M443 863l-144 -131l-144 131l31 31l113 -103l113 103zM147 54h358v-54h-415v700h409v-54h-352v-245h280v-53h-280v-294z" />
    <glyph glyph-name="ecaron" unicode="&#x11b;" horiz-adv-x="558" 
d="M439 863l-144 -131l-144 131l31 31l113 -103l113 103zM147 54h358v-54h-415v700h409v-54h-352v-245h280v-53h-280v-294z" />
    <glyph glyph-name="Gcircumflex" unicode="&#x11c;" horiz-adv-x="707" 
d="M205 773l144 131l144 -131l-31 -31l-113 103l-112 -103zM601 108h-1l-4 -6q-10 -15 -30 -36q-19 -20 -50 -39q-33 -20 -69 -31q-38 -13 -88 -13q-65 0 -126 25q-59 26 -101 72t-66 114t-24 150q0 84 24 151q24 68 67 115t102 73q60 26 126 26q100 -1 171 -50
q70 -48 108 -132l-57 -15q-31 69 -90 105t-132 36q-57 0 -105 -21q-47 -21 -82 -60q-34 -39 -54 -96q-19 -56 -19 -129q0 -71 20 -129q20 -57 55 -97t84 -61q48 -21 105 -21q46 0 86 14q38 13 69 35q29 20 51 47q21 25 30 50v120h-197v50h247v-357h-50v86v24z" />
    <glyph glyph-name="gcircumflex" unicode="&#x11d;" horiz-adv-x="707" 
d="M205 773l144 131l144 -131l-31 -31l-113 103l-112 -103zM601 108h-1l-4 -6q-10 -15 -30 -36q-19 -20 -50 -39q-33 -20 -69 -31q-38 -13 -88 -13q-65 0 -126 25q-59 26 -101 72t-66 114t-24 150q0 84 24 151q24 68 67 115t102 73q60 26 126 26q100 -1 171 -50
q70 -48 108 -132l-57 -15q-31 69 -90 105t-132 36q-57 0 -105 -21q-47 -21 -82 -60q-34 -39 -54 -96q-19 -56 -19 -129q0 -71 20 -129q20 -57 55 -97t84 -61q48 -21 105 -21q46 0 86 14q38 13 69 35q29 20 51 47q21 25 30 50v120h-197v50h247v-357h-50v86v24z" />
    <glyph glyph-name="Gbreve" unicode="&#x11e;" horiz-adv-x="707" 
d="M222 853h42v-2q6 -31 30 -54q23 -22 59 -22t59 22q24 23 30 54h41q-7 -50 -44 -82q-35 -31 -86 -31q-25 0 -48 9q-22 9 -40 24q-17 14 -28 36q-11 21 -15 46zM601 108h-1l-4 -6q-10 -15 -30 -36q-19 -20 -50 -39q-33 -20 -69 -31q-38 -13 -88 -13q-65 0 -126 25
q-59 26 -101 72t-66 114t-24 150q0 84 24 151q24 68 67 115t102 73q60 26 126 26q100 -1 171 -50q70 -48 108 -132l-57 -15q-31 69 -90 105t-132 36q-57 0 -105 -21q-47 -21 -82 -60q-34 -39 -54 -96q-19 -56 -19 -129q0 -71 20 -129q20 -57 55 -97t84 -61q48 -21 105 -21
q46 0 86 14q38 13 69 35q29 20 51 47q21 25 30 50v120h-197v50h247v-357h-50v86v24z" />
    <glyph glyph-name="gbreve" unicode="&#x11f;" horiz-adv-x="707" 
d="M222 853h42v-2q6 -31 30 -54q23 -22 59 -22t59 22q24 23 30 54h41q-7 -50 -44 -82q-35 -31 -86 -31q-25 0 -48 9q-22 9 -40 24q-17 14 -28 36q-11 21 -15 46zM601 108h-1l-4 -6q-10 -15 -30 -36q-19 -20 -50 -39q-33 -20 -69 -31q-38 -13 -88 -13q-65 0 -126 25
q-59 26 -101 72t-66 114t-24 150q0 84 24 151q24 68 67 115t102 73q60 26 126 26q100 -1 171 -50q70 -48 108 -132l-57 -15q-31 69 -90 105t-132 36q-57 0 -105 -21q-47 -21 -82 -60q-34 -39 -54 -96q-19 -56 -19 -129q0 -71 20 -129q20 -57 55 -97t84 -61q48 -21 105 -21
q46 0 86 14q38 13 69 35q29 20 51 47q21 25 30 50v120h-197v50h247v-357h-50v86v24z" />
    <glyph glyph-name="Gdotaccent" unicode="&#x120;" horiz-adv-x="707" 
d="M349 758q-17 0 -27 12q-11 13 -11 30q0 16 11 29q10 12 27 12t27 -12q11 -13 11 -29q0 -17 -11 -30q-10 -12 -27 -12zM601 108h-1l-4 -6q-10 -15 -30 -36q-19 -20 -50 -39q-33 -20 -69 -31q-38 -13 -88 -13q-65 0 -126 25q-59 26 -101 72t-66 114t-24 150q0 84 24 151
q24 68 67 115t102 73q60 26 126 26q100 -1 171 -50q70 -48 108 -132l-57 -15q-31 69 -90 105t-132 36q-57 0 -105 -21q-47 -21 -82 -60q-34 -39 -54 -96q-19 -56 -19 -129q0 -71 20 -129q20 -57 55 -97t84 -61q48 -21 105 -21q46 0 86 14q38 13 69 35q29 20 51 47
q21 25 30 50v120h-197v50h247v-357h-50v86v24z" />
    <glyph glyph-name="gdotaccent" unicode="&#x121;" horiz-adv-x="707" 
d="M349 758q-17 0 -27 12q-11 13 -11 30q0 16 11 29q10 12 27 12t27 -12q11 -13 11 -29q0 -17 -11 -30q-10 -12 -27 -12zM601 108h-1l-4 -6q-10 -15 -30 -36q-19 -20 -50 -39q-33 -20 -69 -31q-38 -13 -88 -13q-65 0 -126 25q-59 26 -101 72t-66 114t-24 150q0 84 24 151
q24 68 67 115t102 73q60 26 126 26q100 -1 171 -50q70 -48 108 -132l-57 -15q-31 69 -90 105t-132 36q-57 0 -105 -21q-47 -21 -82 -60q-34 -39 -54 -96q-19 -56 -19 -129q0 -71 20 -129q20 -57 55 -97t84 -61q48 -21 105 -21q46 0 86 14q38 13 69 35q29 20 51 47
q21 25 30 50v120h-197v50h247v-357h-50v86v24z" />
    <glyph glyph-name="Gcommaaccent" unicode="&#x122;" horiz-adv-x="707" 
d="M599 107h-1l-4 -6q-10 -15 -30 -36q-19 -20 -50 -39q-33 -20 -69 -31q-38 -13 -88 -13q-65 0 -126 25q-59 26 -101 72q-42 47 -66 114t-24 150t24 151t67 115t102 73q60 26 126 26q100 -1 171 -50q70 -48 108 -132l-57 -15q-31 69 -90 105t-132 36q-57 0 -105 -21
q-47 -21 -82 -60q-34 -39 -54 -96q-19 -56 -19 -129q0 -71 20 -129q20 -57 55 -97t84 -61q48 -21 105 -21q46 0 86 14q38 13 69 35q29 20 51 47q21 25 30 50v120h-197v50h247v-357h-50v86v24zM352 -124l8 5l-11 -1q-13 -1 -25 9q-12 11 -12 30t12 29q13 11 29 11
q18 0 30 -14q12 -13 12 -35q0 -23 -6 -44q-6 -22 -15 -41t-21 -36q-13 -18 -22 -27h-27q18 20 33 51t15 63z" />
    <glyph glyph-name="gcommaaccent" unicode="&#x123;" horiz-adv-x="707" 
d="M599 107h-1l-4 -6q-10 -15 -30 -36q-19 -20 -50 -39q-33 -20 -69 -31q-38 -13 -88 -13q-65 0 -126 25q-59 26 -101 72q-42 47 -66 114t-24 150t24 151t67 115t102 73q60 26 126 26q100 -1 171 -50q70 -48 108 -132l-57 -15q-31 69 -90 105t-132 36q-57 0 -105 -21
q-47 -21 -82 -60q-34 -39 -54 -96q-19 -56 -19 -129q0 -71 20 -129q20 -57 55 -97t84 -61q48 -21 105 -21q46 0 86 14q38 13 69 35q29 20 51 47q21 25 30 50v120h-197v50h247v-357h-50v86v24zM352 -124l8 5l-11 -1q-13 -1 -25 9q-12 11 -12 30t12 29q13 11 29 11
q18 0 30 -14q12 -13 12 -35q0 -23 -6 -44q-6 -22 -15 -41t-21 -36q-13 -18 -22 -27h-27q18 20 33 51t15 63z" />
    <glyph glyph-name="Hcircumflex" unicode="&#x124;" horiz-adv-x="666" 
d="M331 851l-112 -103l-32 31l144 131l144 -131l-31 -31zM518 700h57v-700h-57v338h-371v-338h-57v700h57v-307h371v307z" />
    <glyph glyph-name="hcircumflex" unicode="&#x125;" horiz-adv-x="666" 
d="M331 851l-112 -103l-32 31l144 131l144 -131l-31 -31zM518 700h57v-700h-57v338h-371v-338h-57v700h57v-307h371v307z" />
    <glyph glyph-name="Hbar" unicode="&#x126;" horiz-adv-x="666" 
d="M636 620v-50h-61v-570h-57v338h-371v-338h-57v570h-60v50h60v80h57v-80h371v80h57v-80h61zM518 393v177h-371v-177h371z" />
    <glyph glyph-name="hbar" unicode="&#x127;" horiz-adv-x="666" 
d="M636 620v-50h-61v-570h-57v338h-371v-338h-57v570h-60v50h60v80h57v-80h371v80h57v-80h61zM518 393v177h-371v-177h371z" />
    <glyph glyph-name="Imacron" unicode="&#x12a;" horiz-adv-x="237" 
d="M-21 828h287v-45h-287v45zM147 0h-57v700h57v-700z" />
    <glyph glyph-name="imacron" unicode="&#x12b;" horiz-adv-x="237" 
d="M-20 828h287v-45h-287v45zM147 0h-57v700h57v-700z" />
    <glyph glyph-name="Iogonek" unicode="&#x12e;" horiz-adv-x="237" 
d="M182 -126l36 -16l-2 -3q-17 -42 -49 -68q-33 -27 -85 -27q-58 0 -93 35q-36 35 -36 92q0 33 12 59t32 44q19 18 43 28t50 12v669h57v-699h-19q-24 0 -48 -6q-23 -6 -42 -20q-18 -14 -30 -34q-11 -19 -11 -51q0 -38 22 -63t65 -25t65 22q23 23 33 51z" />
    <glyph glyph-name="iogonek" unicode="&#x12f;" horiz-adv-x="237" 
d="M182 -126l36 -16l-2 -3q-17 -42 -49 -68q-33 -27 -85 -27q-58 0 -93 35q-36 35 -36 92q0 33 12 59t32 44q19 18 43 28t50 12v669h57v-699h-19q-24 0 -48 -6q-23 -6 -42 -20q-18 -14 -30 -34q-11 -19 -11 -51q0 -38 22 -63t65 -25t65 22q23 23 33 51z" />
    <glyph glyph-name="Idotaccent" unicode="&#x130;" horiz-adv-x="237" 
d="M117 764q-17 0 -27 12q-11 13 -11 30q0 16 11 29q10 12 27 12t27 -12q11 -13 11 -29q0 -17 -11 -30q-10 -12 -27 -12zM147 0h-57v700h57v-700z" />
    <glyph glyph-name="dotlessi" unicode="&#x131;" horiz-adv-x="237" 
d="M147 0h-57v700h57v-700z" />
    <glyph glyph-name="IJ" unicode="&#x132;" horiz-adv-x="816" 
d="M144 0h-57v699h57v-699zM686 700h58l-3 -440q-2 -133 -66 -203q-65 -71 -191 -71q-95 0 -157 47q-64 48 -86 129l56 15q18 -66 69 -102t120 -36q100 0 150 57q50 58 50 160v444z" />
    <glyph glyph-name="ij" unicode="&#x133;" horiz-adv-x="816" 
d="M144 0h-57v699h57v-699zM686 700h58l-3 -440q-2 -133 -66 -203q-65 -71 -191 -71q-95 0 -157 47q-64 48 -86 129l56 15q18 -66 69 -102t120 -36q100 0 150 57q50 58 50 160v444z" />
    <glyph glyph-name="Jcircumflex" unicode="&#x134;" horiz-adv-x="591" 
d="M339 778l144 131l144 -131l-31 -31l-113 103l-112 -103zM461 700h58l-3 -440q-2 -133 -66 -203q-65 -71 -191 -71q-95 0 -157 47q-64 48 -86 129l56 15q18 -66 69 -102t120 -36q101 0 150 57q50 58 50 160v444z" />
    <glyph glyph-name="jcircumflex" unicode="&#x135;" horiz-adv-x="591" 
d="M339 778l144 131l144 -131l-31 -31l-113 103l-112 -103zM461 700h58l-3 -440q-2 -133 -66 -203q-65 -71 -191 -71q-95 0 -157 47q-64 48 -86 129l56 15q18 -66 69 -102t120 -36q101 0 150 57q50 58 50 160v444z" />
    <glyph glyph-name="Kcommaaccent" unicode="&#x136;" horiz-adv-x="621" 
d="M294 416l290 -416l-66 -1l-261 376l-112 -120v-256h-57v699h57v-208q0 -90 -1 -120q-2 -45 0 -45h1l11 12q10 12 27 30q24 26 35 39t35 39l236 254h69zM317 -119h-9l-2 -1q-13 -1 -25 9q-12 11 -12 30t12 29q13 11 29 11q18 0 30 -14q12 -13 12 -35q0 -23 -6 -44
q-6 -22 -15 -41t-21 -36q-13 -18 -22 -27h-27q18 20 33 51t15 63z" />
    <glyph glyph-name="kcommaaccent" unicode="&#x137;" horiz-adv-x="621" 
d="M294 416l290 -416l-66 -1l-261 376l-112 -120v-256h-57v699h57v-208q0 -90 -1 -120q-2 -45 0 -45h1l11 12q10 12 27 30q24 26 35 39t35 39l236 254h69zM329 -119h-9l-2 -1q-13 -1 -25 9q-12 11 -12 30t12 29q13 11 29 11q18 0 30 -14q12 -13 12 -35q0 -23 -6 -44
q-6 -22 -15 -41t-21 -36q-13 -18 -22 -27h-27q18 20 33 51t15 63z" />
    <glyph glyph-name="Lacute" unicode="&#x139;" horiz-adv-x="514" 
d="M227 887l24 -41l-192 -105l-21 35zM147 54h347v-54h-404v700h57v-646z" />
    <glyph glyph-name="lacute" unicode="&#x13a;" horiz-adv-x="514" 
d="M227 887l24 -41l-192 -105l-21 35zM147 54h347v-54h-404v700h57v-646z" />
    <glyph glyph-name="Lcommaaccent" unicode="&#x13b;" horiz-adv-x="514" 
d="M145 53h347v-53h-404v699h57v-646zM291 -119h-9l-2 -1q-13 -1 -25 9q-12 11 -12 30t12 29q13 11 29 11q18 0 30 -14q12 -13 12 -35q0 -23 -6 -44q-6 -22 -15 -41t-21 -36q-13 -18 -22 -27h-27q18 20 33 51t15 63z" />
    <glyph glyph-name="lcommaaccent" unicode="&#x13c;" horiz-adv-x="514" 
d="M145 53h347v-53h-404v699h57v-646zM294 -119h-9l-2 -1q-13 -1 -25 9q-12 11 -12 30t12 29q13 11 29 11q18 0 30 -14q12 -13 12 -35q0 -23 -6 -44q-6 -22 -15 -41t-21 -36q-13 -18 -22 -27h-27q18 20 33 51t15 63z" />
    <glyph glyph-name="Lcaron" unicode="&#x13d;" horiz-adv-x="514" 
d="M285 512h-27h-2q18 20 33 51t15 65l9 5h-9q-15 0 -26 10q-12 11 -12 30q0 18 12 30t29 12q18 0 30 -15t12 -37q0 -23 -6 -45t-15 -42t-21 -36q-12 -17 -22 -28zM147 54h347v-54h-404v700h57v-646z" />
    <glyph glyph-name="lcaron" unicode="&#x13e;" horiz-adv-x="514" 
d="M253 521h-27l-1 -2q18 19 33 51t15 65l9 4h-9q-13 0 -26 11q-12 10 -12 30t12 30q13 11 29 11q19 0 30 -14t11 -36q0 -23 -6 -45t-15 -42t-21 -36q-13 -18 -22 -27zM147 54h347v-54h-404v700h57v-646z" />
    <glyph glyph-name="Ldot" unicode="&#x13f;" horiz-adv-x="518" 
d="M147 54h347v-54h-404v700h57v-646zM339 338q-17 0 -27 12q-11 13 -11 30q0 16 11 29q10 12 27 12t27 -12q11 -13 11 -29q0 -17 -11 -30q-10 -12 -27 -12z" />
    <glyph glyph-name="ldot" unicode="&#x140;" horiz-adv-x="518" 
d="M147 54h347v-54h-404v700h57v-646zM339 338q-17 0 -27 12q-11 13 -11 30q0 16 11 29q10 12 27 12t27 -12q11 -13 11 -29q0 -17 -11 -30q-10 -12 -27 -12z" />
    <glyph glyph-name="Lslash" unicode="&#x141;" horiz-adv-x="518" 
d="M147 54h347v-54h-404v700h57v-352l258 131v-55l-258 -131v-239z" />
    <glyph glyph-name="lslash" unicode="&#x142;" horiz-adv-x="518" 
d="M147 54h347v-54h-404v700h57v-352l258 131v-55l-258 -131v-239z" />
    <glyph glyph-name="Nacute" unicode="&#x143;" horiz-adv-x="684" 
d="M447 888l24 -41l-192 -105l-21 35zM537 700h57l-4 -699h-52l-320 485q-51 77 -57 87q-19 34 -21 34h-2l1 -14q1 -5 1.5 -18t0.5 -20q1 -24 3 -57q1 -22 1 -70v-427h-57v700h53l319 -483q43 -63 56 -85q21 -34 22 -34h1v15v39q0 35 -1 56t-1 66v425z" />
    <glyph glyph-name="nacute" unicode="&#x144;" horiz-adv-x="684" 
d="M447 888l24 -41l-192 -105l-21 35zM537 700h57l-4 -699h-52l-320 485q-51 77 -57 87q-19 34 -21 34h-2l1 -14q1 -5 1.5 -18t0.5 -20q1 -24 3 -57q1 -22 1 -70v-427h-57v700h53l319 -483q43 -63 56 -85q21 -34 22 -34h1v15v39q0 35 -1 56t-1 66v425z" />
    <glyph glyph-name="Ncommaaccent" unicode="&#x145;" horiz-adv-x="684" 
d="M535 699h57l-4 -699h-52l-320 485q-51 77 -57 87q-19 34 -21 34h-2l1 -14q1 -5 1.5 -18t0.5 -20q1 -24 3 -57q1 -22 1 -70v-427h-57v700h53l319 -483q43 -63 56 -85q21 -34 22 -34h1v15v39q0 35 -1 56t-1 66v425zM340 -124l8 5l-11 -1q-13 -1 -25 9q-12 11 -12 30t12 29
q13 11 29 11q18 0 30 -14q12 -13 12 -35q0 -23 -6 -44q-6 -22 -15 -41t-21 -36q-13 -18 -22 -27h-27q18 20 33 51t15 63z" />
    <glyph glyph-name="ncommaaccent" unicode="&#x146;" horiz-adv-x="684" 
d="M535 699h57l-4 -699h-52l-320 485q-51 77 -57 87q-19 34 -21 34h-2l1 -14q1 -5 1.5 -18t0.5 -20q1 -24 3 -57q1 -22 1 -70v-427h-57v700h53l319 -483q43 -63 56 -85q21 -34 22 -34h1v15v39q0 35 -1 56t-1 66v425zM340 -124l8 5l-11 -1q-13 -1 -25 9q-12 11 -12 30t12 29
q13 11 29 11q18 0 30 -14q12 -13 12 -35q0 -23 -6 -44q-6 -22 -15 -41t-21 -36q-13 -18 -22 -27h-27q18 20 33 51t15 63z" />
    <glyph glyph-name="Ncaron" unicode="&#x147;" horiz-adv-x="684" 
d="M594 700h-57v-427q0 -45 1 -66q2 -42 2 -56v-39l1 -14h-1q-1 0 -22 34q-13 22 -56 85l-319 483h-53v-700h57v427q0 48 -1 70q-2 33 -3 57q-1 16 -1 38v14h2q2 0 21 -34q6 -10 57 -87l320 -485h52v700zM343 732l-144 131l31 31l113 -103l113 103l31 -31z" />
    <glyph glyph-name="ncaron" unicode="&#x148;" horiz-adv-x="684" 
d="M594 700h-57v-427q0 -45 1 -66q2 -42 2 -56v-39l1 -14h-1q-1 0 -22 34q-13 22 -56 85l-319 483h-53v-700h57v427q0 48 -1 70q-2 33 -3 57q-1 16 -1 38v14h2q2 0 21 -34q6 -10 57 -87l320 -485h52v700zM343 732l-144 131l31 31l113 -103l113 103l31 -31z" />
    <glyph glyph-name="Eng" unicode="&#x14a;" horiz-adv-x="684" 
d="M537 700h57l-3 -698q0 -41 -12 -77q-11 -34 -35 -61q-22 -26 -54 -39q-33 -14 -69 -14h-36v49h33q54 0 87 39t33 102l-320 485q-51 77 -57 87q-19 34 -21 34h-2l1 -14q1 -5 1.5 -18t0.5 -20q1 -24 3 -57q1 -22 1 -70v-427h-57v700h53l319 -483q43 -63 56 -85
q21 -34 22 -34h1v15v39q0 35 -1 56t-1 66v425z" />
    <glyph glyph-name="eng" unicode="&#x14b;" horiz-adv-x="684" 
d="M537 700h57l-3 -698q0 -41 -12 -77q-11 -34 -35 -61q-22 -26 -54 -39q-33 -14 -69 -14h-36v49h33q54 0 87 39t33 102l-320 485q-51 77 -57 87q-19 34 -21 34h-2l1 -14q1 -5 1.5 -18t0.5 -20q1 -24 3 -57q1 -22 1 -70v-427h-57v700h53l319 -483q43 -63 56 -85
q21 -34 22 -34h1v15v39q0 35 -1 56t-1 66v425z" />
    <glyph glyph-name="Omacron" unicode="&#x14c;" horiz-adv-x="727" 
d="M220 823h288v-45h-288v45zM40 347l-3 -2q0 83 24 151t67 115t102 73q60 26 126 26q68 0 128 -26q59 -26 102 -73t67 -115t24 -150q0 -84 -24 -151q-24 -68 -67 -115t-102 -73q-58 -24 -126 -24q-66 0 -127 25q-59 26 -101 74t-66 115t-24 150zM102 350l-4 -3
q0 -71 20 -129q19 -56 54 -97q34 -39 83 -61q48 -21 105 -21t105 21t83 62q34 40 54 98t20 128q0 75 -19 131q-19 57 -54 96q-34 39 -83 60q-48 21 -104 21q-57 0 -105 -21q-47 -21 -82 -60t-54 -96q-19 -56 -19 -129z" />
    <glyph glyph-name="omacron" unicode="&#x14d;" horiz-adv-x="727" 
d="M219 823h288v-45h-288v45zM40 347l-3 -2q0 83 24 151t67 115t102 73q60 26 126 26q68 0 128 -26q59 -26 102 -73t67 -115t24 -150q0 -84 -24 -151q-24 -68 -67 -115t-102 -73q-58 -24 -126 -24q-66 0 -127 25q-59 26 -101 74t-66 115t-24 150zM102 350l-4 -3
q0 -71 20 -129q19 -56 54 -97q34 -39 83 -61q48 -21 105 -21t105 21t83 62q34 40 54 98t20 128q0 75 -19 131q-19 57 -54 96q-34 39 -83 60q-48 21 -104 21q-57 0 -105 -21q-47 -21 -82 -60t-54 -96q-19 -56 -19 -129z" />
    <glyph glyph-name="Ohungarumlaut" unicode="&#x150;" horiz-adv-x="727" 
d="M401 882l24 -41l-192 -105l-21 35zM586 882l24 -41l-192 -105l-21 35zM40 347l-3 -2q0 83 24 151t67 115t102 73q60 26 126 26q68 0 128 -26q59 -26 102 -73t67 -115t24 -150q0 -84 -24 -151q-24 -68 -67 -115t-102 -73q-58 -24 -126 -24q-66 0 -127 25q-59 26 -101 74
t-66 115t-24 150zM102 350l-4 -3q0 -71 20 -129q19 -56 54 -97q34 -39 83 -61q48 -21 105 -21t105 21t83 62q34 40 54 98t20 128q0 75 -19 131q-19 57 -54 96q-34 39 -83 60q-48 21 -104 21q-57 0 -105 -21q-47 -21 -82 -60t-54 -96q-19 -56 -19 -129z" />
    <glyph glyph-name="ohungarumlaut" unicode="&#x151;" horiz-adv-x="727" 
d="M400 882l24 -41l-192 -105l-21 35zM585 882l24 -41l-192 -105l-21 35zM40 347l-3 -2q0 83 24 151t67 115t102 73q60 26 126 26q68 0 128 -26q59 -26 102 -73t67 -115t24 -150q0 -84 -24 -151q-24 -68 -67 -115t-102 -73q-58 -24 -126 -24q-66 0 -127 25q-59 26 -101 74
t-66 115t-24 150zM102 350l-4 -3q0 -71 20 -129q19 -56 54 -97q34 -39 83 -61q48 -21 105 -21t105 21t83 62q34 40 54 98t20 128q0 75 -19 131q-19 57 -54 96q-34 39 -83 60q-48 21 -104 21q-57 0 -105 -21q-47 -21 -82 -60t-54 -96q-19 -56 -19 -129z" />
    <glyph glyph-name="OE" unicode="&#x152;" horiz-adv-x="887" 
d="M474 51h360v-53h-415v1q-10 -2 -28 -4q-10 -1 -31 -1q-71 0 -127 23q-57 23 -100 71t-65 112q-23 67 -23 148q0 83 24 149t66 111t99 69t126 24q19 0 29 -1l30 -3h409v-54h-354v-245h282v-53h-282v-294zM419 60v580v-3q-25 9 -59 9q-56 0 -105 -20q-47 -19 -82 -57
q-35 -37 -54 -93q-19 -54 -19 -127t19 -127q19 -55 54 -94q34 -39 82 -58q47 -19 105 -19q34 0 59 9z" />
    <glyph glyph-name="oe" unicode="&#x153;" horiz-adv-x="887" 
d="M474 51h360v-53h-415v1q-10 -2 -28 -4q-10 -1 -31 -1q-71 0 -127 23q-57 23 -100 71t-65 112q-23 67 -23 148q0 83 24 149t66 111t99 69t126 24q19 0 29 -1l30 -3h409v-54h-354v-245h282v-53h-282v-294zM419 60v580v-3q-25 9 -59 9q-56 0 -105 -20q-47 -19 -82 -57
q-35 -37 -54 -93q-19 -54 -19 -127t19 -127q19 -55 54 -94q34 -39 82 -58q47 -19 105 -19q34 0 59 9z" />
    <glyph glyph-name="Racute" unicode="&#x154;" horiz-adv-x="574" 
d="M396 846l-192 -105l-21 35l189 111zM529 0h-64l-154 273q-23 -3 -48 -3h-119v-270h-57v700h177q56 0 101 -15q47 -16 77 -43q32 -28 48 -69q17 -42 17 -90q0 -75 -36 -125t-102 -72zM147 321h122h-1q88 0 135 45t47 119q0 77 -48 119t-133 42h-122v-325z" />
    <glyph glyph-name="racute" unicode="&#x155;" horiz-adv-x="574" 
d="M419 846l-192 -105l-21 35l189 111zM529 0h-64l-154 273q-23 -3 -48 -3h-119v-270h-57v700h177q56 0 101 -15q47 -16 77 -43q32 -28 48 -69q17 -42 17 -90q0 -75 -36 -125t-102 -72zM147 321h122h-1q88 0 135 45t47 119q0 77 -48 119t-133 42h-122v-325z" />
    <glyph glyph-name="Rcommaaccent" unicode="&#x156;" horiz-adv-x="574" 
d="M367 285l160 -285h-66l-152 272q-23 -3 -48 -3h-119v-269h-57v699h177q56 0 101 -15q47 -16 77 -43q32 -29 48 -69q17 -42 17 -90q0 -76 -36 -125t-102 -72zM145 320h122h-1q88 0 135 45t47 119q0 77 -48 119t-133 42h-122v-325zM287 -119h-9l-2 -1q-13 -1 -25 9
q-12 11 -12 30t12 29q13 11 29 11q18 0 30 -14q12 -13 12 -35q0 -23 -6 -44q-6 -22 -15 -41t-21 -36q-13 -18 -22 -27h-27q18 20 33 51t15 63z" />
    <glyph glyph-name="rcommaaccent" unicode="&#x157;" horiz-adv-x="574" 
d="M367 285l160 -285h-66l-152 272q-23 -3 -48 -3h-119v-269h-57v699h177q56 0 101 -15q47 -16 77 -43q32 -29 48 -69q17 -42 17 -90q0 -76 -36 -125t-102 -72zM145 320h122h-1q88 0 135 45t47 119q0 77 -48 119t-133 42h-122v-325zM307 -119h-9l-2 -1q-13 -1 -25 9
q-12 11 -12 30t12 29q13 11 29 11q18 0 30 -14q12 -13 12 -35q0 -23 -6 -44q-6 -22 -15 -41t-21 -36q-13 -18 -22 -27h-27q18 20 33 51t15 63z" />
    <glyph glyph-name="Rcaron" unicode="&#x158;" horiz-adv-x="574" 
d="M408 863l-144 -131l-144 131l31 31l113 -103l113 103zM529 0h-64l-154 273q-23 -3 -48 -3h-119v-270h-57v700h177q56 0 101 -15q47 -16 77 -43q32 -28 48 -69q17 -42 17 -90q0 -75 -36 -125t-102 -72zM147 321h122h-1q88 0 135 45t47 119q0 77 -48 119t-133 42h-122v-325
z" />
    <glyph glyph-name="rcaron" unicode="&#x159;" horiz-adv-x="574" 
d="M408 863l-144 -131l-144 131l31 31l113 -103l113 103zM529 0h-64l-154 273q-23 -3 -48 -3h-119v-270h-57v700h177q56 0 101 -15q47 -16 77 -43q32 -28 48 -69q17 -42 17 -90q0 -75 -36 -125t-102 -72zM147 321h122h-1q88 0 135 45t47 119q0 77 -48 119t-133 42h-122v-325
z" />
    <glyph glyph-name="Sacute" unicode="&#x15a;" horiz-adv-x="542" 
d="M377 880l24 -41l-192 -105l-21 35zM494 536l-54 -14l-4 -7q-12 67 -57 104q-46 38 -114 38q-35 0 -63 -9q-30 -10 -50 -25q-21 -17 -33 -40q-12 -24 -12 -52q0 -29 17 -52q16 -23 42 -39q25 -16 59 -30q8 -3 65 -25q34 -13 72 -30q40 -18 68 -40q31 -25 50 -57
q20 -34 20 -81q0 -43 -16 -78q-16 -36 -46 -61q-30 -26 -72 -39q-42 -15 -94 -15t-94 15q-40 13 -72 40q-30 25 -48 62q-18 36 -24 78l54 15q3 -33 17 -63t37 -50q24 -21 57 -33t75 -12q38 0 71 11q30 10 54 29q21 17 34 44q12 26 12 56q0 40 -19 66q-20 28 -49 45
q-32 19 -66 32q-24 9 -72 29q-35 15 -62 27q-32 14 -61 36q-28 20 -46 51q-18 30 -18 72q0 40 16 72q16 33 45 57q28 23 69 37q42 14 88 14q44 0 81 -12t67 -36q29 -23 49 -57q20 -33 27 -73z" />
    <glyph glyph-name="sacute" unicode="&#x15b;" horiz-adv-x="542" 
d="M381 880l24 -41l-192 -105l-21 35zM494 536l-54 -14l-4 -7q-12 67 -57 104q-46 38 -114 38q-35 0 -63 -9q-30 -10 -50 -25q-21 -17 -33 -40q-12 -24 -12 -52q0 -29 17 -52q16 -23 42 -39q25 -16 59 -30q8 -3 65 -25q34 -13 72 -30q40 -18 68 -40q31 -25 50 -57
q20 -34 20 -81q0 -43 -16 -78q-16 -36 -46 -61q-30 -26 -72 -39q-42 -15 -94 -15t-94 15q-40 13 -72 40q-30 25 -48 62q-18 36 -24 78l54 15q3 -33 17 -63t37 -50q24 -21 57 -33t75 -12q38 0 71 11q30 10 54 29q21 17 34 44q12 26 12 56q0 40 -19 66q-20 28 -49 45
q-32 19 -66 32q-24 9 -72 29q-35 15 -62 27q-32 14 -61 36q-28 20 -46 51q-18 30 -18 72q0 40 16 72q16 33 45 57q28 23 69 37q42 14 88 14q44 0 81 -12t67 -36q29 -23 49 -57q20 -33 27 -73z" />
    <glyph glyph-name="Scircumflex" unicode="&#x15c;" horiz-adv-x="542" 
d="M124 772l144 131l144 -131l-31 -31l-113 103l-112 -103zM494 536l-54 -14l-4 -7q-12 67 -57 104q-46 38 -114 38q-35 0 -63 -9q-30 -10 -50 -25q-21 -17 -33 -40q-12 -24 -12 -52q0 -29 17 -52q16 -23 42 -39q25 -16 59 -30q8 -3 65 -25q34 -13 72 -30q40 -18 68 -40
q31 -25 50 -57q20 -34 20 -81q0 -43 -16 -78q-16 -36 -46 -61q-30 -26 -72 -39q-42 -15 -94 -15t-94 15q-40 13 -72 40q-30 25 -48 62q-18 36 -24 78l54 15q3 -33 17 -63t37 -50q24 -21 57 -33t75 -12q38 0 71 11q30 10 54 29q21 17 34 44q12 26 12 56q0 40 -19 66
q-20 28 -49 45q-32 19 -66 32q-24 9 -72 29q-35 15 -62 27q-32 14 -61 36q-28 20 -46 51q-18 30 -18 72q0 40 16 72q16 33 45 57q28 23 69 37q42 14 88 14q44 0 81 -12t67 -36q29 -23 49 -57q20 -33 27 -73z" />
    <glyph glyph-name="scircumflex" unicode="&#x15d;" horiz-adv-x="542" 
d="M124 772l144 131l144 -131l-31 -31l-113 103l-112 -103zM494 536l-54 -14l-4 -7q-12 67 -57 104q-46 38 -114 38q-35 0 -63 -9q-30 -10 -50 -25q-21 -17 -33 -40q-12 -24 -12 -52q0 -29 17 -52q16 -23 42 -39q25 -16 59 -30q8 -3 65 -25q34 -13 72 -30q40 -18 68 -40
q31 -25 50 -57q20 -34 20 -81q0 -43 -16 -78q-16 -36 -46 -61q-30 -26 -72 -39q-42 -15 -94 -15t-94 15q-40 13 -72 40q-30 25 -48 62q-18 36 -24 78l54 15q3 -33 17 -63t37 -50q24 -21 57 -33t75 -12q38 0 71 11q30 10 54 29q21 17 34 44q12 26 12 56q0 40 -19 66
q-20 28 -49 45q-32 19 -66 32q-24 9 -72 29q-35 15 -62 27q-32 14 -61 36q-28 20 -46 51q-18 30 -18 72q0 40 16 72q16 33 45 57q28 23 69 37q42 14 88 14q44 0 81 -12t67 -36q29 -23 49 -57q20 -33 27 -73z" />
    <glyph glyph-name="Scedilla" unicode="&#x15e;" horiz-adv-x="542" 
d="M494 536l-54 -14l-5 -5q-12 67 -57 104q-46 38 -114 38q-34 0 -63 -9q-30 -10 -50 -25q-21 -17 -33 -40q-12 -24 -12 -52q0 -29 17 -52t42 -39t59 -30q8 -3 65 -25q35 -13 72 -30q40 -18 68 -40q31 -25 50 -57q20 -34 20 -81q0 -39 -15 -73t-42 -60q-27 -25 -65 -42
q-37 -15 -84 -18l-13 -35q42 1 70 -23q27 -24 27 -65q0 -43 -27 -65q-28 -23 -69 -23h-57l15 37h42q25 0 42 14t17 36q0 24 -16 39t-42 15h-51l25 69q-47 1 -87 17q-38 16 -67 42q-28 25 -46 60q-17 33 -22 75l54 15q3 -33 17 -63t37 -50q24 -21 57 -33t75 -12q38 0 71 11
q30 10 54 29q21 17 34 44q12 26 12 56q0 40 -19 66q-20 28 -49 45q-32 19 -66 32q-24 9 -72 29q-35 15 -62 27q-32 14 -61 36q-28 20 -46 51q-18 30 -18 72q0 40 16 72q16 33 45 57q28 23 69 37q42 14 88 14q44 0 81 -12t67 -36q29 -23 49 -57q20 -33 27 -73z" />
    <glyph glyph-name="scedilla" unicode="&#x15f;" horiz-adv-x="542" 
d="M494 536l-54 -14l-5 -7q-12 67 -57 104q-46 38 -114 38q-34 0 -63 -9q-30 -10 -50 -25q-21 -17 -33 -40q-12 -24 -12 -52q0 -29 17 -52t42 -39t59 -30q8 -3 65 -25q35 -13 72 -30q40 -18 68 -40q31 -25 50 -57q20 -34 20 -81q0 -39 -15 -72q-16 -35 -40 -59
q-26 -26 -63 -42q-39 -16 -84 -20l-13 -35q42 1 70 -23q27 -24 27 -65q0 -43 -27 -65q-28 -23 -69 -23h-57l15 37h42q25 0 42 14t17 36q0 24 -16 39t-42 15h-51l25 69q-48 1 -88 17q-38 13 -68 40q-27 24 -46 62q-18 36 -24 77l54 15q3 -33 17 -63t37 -50q24 -21 57 -33
t75 -12q38 0 71 11q30 10 54 29q21 17 34 44q12 26 12 56q0 40 -19 66q-20 28 -49 45q-32 19 -66 32q-24 9 -72 29q-35 15 -62 27q-32 14 -61 36q-28 20 -46 51q-18 30 -18 72q0 40 16 72q16 33 45 57q28 23 69 37q42 14 88 14q44 0 81 -12t67 -36q29 -23 49 -57
q20 -33 27 -73z" />
    <glyph glyph-name="Scaron" unicode="&#x160;" horiz-adv-x="542" 
d="M440 522l54 14l-3 -2q-7 40 -27 73q-20 34 -49 57q-30 24 -67 36q-38 12 -81 12q-49 0 -88 -13q-41 -14 -69 -37q-28 -24 -45 -57q-16 -32 -16 -72q0 -42 18 -72q18 -31 46 -51q29 -22 61 -36q27 -12 62 -27q48 -20 72 -29q34 -13 66 -32q29 -17 49 -45q19 -26 19 -66
q0 -31 -12 -56q-13 -27 -34 -44q-24 -19 -54 -29t-70 -10q-42 0 -75 12t-57 33q-23 20 -37 50q-13 27 -16 63l-54 -15q6 -42 24 -78q18 -37 48 -62q32 -27 72 -40q42 -15 94 -15t94 15q40 13 72 40q30 26 47 62q17 37 17 78q0 47 -20 81q-19 32 -50 57q-28 22 -68 40
q-37 17 -72 30q-42 16 -64 25q-32 13 -58 30q-25 16 -42 39q-16 22 -16 53q0 29 12 53q12 23 33 40q22 17 50 26t63 9q70 0 114 -37q45 -38 57 -103zM273 732l-144 131l31 31l113 -103l113 103l31 -31z" />
    <glyph glyph-name="scaron" unicode="&#x161;" horiz-adv-x="542" 
d="M440 522l54 14l-3 -2q-7 40 -27 73q-20 34 -49 57q-30 24 -67 36q-38 12 -81 12q-49 0 -88 -13q-41 -14 -69 -37q-28 -24 -45 -57q-16 -32 -16 -72q0 -42 18 -72q18 -31 46 -51q29 -22 61 -36q27 -12 62 -27q48 -20 72 -29q34 -13 66 -32q29 -17 49 -45q19 -26 19 -66
q0 -31 -12 -56q-13 -27 -34 -44q-24 -19 -54 -29t-70 -10q-42 0 -75 12t-57 33q-23 20 -37 50q-13 27 -16 63l-54 -15q6 -42 24 -78q18 -37 48 -62q32 -27 72 -40q42 -15 94 -15t94 15q40 13 72 40q30 26 47 62q17 37 17 78q0 47 -20 81q-19 32 -50 57q-28 22 -68 40
q-37 17 -72 30q-42 16 -64 25q-32 13 -58 30q-25 16 -42 39q-16 22 -16 53q0 29 12 53q12 23 33 40q22 17 50 26t63 9q70 0 114 -37q45 -38 57 -103zM277 732l-144 131l31 31l113 -103l113 103l31 -31z" />
    <glyph glyph-name="Tcommaaccent" unicode="&#x162;" horiz-adv-x="543" 
d="M300 0h-12l-20 -47q42 1 70 -23q27 -24 27 -65q0 -43 -27 -65q-28 -23 -69 -23h-57l15 37h42q25 0 42 14t17 36q0 24 -16 39t-42 15h-51l30 82h-6v646h-219v54h495v-54h-219v-646z" />
    <glyph glyph-name="tcommaaccent" unicode="&#x163;" horiz-adv-x="543" 
d="M300 0h-12l-20 -47q42 1 70 -23q27 -24 27 -65q0 -43 -27 -65q-28 -23 -69 -23h-57l15 37h42q25 0 42 14t17 36q0 24 -16 39t-42 15h-51l30 82h-6v646h-219v54h495v-54h-219v-646z" />
    <glyph glyph-name="Tcaron" unicode="&#x164;" horiz-adv-x="543" 
d="M417 863l-144 -131l-144 131l31 31l113 -103l113 103zM24 700h495v-54h-219v-646h-57v646h-219v54z" />
    <glyph glyph-name="tcaron" unicode="&#x165;" horiz-adv-x="543" 
d="M417 863l-144 -131l-144 131l31 31l113 -103l113 103zM24 700h495v-54h-219v-646h-57v646h-219v54z" />
    <glyph glyph-name="Tbar" unicode="&#x166;" horiz-adv-x="543" 
d="M519 646h-219v-236h124v-46h-124v-364h-57v364h-125v46h125v236h-219v54h495v-54z" />
    <glyph glyph-name="tbar" unicode="&#x167;" horiz-adv-x="543" 
d="M519 646h-219v-236h124v-46h-124v-364h-57v364h-125v46h125v236h-219v54h495v-54z" />
    <glyph glyph-name="Umacron" unicode="&#x16a;" 
d="M189 828h288v-45h-288v45zM522 700h57l1 -439q0 -137 -66 -207q-65 -69 -189 -69q-125 0 -188 69q-65 71 -65 207v439h57v-442q0 -110 49 -165t147 -55q99 0 148 55t49 165v442z" />
    <glyph glyph-name="umacron" unicode="&#x16b;" 
d="M189 828h288v-45h-288v45zM522 700h57l1 -439q0 -137 -66 -207q-65 -69 -189 -69q-125 0 -188 69q-65 71 -65 207v439h57v-442q0 -110 49 -165t147 -55q99 0 148 55t49 165v442z" />
    <glyph glyph-name="Ubreve" unicode="&#x16c;" 
d="M201 859h42v-2q6 -31 30 -54q23 -22 59 -22t59 22q24 23 30 54h41q-7 -50 -44 -82q-35 -31 -86 -31q-26 0 -48 9t-40 24q-17 14 -28 36q-11 21 -15 46zM522 700h57l1 -439q0 -137 -66 -207q-65 -69 -189 -69q-125 0 -188 69q-65 71 -65 207v439h57v-442q0 -110 49 -165
t147 -55q99 0 148 55t49 165v442z" />
    <glyph glyph-name="ubreve" unicode="&#x16d;" 
d="M201 859h42v-2q6 -31 30 -54q23 -22 59 -22t59 22q24 23 30 54h41q-7 -50 -44 -82q-35 -31 -86 -31q-26 0 -48 9t-40 24q-17 14 -28 36q-11 21 -15 46zM522 700h57l1 -439q0 -137 -66 -207q-65 -69 -189 -69q-125 0 -188 69q-65 71 -65 207v439h57v-442q0 -110 49 -165
t147 -55q99 0 148 55t49 165v442z" />
    <glyph glyph-name="Uring" unicode="&#x16e;" 
d="M329 692l-2 2q-41 0 -68 28t-27 69q0 42 27 69t68 27q21 0 38 -7t31 -21t21 -31q8 -19 8 -39q0 -21 -7 -38t-21 -31t-31 -21t-37 -7zM329 731v-1q24 0 42 18t18 43t-18 42q-19 17 -42 17q-25 0 -41 -16q-17 -17 -17 -42q0 -24 17 -43q16 -18 41 -18zM522 700h57l1 -439
q0 -137 -66 -207q-65 -69 -189 -69q-125 0 -188 69q-65 71 -65 207v439h57v-442q0 -110 49 -165t147 -55q99 0 148 55t49 165v442z" />
    <glyph glyph-name="uring" unicode="&#x16f;" 
d="M329 692l-2 2q-41 0 -68 28t-27 69q0 42 27 69t68 27q21 0 38 -7t31 -21t21 -31q8 -19 8 -39q0 -21 -7 -38t-21 -31t-31 -21t-37 -7zM329 731v-1q24 0 42 18t18 43t-18 42q-19 17 -42 17q-25 0 -41 -16q-17 -17 -17 -42q0 -24 17 -43q16 -18 41 -18zM522 700h57l1 -439
q0 -137 -66 -207q-65 -69 -189 -69q-125 0 -188 69q-65 71 -65 207v439h57v-442q0 -110 49 -165t147 -55q99 0 148 55t49 165v442z" />
    <glyph glyph-name="Uhungarumlaut" unicode="&#x170;" 
d="M370 887l24 -41l-192 -105l-21 35zM555 887l24 -41l-192 -105l-21 35zM522 700h57l1 -439q0 -137 -66 -207q-65 -69 -189 -69q-125 0 -188 69q-65 71 -65 207v439h57v-442q0 -110 49 -165t147 -55q99 0 148 55t49 165v442z" />
    <glyph glyph-name="uhungarumlaut" unicode="&#x171;" 
d="M370 887l24 -41l-192 -105l-21 35zM555 887l24 -41l-192 -105l-21 35zM522 700h57l1 -439q0 -137 -66 -207q-65 -69 -189 -69q-125 0 -188 69q-65 71 -65 207v439h57v-442q0 -110 49 -165t147 -55q99 0 148 55t49 165v442z" />
    <glyph glyph-name="Uogonek" unicode="&#x172;" 
d="M522 700h57l-4 -445q-2 -115 -45 -180q-45 -68 -132 -86q-28 -10 -41 -16q-21 -10 -35 -21q-15 -12 -24 -29t-9 -39q0 -37 24 -61t64 -24q31 0 57 21q25 21 36 47l33 -21q-8 -18 -21 -32q-14 -15 -30 -27q-15 -11 -36 -19q-18 -7 -41 -7q-57 0 -93 33t-36 89q0 38 18 62
q19 26 43 41q-116 5 -175 74q-60 70 -60 201v439h57v-442q0 -110 49 -165t147 -55q99 0 148 55t49 165v442z" />
    <glyph glyph-name="uogonek" unicode="&#x173;" 
d="M522 700h57l-4 -445q-2 -115 -45 -180q-45 -68 -132 -86q-28 -10 -41 -16q-21 -10 -35 -21q-15 -12 -24 -29t-9 -39q0 -37 24 -61t64 -24q31 0 57 21q25 21 36 47l33 -21q-8 -18 -21 -32q-14 -15 -30 -27q-15 -11 -36 -19q-18 -7 -41 -7q-57 0 -93 33t-36 89q0 38 18 62
q19 26 43 41q-116 5 -175 74q-60 70 -60 201v439h57v-442q0 -110 49 -165t147 -55q99 0 148 55t49 165v442z" />
    <glyph glyph-name="Wcircumflex" unicode="&#x174;" horiz-adv-x="885" 
d="M290 776l144 131l144 -131l-31 -31l-113 103l-112 -103zM798 700h59l-220 -702h-50l-112 384q-24 81 -29 108q-6 32 -7 32h-1q-1 0 -7 -32q-7 -37 -28 -107l-113 -384h-50l-215 699h59l156 -512q12 -40 19 -75q6 -28 7 -28h1q1 0 7 29q5 22 20 75l123 412h48l123 -412
q15 -53 20 -75q6 -28 7 -28h1q1 0 7 29q5 22 20 75z" />
    <glyph glyph-name="wcircumflex" unicode="&#x175;" horiz-adv-x="885" 
d="M295 776l144 131l144 -131l-31 -31l-113 103l-112 -103zM798 700h59l-220 -702h-50l-112 384q-24 81 -29 108q-6 32 -7 32h-1q-1 0 -7 -32q-7 -37 -28 -107l-113 -384h-50l-215 699h59l156 -512q12 -40 19 -75q6 -28 7 -28h1q1 0 7 29q5 22 20 75l123 412h48l123 -412
q15 -53 20 -75q6 -28 7 -28h1q1 0 7 29q5 22 20 75z" />
    <glyph glyph-name="Ycircumflex" unicode="&#x176;" horiz-adv-x="586" 
d="M146 779l144 131l144 -131l-31 -31l-113 103l-112 -103zM504 700h64l-249 -355v-345h-56v345l-247 355h64l169 -241l15 -24l14 -21l10 -15l4 -6h1l4 6l10 15q2 3 6.5 10.5t6.5 10.5l15 24z" />
    <glyph glyph-name="ycircumflex" unicode="&#x177;" horiz-adv-x="586" 
d="M146 779l144 131l144 -131l-31 -31l-113 103l-112 -103zM504 700h64l-249 -355v-345h-56v345l-247 355h64l169 -241l15 -24l14 -21l10 -15l4 -6h1l4 6l10 15q2 3 6.5 10.5t6.5 10.5l15 24z" />
    <glyph glyph-name="Ydieresis" unicode="&#x178;" horiz-adv-x="586" 
d="M188 763h-1q-16 0 -28 12t-12 30t12 30t29 12q16 0 27 -12q11 -13 11 -30t-11 -30q-11 -12 -27 -12zM391 763h-1q-16 0 -28 12t-12 30t12 30t29 12t27 -12q11 -13 11 -30t-11 -30q-10 -12 -27 -12zM504 700h64l-249 -355v-345h-56v345l-247 355h64l169 -241l15 -24
l14 -21l10 -15l4 -6h1l4 6l10 15q2 3 6.5 10.5t6.5 10.5l15 24z" />
    <glyph glyph-name="Zacute" unicode="&#x179;" horiz-adv-x="619" 
d="M417 886l24 -41l-192 -105l-21 35zM564 700v-52l-398 -541q-22 -28 -31 -40q-12 -15 -12 -16l1 -1q9 0 24 1t59 1h356v-53h-509v51l399 542q4 5 14 17t15 17q9 9 12 13l5 6l-2 1h-24h-61h-347v54h499z" />
    <glyph glyph-name="zacute" unicode="&#x17a;" horiz-adv-x="619" 
d="M418 886l24 -41l-192 -105l-21 35zM564 700v-52l-398 -541q-22 -28 -31 -40q-12 -15 -12 -16l1 -1q9 0 24 1t59 1h356v-53h-509v51l399 542q4 5 14 17t15 17q9 9 12 13l5 6l-2 1h-24h-61h-347v54h499z" />
    <glyph glyph-name="Zdotaccent" unicode="&#x17b;" horiz-adv-x="619" 
d="M308 763q-16 0 -27 12q-11 13 -11 30q0 16 11 29q11 12 27 12t27 -12q11 -13 11 -29q0 -17 -11 -30q-11 -12 -27 -12zM564 700v-52l-398 -541q-22 -28 -31 -40q-12 -15 -12 -16l1 -1q9 0 24 1t59 1h356v-53h-509v51l399 542q4 5 14 17t15 17q9 9 12 13l5 6l-2 1h-24h-61
h-347v54h499z" />
    <glyph glyph-name="zdotaccent" unicode="&#x17c;" horiz-adv-x="619" 
d="M308 763q-16 0 -27 12q-11 13 -11 30q0 16 11 29q11 12 27 12t27 -12q11 -13 11 -29q0 -17 -11 -30q-11 -12 -27 -12zM564 700v-52l-398 -541q-22 -28 -31 -40q-12 -15 -12 -16l1 -1q9 0 24 1t59 1h356v-53h-509v51l399 542q4 5 14 17t15 17q9 9 12 13l5 6l-2 1h-24h-61
h-347v54h499z" />
    <glyph glyph-name="Zcaron" unicode="&#x17d;" horiz-adv-x="619" 
d="M564 648v52l-500 -1v-54h347h62h24l2 -1l-4 -5q-3 -4 -12 -13q-10 -10 -15 -16q-10 -12 -14 -17l-399 -542v-51h509v53h-356q-43 0 -58 -1t-24 -1l-1 1q0 1 12 16q2 3 8 10.5t12 14.5t12 15zM312 732l-144 131l31 31l113 -103l113 103l31 -31z" />
    <glyph glyph-name="zcaron" unicode="&#x17e;" horiz-adv-x="619" 
d="M564 648v52l-500 -1v-54h347h62h24l2 -1l-4 -5q-3 -4 -12 -13q-10 -10 -15 -16q-10 -12 -14 -17l-399 -542v-51h509v53h-356q-43 0 -58 -1t-24 -1l-1 1q0 1 12 16q2 3 8 10.5t12 14.5t12 15zM313 732l-144 131l31 31l113 -103l113 103l31 -31z" />
    <glyph glyph-name="florin" unicode="&#x192;" horiz-adv-x="396" 
d="M33 353v70l107 1l25 173q9 60 36 90q27 29 71 38q42 9 104 1v-76q-61 4 -88 -9t-33 -57l-23 -161h118v-70h-128l-54 -384q-9 -63 -40 -94q-23 -23 -58 -29q-36 -6 -84 0v74q36 -3 59 6t29 50l55 377h-96z" />
    <glyph glyph-name="Scommaaccent" unicode="&#x218;" horiz-adv-x="542" 
d="M492 535l-54 -14l-4 -7q-12 67 -57 104q-46 38 -114 38q-35 0 -63 -9q-30 -10 -50 -25q-21 -17 -33 -40q-12 -24 -12 -52q0 -29 17 -52q16 -22 42 -39q25 -16 59 -30q8 -3 65 -25q34 -14 72 -30q40 -18 68 -40q31 -25 50 -57q20 -34 20 -81q0 -43 -16 -78
q-16 -36 -46 -61t-72 -39q-42 -15 -94 -15t-94 15q-40 13 -72 40q-30 25 -48 62q-18 36 -24 78l54 15q3 -33 17 -63t37 -50q24 -21 57 -33t75 -12q38 0 71 11q30 10 54 29q21 17 34 44q12 25 12 56q0 40 -19 66q-20 28 -49 45q-32 19 -66 32q-24 9 -72 29q-35 15 -62 27
q-32 14 -61 36q-28 20 -46 51q-18 30 -18 72q0 40 16 72q16 33 45 57q28 23 69 37q42 14 88 14q44 0 81 -12t67 -36q29 -23 49 -57q20 -33 27 -73zM263 -124l8 5l-11 -1q-13 -1 -25 9q-12 11 -12 30t12 29q13 11 29 11q18 0 30 -14q12 -13 12 -35q0 -23 -6 -44
q-6 -22 -15 -41t-21 -36q-13 -18 -22 -27h-27q18 20 33 51t15 63z" />
    <glyph glyph-name="scommaaccent" unicode="&#x219;" horiz-adv-x="542" 
d="M492 535l-54 -14l-4 -7q-12 67 -57 104q-46 38 -114 38q-35 0 -63 -9q-30 -10 -50 -25q-21 -17 -33 -40q-12 -24 -12 -52q0 -29 17 -52q16 -22 42 -39q25 -16 59 -30q8 -3 65 -25q34 -14 72 -30q40 -18 68 -40q31 -25 50 -57q20 -34 20 -81q0 -43 -16 -78
q-16 -36 -46 -61t-72 -39q-42 -15 -94 -15t-94 15q-40 13 -72 40q-30 25 -48 62q-18 36 -24 78l54 15q3 -33 17 -63t37 -50q24 -21 57 -33t75 -12q38 0 71 11q30 10 54 29q21 17 34 44q12 25 12 56q0 40 -19 66q-20 28 -49 45q-32 19 -66 32q-24 9 -72 29q-35 15 -62 27
q-32 14 -61 36q-28 20 -46 51q-18 30 -18 72q0 40 16 72q16 33 45 57q28 23 69 37q42 14 88 14q44 0 81 -12t67 -36q29 -23 49 -57q20 -33 27 -73zM263 -124l8 5l-11 -1q-13 -1 -25 9q-12 11 -12 30t12 29q13 11 29 11q18 0 30 -14q12 -13 12 -35q0 -23 -6 -44
q-6 -22 -15 -41t-21 -36q-13 -18 -22 -27h-27q18 20 33 51t15 63z" />
    <glyph glyph-name="uni021A" unicode="&#x21a;" horiz-adv-x="543" 
d="M22 699h495v-54h-219v-645h-57v645h-219v54zM279 -119h-9l-2 -1q-13 -1 -25 9q-12 11 -12 30t12 29q13 11 29 11q18 0 30 -14q12 -13 12 -35q0 -23 -6 -44q-6 -22 -15 -41t-21 -36q-13 -18 -22 -27h-27q18 20 33 51t15 63z" />
    <glyph glyph-name="uni021B" unicode="&#x21b;" horiz-adv-x="543" 
d="M22 699h495v-54h-219v-645h-57v645h-219v54zM264 -119h-9l-2 -1q-13 -1 -25 9q-12 11 -12 30t12 29q13 11 29 11q18 0 30 -14q12 -13 12 -35q0 -23 -6 -44q-6 -22 -15 -41t-21 -36q-13 -18 -22 -27h-27q18 20 33 51t15 63z" />
    <glyph glyph-name="uni0237" unicode="&#x237;" horiz-adv-x="591" 
d="M461 700h58l-3 -440q-2 -133 -66 -203q-65 -71 -191 -71q-95 0 -157 47q-64 48 -86 129l56 15q18 -66 69 -102t120 -36q101 0 150 57q50 58 50 160v444z" />
    <glyph glyph-name="circumflex" unicode="&#x2c6;" horiz-adv-x="379" 
d="M44 779l144 131l144 -131l-31 -31l-113 103l-113 -103z" />
    <glyph glyph-name="caron" unicode="&#x2c7;" horiz-adv-x="379" 
d="M188 731l-144 132l31 30l113 -102l113 102l31 -30z" />
    <glyph glyph-name="breve" unicode="&#x2d8;" horiz-adv-x="337" 
d="M35 859h42v-2q6 -31 30 -54q23 -22 59 -22t59 22q25 23 29 54h42q-7 -50 -44 -82q-35 -31 -86 -31q-26 0 -48 9t-40 24q-17 14 -28 36q-11 21 -15 46z" />
    <glyph glyph-name="dotaccent" unicode="&#x2d9;" horiz-adv-x="167" 
d="M79 764q-17 0 -27 12q-11 13 -11 30q0 16 11 29q10 12 27 12t27 -12q11 -13 11 -29q0 -17 -11 -30q-10 -12 -27 -12z" />
    <glyph glyph-name="ring" unicode="&#x2da;" horiz-adv-x="275" 
d="M135 675l-2 2q-41 0 -68 28q-27 29 -27 69q0 42 27 69t68 27q21 0 38 -7t31 -21t21 -31q8 -19 8 -39q0 -21 -7 -38t-21 -31t-31 -21t-37 -7zM135 712q25 0 42 18q17 19 17 43q0 25 -17 42t-42 17q-24 0 -41 -17t-17 -42q0 -24 17 -43q16 -18 41 -18z" />
    <glyph glyph-name="ogonek" unicode="&#x2db;" horiz-adv-x="571" 
d="M353 -126l36 -16l-1 -1q-17 -42 -49 -68q-33 -27 -85 -27q-57 0 -94 35q-36 35 -36 92q0 34 12 61t33 45q23 18 46 26q25 9 51 9l34 -30q-25 0 -49 -6q-23 -6 -42 -20t-30 -34q-12 -21 -12 -51q0 -37 23 -63q22 -25 65 -25t65 22q22 23 33 51z" />
    <glyph glyph-name="tilde" unicode="&#x2dc;" horiz-adv-x="400" 
d="M306 851h47l-2 -2q2 -38 -25 -63q-26 -25 -67 -25q-21 0 -36 9q-20 12 -29 19q-18 14 -27 20q-13 9 -30 9q-23 0 -36 -13t-13 -34h-47q0 37 26 63t66 26q23 0 39 -9q19 -10 30 -19q9 -7 27 -19q13 -9 28 -9q21 0 35 14t14 33z" />
    <glyph glyph-name="hungarumlaut" unicode="&#x2dd;" horiz-adv-x="488" 
d="M232 887l24 -41l-192 -105l-21 35zM417 887l24 -41l-192 -105l-21 35z" />
    <glyph glyph-name="uni0326" unicode="&#x326;" horiz-adv-x="0" 
d="M92 -124l8 5l-11 -1q-14 0 -25 10q-12 10 -12 30q0 18 12 29q13 11 29 11q18 0 30 -14t12 -36q0 -23 -6 -44q-6 -22 -15 -41t-21 -36q-13 -18 -22 -27h-28q19 19 34 51q15 31 15 63z" />
    <glyph glyph-name="Wgrave" unicode="&#x1e80;" horiz-adv-x="885" 
d="M482 738l-192 105l24 41l189 -111zM798 700h59l-220 -702h-50l-112 384q-24 81 -29 108q-6 32 -7 32h-1q-1 0 -7 -32q-7 -37 -28 -107l-113 -384h-50l-215 699h59l156 -512q12 -40 19 -75q6 -28 7 -28h1q1 0 7 29q5 22 20 75l123 412h48l123 -412q15 -53 20 -75
q6 -28 7 -28h1q1 0 7 29q5 22 20 75z" />
    <glyph glyph-name="wgrave" unicode="&#x1e81;" horiz-adv-x="885" 
d="M487 738l-192 105l24 41l189 -111zM798 700h59l-220 -702h-50l-112 384q-24 81 -29 108q-6 32 -7 32h-1q-1 0 -7 -32q-7 -37 -28 -107l-113 -384h-50l-215 699h59l156 -512q12 -40 19 -75q6 -28 7 -28h1q1 0 7 29q5 22 20 75l123 412h48l123 -412q15 -53 20 -75
q6 -28 7 -28h1q1 0 7 29q5 22 20 75z" />
    <glyph glyph-name="Wacute" unicode="&#x1e82;" horiz-adv-x="885" 
d="M543 884l24 -41l-192 -105l-21 35zM798 700h59l-220 -702h-50l-112 384q-24 81 -29 108q-6 32 -7 32h-1q-1 0 -7 -32q-7 -37 -28 -107l-113 -384h-50l-215 699h59l156 -512q12 -40 19 -75q6 -28 7 -28h1q1 0 7 29q5 22 20 75l123 412h48l123 -412q15 -53 20 -75
q6 -28 7 -28h1q1 0 7 29q5 22 20 75z" />
    <glyph glyph-name="wacute" unicode="&#x1e83;" horiz-adv-x="885" 
d="M548 884l24 -41l-192 -105l-21 35zM798 700h59l-220 -702h-50l-112 384q-24 81 -29 108q-6 32 -7 32h-1q-1 0 -7 -32q-7 -37 -28 -107l-113 -384h-50l-215 699h59l156 -512q12 -40 19 -75q6 -28 7 -28h1q1 0 7 29q5 22 20 75l123 412h48l123 -412q15 -53 20 -75
q6 -28 7 -28h1q1 0 7 29q5 22 20 75z" />
    <glyph glyph-name="Wdieresis" unicode="&#x1e84;" horiz-adv-x="885" 
d="M332 760h-1q-16 0 -28 12t-12 30t12 30t29 12q16 0 27 -12q11 -13 11 -30t-11 -30q-11 -12 -27 -12zM535 760h-1q-16 0 -28 12t-12 30t12 30t29 12t27 -12q11 -13 11 -30t-11 -30q-10 -12 -27 -12zM798 700h59l-220 -702h-50l-112 384q-24 81 -29 108q-6 32 -7 32h-1
q-1 0 -7 -32q-7 -37 -28 -107l-113 -384h-50l-215 699h59l156 -512q12 -40 19 -75q6 -28 7 -28h1q1 0 7 29q5 22 20 75l123 412h48l123 -412q15 -53 20 -75q6 -28 7 -28h1q1 0 7 29q5 22 20 75z" />
    <glyph glyph-name="wdieresis" unicode="&#x1e85;" horiz-adv-x="885" 
d="M337 760h-1q-16 0 -28 12t-12 30t12 30t29 12t27 -12q11 -13 11 -30t-11 -30q-10 -12 -27 -12zM540 760h-1q-16 0 -28 12t-12 30t12 30t29 12q16 0 27 -12q11 -13 11 -30t-11 -30q-11 -12 -27 -12zM798 700h59l-220 -702h-50l-112 384q-24 81 -29 108q-6 32 -7 32h-1
q-1 0 -7 -32q-7 -37 -28 -107l-113 -384h-50l-215 699h59l156 -512q12 -40 19 -75q6 -28 7 -28h1q1 0 7 29q5 22 20 75l123 412h48l123 -412q15 -53 20 -75q6 -28 7 -28h1q1 0 7 29q5 22 20 75z" />
    <glyph glyph-name="uni1E9E" unicode="&#x1e9e;" horiz-adv-x="703" 
d="M90 700h513l-126 -229l-15 -27q-5 -9 -15 -25q-2 -3 -6 -9.5t-6 -9.5l-4 -8l2 -2h6q50 0 89 -15q40 -15 68 -42q30 -28 44 -64q15 -37 15 -82t-15 -83q-16 -39 -43 -65q-29 -28 -69 -41q-40 -15 -88 -15q-36 0 -69 9q-37 10 -62 26q-28 17 -51 44q-22 26 -36 57l54 16
q21 -48 66 -75t99 -27q37 0 65 12q29 12 50 33t33 49q12 29 12 63q0 33 -10 60q-11 28 -30 51q-20 23 -50 35t-69 12h-58v46l93 174l4 8t5 9t5 8q1 2 6.5 11t7.5 14q2 4 11 19l5 8l-1 1h-24h-57h-292v-646h-57v700z" />
    <glyph glyph-name="Ygrave" unicode="&#x1ef2;" horiz-adv-x="586" 
d="M338 741l-192 105l24 41l189 -111zM504 700h64l-249 -355v-345h-56v345l-247 355h64l169 -241l15 -24l14 -21l10 -15l4 -6h1l4 6l10 15q2 3 6.5 10.5t6.5 10.5l15 24z" />
    <glyph glyph-name="ygrave" unicode="&#x1ef3;" horiz-adv-x="586" 
d="M338 741l-192 105l24 41l189 -111zM504 700h64l-249 -355v-345h-56v345l-247 355h64l169 -241l15 -24l14 -21l10 -15l4 -6h1l4 6l10 15q2 3 6.5 10.5t6.5 10.5l15 24z" />
    <glyph glyph-name="uni2007" unicode="&#x2007;" 
 />
    <glyph glyph-name="uni2009" unicode="&#x2009;" horiz-adv-x="113" 
 />
    <glyph glyph-name="uni200A" unicode="&#x200a;" horiz-adv-x="40" 
 />
    <glyph glyph-name="endash" unicode="&#x2013;" horiz-adv-x="552" 
d="M90 382h372v-54h-372v54z" />
    <glyph glyph-name="emdash" unicode="&#x2014;" horiz-adv-x="926" 
d="M90 382h746v-54h-746v54z" />
    <glyph glyph-name="quoteleft" unicode="&#x2018;" horiz-adv-x="273" 
d="M134 598l-8 -5l9 -2q15 0 26 -10q12 -11 12 -30q0 -18 -12 -30t-29 -12q-18 0 -30 15t-12 37q0 23 6 45t15 42t21 36t23 29h28q-19 -19 -34 -51t-15 -64z" />
    <glyph glyph-name="quoteright" unicode="&#x2019;" horiz-adv-x="273" 
d="M139 628l8 5h-10q-15 0 -26 10q-12 11 -12 30q0 18 12 30t29 12q18 0 30 -15t12 -37q0 -23 -6 -45t-15 -42t-21 -36q-12 -17 -22 -28h-28q19 19 34 51q15 31 15 65z" />
    <glyph glyph-name="quotesinglbase" unicode="&#x201a;" horiz-adv-x="273" 
d="M139 -15l8 5h-10q-15 0 -26 10q-12 9 -12 29q0 18 12 30t29 12q18 0 30 -15t12 -37q0 -21 -6 -44t-15 -42t-21 -36t-22 -28h-28q19 19 34 51t15 65z" />
    <glyph glyph-name="quotedblleft" unicode="&#x201c;" horiz-adv-x="429" 
d="M134 596l-8 -5l9 -2q15 0 26 -10q12 -11 12 -30q0 -18 -12 -30t-29 -12q-18 0 -30 15t-12 37q0 23 6 45t15 42t21 36t23 29h28q-19 -19 -34 -51t-15 -64zM290 598l-8 -5l9 -2q15 0 26 -10q12 -11 12 -30q0 -18 -12 -30t-29 -12q-18 0 -30 15t-12 37q0 23 6 45t15 42
t21 36t23 29h28q-19 -19 -34 -51t-15 -64z" />
    <glyph glyph-name="quotedblright" unicode="&#x201d;" horiz-adv-x="429" 
d="M138 628l8 5h-10q-15 0 -26 10q-12 11 -12 30q0 18 12 30t29 12q18 0 30 -15t12 -37q0 -23 -6 -45t-15 -42t-21 -36q-12 -17 -22 -28h-28q19 19 34 51q15 31 15 65zM295 628l8 5h-10q-15 0 -26 10q-12 11 -12 30q0 18 12 30t29 12q18 0 30 -15t12 -37q0 -23 -6 -45
t-15 -42t-21 -36q-12 -17 -22 -28h-28q19 19 34 51q15 31 15 65z" />
    <glyph glyph-name="quotedblbase" unicode="&#x201e;" horiz-adv-x="420" 
d="M137 -16l8 5h-10q-13 0 -26 11q-12 9 -12 29q0 19 12 30q13 11 29 11q18 0 30 -15t12 -37t-6 -44t-15 -42t-21 -36q-13 -18 -22 -27h-28q19 19 34 51t15 64zM286 -16l8 5h-10q-13 0 -26 11q-12 9 -12 29q0 19 12 30q13 11 29 11q18 0 30 -15t12 -37t-6 -44t-15 -42
t-21 -36q-13 -18 -22 -27h-28q19 19 34 51t15 64z" />
    <glyph glyph-name="dagger" unicode="&#x2020;" horiz-adv-x="451" 
d="M427 509v-51h-174v-152q0 -71 -1 -107q-2 -57 -3 -98q-1 -43 -3 -72l-1 -28h-38l-1 28q-2 29 -3 72q-1 41 -3 98q-1 36 -1 107v152h-175v51h175v191h52v-191h176z" />
    <glyph glyph-name="daggerdbl" unicode="&#x2021;" horiz-adv-x="451" 
d="M251 458v-152l2 -7h176v-50h-176q0 -62 -1 -92q-2 -47 -3 -80q-2 -36 -3 -56l-1 -21h-38l-1 22q-1 20 -3 56q-1 33 -3 80q-1 30 -1 92h-175v50h175v6v152h-175v51h175v191h52v-191h176v-51h-176z" />
    <glyph glyph-name="bullet" unicode="&#x2022;" horiz-adv-x="343" 
d="M172 269l-1 -1q-34 0 -58 24t-24 62q0 36 24 61t59 25t57 -25q23 -26 23 -61q0 -36 -23 -61q-23 -24 -57 -24z" />
    <glyph glyph-name="ellipsis" unicode="&#x2026;" horiz-adv-x="654" 
d="M92 -15v-1q-14 0 -23 10q-9 9 -9 23t9 23t23 9t23 -9t9 -23t-9 -23t-23 -9zM324 -14v-1q-14 0 -23 10q-9 9 -9 23t9 23t23 9t23 -9t9 -23q0 -16 -9 -23q-9 -9 -23 -9zM562 -13v-1q-14 0 -23 10q-9 9 -9 23t9 23t23 9t23 -9t9 -23q0 -15 -9 -23q-9 -9 -23 -9z" />
    <glyph glyph-name="perthousand" unicode="&#x2030;" horiz-adv-x="1270" 
d="M201 294v-4q-38 0 -68 15t-51 42t-33 65t-12 83t12 83t33 65t51 42t68 15t68 -15t51 -42t33 -64t12 -82t-12 -82t-33 -64t-51 -42t-68 -15zM190 -5l446 699h44l-445 -699h-45zM203 338h-2q55 0 87 45q32 46 32 115q0 71 -31 115q-31 45 -87 45t-87 -45q-31 -44 -31 -115
q0 -69 32 -115q32 -45 87 -45zM672 -10v-3q-37 0 -68 14q-30 15 -51 42t-33 65t-12 83q0 43 12 81t33 65t51 42t68 15t68 -15t51 -42t33 -64t12 -81t-12 -82q-12 -37 -33 -64t-51 -42q-31 -14 -68 -14zM1059 -7v-3q-37 0 -68 14q-30 15 -51 42t-33 65q-12 37 -12 83
q0 44 12 81q12 38 33 65t51 42t68 15t68 -15t51 -42t33 -64q12 -38 12 -81q0 -45 -12 -82t-33 -64t-51 -42q-31 -14 -68 -14zM674 36h-2q56 0 87 45q32 46 32 115q0 71 -31 115q-32 45 -87 45t-87 -45q-31 -44 -31 -115q0 -69 32 -115q31 -45 87 -45zM1063 36h-2q55 0 87 45
q32 46 32 115q0 71 -31 115q-31 45 -87 45t-87 -45q-31 -44 -31 -115q0 -69 32 -115q32 -45 87 -45z" />
    <glyph glyph-name="guilsinglleft" unicode="&#x2039;" horiz-adv-x="427" 
d="M90 352l211 233l35 -32l-183 -201l184 -202l-36 -31z" />
    <glyph glyph-name="guilsinglright" unicode="&#x203a;" horiz-adv-x="427" 
d="M126 585l211 -233l-211 -233l-36 31l184 202l-184 201z" />
    <glyph glyph-name="fraction" unicode="&#x2044;" horiz-adv-x="113" 
d="M-188 0l445 700h44l-444 -700h-45z" />
    <glyph glyph-name="Euro" unicode="&#x20ac;" horiz-adv-x="718" 
d="M636 204l56 -15l-7 -3q-36 -98 -111 -150q-73 -51 -175 -51q-60 0 -114 20q-52 21 -93 59t-68 92t-36 122h-48v43h44q-1 4 -1 12v13v22h-43v44h47q9 68 36 124q26 54 68 94q40 39 95 60q54 21 115 21q95 0 168 -48t111 -134l-57 -15q-31 69 -90 105t-132 36
q-51 0 -93 -16q-43 -16 -76 -48q-34 -33 -56 -76q-22 -45 -30 -102h273v-44h-277q-1 -3 -1 -11v-11v-12q0 -8 1 -12h277v-43h-273q9 -53 32 -100q22 -44 56 -75q32 -29 77 -46q42 -16 93 -16q80 0 141 42q61 41 91 119z" />
    <glyph glyph-name="uni20B9" unicode="&#x20b9;" horiz-adv-x="540" 
d="M496 700v-48l-130 -2q36 -27 57 -65h73v-46h-54q4 -18 5 -27q2 -18 2 -29q0 -47 -18 -86q-18 -38 -48 -67q-29 -27 -71 -43q-40 -15 -89 -15h-20l218 -271h-71l-215 272v48h88q35 0 65 12q31 12 53 33q23 21 36 51q13 29 13 66q0 30 -9 57h-291v46h267q-23 30 -57 48
t-76 18h-134v48h406z" />
    <glyph glyph-name="afii61352" unicode="&#x2116;" horiz-adv-x="1012" 
d="M678 541h-2q0 39 12 71t33 54q21 23 50 35t62 12t62 -12t50 -35q21 -22 33 -54t12 -71t-12 -71t-33 -54q-21 -23 -50 -35t-62 -12t-61 12q-27 11 -49 35q-21 22 -33 54t-12 71zM537 700h57l-4 -699h-52l-320 485q-51 77 -57 87q-19 34 -21 34h-2l1 -14q1 -5 1.5 -18
t0.5 -20q1 -24 3 -57q1 -22 1 -70v-427h-57v700h53l319 -483q43 -63 56 -85q21 -34 22 -34h1v15v39q0 35 -1 56t-1 66v425zM724 540q0 -60 32 -97q32 -36 81 -36q51 0 83 36q32 37 32 96q0 61 -33 97t-82 36q-51 0 -82 -36q-31 -35 -31 -96zM693 308h293v-42h-293v42z" />
    <glyph glyph-name="trademark" unicode="&#x2122;" horiz-adv-x="726" 
d="M26 659v41h257v-41h-108v-286h-42v286h-107zM598 702h39l2 -329h-41v144q0 28 1 42q2 23 3 38q2 22 2 27l1 11h-2q-1 0 -9 -17q-3 -6 -11 -20.5t-10 -18.5l-70 -128h-24l-70 128q-2 4 -10 18.5t-11 20.5q-8 17 -9 17h-1l1 -10q0 -5 2 -27q1 -15 3 -38q1 -14 1 -42v-144
h-41v327h39l83 -155q14 -24 18 -39t6 -15h1q1 0 6 15q4 14 18 40z" />
    <glyph glyph-name="oneeighth" unicode="&#x215b;" horiz-adv-x="658" 
d="M126 699h30l-3 -393h-44v248q0 16 1 26q2 20 3 29q1 13 3 24l1 10h-1q-1 0 -9 -11q-7 -10 -18 -21l-45 -44l-28 26zM51 0l446 699h44l-445 -699h-45zM556 208v-1l1 -1q12 -2 27 -9q13 -6 28 -20q13 -11 22 -30q9 -18 9 -40q0 -51 -38 -83t-99 -32q-60 0 -98 32t-38 83
q0 22 9 40t21 30q13 13 27 20q15 7 27 9v1q-5 1 -19 8q-12 6 -24 18q-11 11 -19 27t-8 36q0 46 33 74q34 29 87 29t88 -29q34 -28 34 -74q0 -20 -8 -36t-19 -27q-12 -12 -24 -18q-11 -5 -19 -7zM424 297h-2q0 -31 23 -51q22 -19 60 -19t60 19q23 20 23 51q0 30 -22 49
t-60 19t-60 -19t-22 -49zM409 109h2q0 -35 26 -58q25 -22 69 -22t69 22q26 23 26 58q0 33 -27 54t-70 21q-44 0 -69 -21q-26 -21 -26 -54z" />
    <glyph glyph-name="threeeighths" unicode="&#x215c;" horiz-adv-x="734" 
d="M65 590l-39 11h-8q7 49 44 78t86 29q64 0 95 -30q32 -30 32 -74q0 -21 -7 -36t-20 -28q-12 -12 -27 -18q-13 -5 -30 -7v-1q15 -1 33 -8q16 -6 30 -18t21 -28q8 -18 8 -39q0 -53 -36 -86t-93 -33q-28 0 -52 9t-42 24t-30 36q-11 20 -13 45l40 10q1 -39 29 -63
q27 -24 68 -24q42 0 65 23t23 57q0 35 -25 54q-26 20 -66 20h-35v35h35q39 0 63 21t24 52q0 24 -20 46q-20 21 -63 21q-73 0 -90 -78zM127 0l446 699h44l-445 -699h-45zM634 208v-1l1 -1q12 -2 27 -9q13 -6 28 -20q13 -11 22 -30q9 -18 9 -40q0 -51 -38 -83t-99 -32
q-60 0 -98 32t-38 83q0 22 9 40t21 30q13 13 27 20q15 7 27 9v1q-5 1 -19 8q-12 6 -24 18q-11 11 -19 27t-8 36q0 46 33 74q34 29 87 29t88 -29q34 -28 34 -74q0 -20 -8 -36t-19 -27q-12 -12 -24 -18q-11 -5 -19 -7zM502 297h-2q0 -31 23 -51q22 -19 60 -19t60 19
q23 20 23 51q0 30 -22 49t-60 19t-60 -19t-22 -49zM487 109h2q0 -35 26 -58q25 -22 69 -22t69 22q26 23 26 58q0 33 -27 54t-70 21q-44 0 -69 -21q-26 -21 -26 -54z" />
    <glyph glyph-name="fiveeighths" unicode="&#x215d;" horiz-adv-x="720" 
d="M69 529l1 -1l-3 -6q9 14 30 27q20 13 53 13q57 0 93 -37t36 -96q0 -30 -10 -54q-10 -25 -27 -43q-15 -17 -41 -28q-23 -10 -52 -10q-31 0 -53 9t-39 26t-27 39q-10 21 -13 46l40 11q5 -37 27 -63q23 -26 64 -26t65 27t24 69q0 43 -24 70t-64 27q-35 0 -54 -15t-27 -33
l-37 10l34 208h195v-40h-162l-12 -65q-4 -25 -11 -46q-6 -18 -6 -19zM559 699h44l-445 -699h-45zM618 208v-1l1 -1q12 -2 27 -9q13 -6 28 -20q13 -11 22 -30q9 -18 9 -40q0 -51 -38 -83t-99 -32q-60 0 -98 32t-38 83q0 22 9 40t21 30q13 13 27 20q15 7 27 9v1q-5 1 -19 8
q-12 6 -24 18q-11 11 -19 27t-8 36q0 46 33 74q34 29 87 29t88 -29q34 -28 34 -74q0 -20 -8 -36t-19 -27q-12 -12 -24 -18q-11 -5 -19 -7zM486 297h-2q0 -31 23 -51q22 -19 60 -19t60 19q23 20 23 51q0 30 -22 49t-60 19t-60 -19t-22 -49zM566 29h2q44 0 69 22q26 23 26 58
q0 33 -27 54t-70 21q-44 0 -69 -21q-26 -21 -26 -54q0 -35 26 -58q25 -22 69 -22z" />
    <glyph glyph-name="seveneighths" unicode="&#x215e;" horiz-adv-x="627" 
d="M11 699h258v-29l-190 -363h-44l163 311q11 21 19 30q9 10 9 12l-1 1q-8 0 -21 -1t-43 -1h-150v40zM20 0l446 699h44l-445 -699h-45zM526 208v-1l1 -1q12 -2 27 -9q13 -6 28 -20q13 -11 22 -30q9 -18 9 -40q0 -51 -38 -83t-99 -32q-60 0 -98 32t-38 83q0 22 9 40t21 30
q13 13 27 20q15 7 27 9v1q-5 1 -19 8q-12 6 -24 18q-11 11 -19 27t-8 36q0 46 33 74q34 29 87 29t88 -29q34 -28 34 -74q0 -20 -8 -36t-19 -27q-12 -12 -24 -18q-11 -5 -19 -7zM394 297h-2q0 -31 23 -51q22 -19 60 -19t60 19q23 20 23 51q0 30 -22 49t-60 19t-60 -19
t-22 -49zM379 109h2q0 -35 26 -58q25 -22 69 -22t69 22q26 23 26 58q0 33 -27 54t-70 21q-44 0 -69 -21q-26 -21 -26 -54z" />
    <glyph glyph-name="minus" unicode="&#x2212;" 
d="M113 380h426v-49h-426v49z" />
    <glyph glyph-name="notequal" unicode="&#x2260;" 
d="M539 415h-164l-56 -122h220v-49h-243l-58 -127h-50l58 127h-133v49h156l56 122h-212v49h234l63 137h50l-63 -137h142v-49z" />
    <glyph glyph-name="lessequal" unicode="&#x2264;" 
d="M91 39h426v-48h-426v48zM182 367l326 -229h-79l-327 229l342 244h79z" />
    <glyph glyph-name="greaterequal" unicode="&#x2265;" 
d="M127 138l326 229l-341 244h79l342 -244l-327 -229h-79zM118 39h426v-48h-426v48z" />
    <glyph glyph-name="lozenge" unicode="&#x25ca;" horiz-adv-x="711" 
d="M356 -13l-332 363l332 364l331 -364zM356 644l-267 -294l267 -293l266 293z" />
    <glyph glyph-name="glyph1" horiz-adv-x="0" 
 />
    <glyph glyph-name="glyph2" horiz-adv-x="0" 
 />
    <glyph glyph-name="glyph242" horiz-adv-x="678" 
d="M406 921l46 -24l-95 -161l-39 21zM643 532l-57 -15l-4 -3q-32 69 -90 105t-132 36q-57 0 -105 -21t-82 -61q-35 -41 -54 -97t-19 -129q0 -71 20 -129q19 -56 54 -97q34 -39 83 -61q48 -21 104 -21q79 0 141 44q61 43 93 119l55 -16q-36 -97 -112 -149t-177 -52
q-66 0 -127 25q-59 26 -101 74t-66 115t-24 150t24 151t67 115t102 73q60 26 127 26q95 0 168 -48q72 -47 112 -134z" />
    <glyph glyph-name="glyph243" horiz-adv-x="389" 
d="M223 53h122v-53h-301v53h122v594h-118v53h293v-53h-118v-594z" />
    <glyph glyph-name="glyph244" horiz-adv-x="968" 
d="M220 646v-594h122v-52h-301v52h122v594h-118v53h293v-53h-118zM838 700h58l-3 -440q-2 -133 -66 -203q-65 -71 -191 -71q-95 0 -157 47q-64 48 -86 129l56 15q18 -66 69 -102t120 -36q100 0 150 57q50 58 50 160v444z" />
    <glyph glyph-name="glyph245" horiz-adv-x="969" 
d="M220 646v-594h122v-52h-301v52h122v594h-118v53h293v-53h-118zM546 700h351l-3 -440q-2 -133 -66 -203q-65 -71 -191 -71q-95 0 -157 47q-64 48 -86 129l56 15q18 -66 69 -102t120 -36q101 0 150 57q50 58 50 160v390h-293v54z" />
    <glyph glyph-name="glyph246" horiz-adv-x="817" 
d="M87 0v699h57v-699h-57zM394 700h351l-3 -440q-2 -133 -66 -203q-65 -71 -191 -71q-95 0 -157 47q-64 48 -86 129l56 15q18 -66 69 -102t120 -36q101 0 150 57q50 58 50 160v390h-293v54z" />
    <glyph glyph-name="glyph247" horiz-adv-x="389" 
d="M327 846l-192 -105l-21 35l189 111zM223 53h122v-53h-301v53h122v594h-118v53h293v-53h-118v-594z" />
    <glyph glyph-name="glyph248" horiz-adv-x="389" 
d="M194 851l-112 -103l-32 31l144 131l144 -131l-31 -31zM223 53h122v-53h-301v53h122v594h-118v53h293v-53h-118v-594z" />
    <glyph glyph-name="glyph249" horiz-adv-x="389" 
d="M92 763h-1q-16 0 -28 12t-12 30t12 30t29 12q16 0 27 -12q11 -13 11 -30t-11 -30q-11 -12 -27 -12zM295 763h-1q-16 0 -28 12t-12 30t12 30t29 12t27 -12q11 -13 11 -30t-11 -30q-10 -12 -27 -12zM223 53h122v-53h-301v53h122v594h-118v53h293v-53h-118v-594z" />
    <glyph glyph-name="glyph250" horiz-adv-x="389" 
d="M194 764q-16 0 -27 12q-11 13 -11 30q0 16 11 29q11 12 27 12t27 -12q11 -13 11 -29q0 -17 -11 -30q-11 -12 -27 -12zM223 53h122v-53h-301v53h122v594h-118v53h293v-53h-118v-594z" />
    <glyph glyph-name="glyph251" horiz-adv-x="389" 
d="M263 776l-21 -35l-192 105l24 41zM223 53h122v-53h-301v53h122v594h-118v53h293v-53h-118v-594z" />
    <glyph glyph-name="glyph252" horiz-adv-x="389" 
d="M341 828v-45h-293v45h293zM223 53h122v-53h-301v53h122v594h-118v53h293v-53h-118v-594z" />
    <glyph glyph-name="glyph253" horiz-adv-x="389" 
d="M345 0h-158l-1 -2q-24 0 -48 -6q-23 -6 -42 -20q-18 -14 -30 -34q-12 -21 -12 -51q0 -37 23 -63q22 -25 65 -25t65 22q23 23 33 51l36 -16q-17 -42 -49 -68q-33 -27 -85 -27q-57 0 -94 35q-36 34 -36 92q0 38 15 66q16 30 38 46h-21v53h122v594h-118v53h293v-53h-118
v-594h122v-53z" />
    <glyph glyph-name="glyph254" horiz-adv-x="591" 
d="M168 700h351l-3 -440q-2 -133 -66 -203q-65 -71 -191 -71q-95 0 -157 47q-64 48 -86 129l56 15q18 -66 69 -102t120 -36q101 0 150 57q50 58 50 160v390h-293v54z" />
    <glyph glyph-name="glyph255" horiz-adv-x="591" 
d="M338 850l-113 -103l-31 31l144 131l143 -131l-31 -31zM168 700h351l-3 -440q-2 -133 -66 -203q-65 -71 -191 -71q-95 0 -157 47q-64 48 -86 129l56 15q18 -66 69 -102t120 -36q101 0 150 57q50 58 50 160v390h-293v54z" />
    <glyph glyph-name="glyph256" horiz-adv-x="684" 
d="M537 700h57l1 -701h-57v298l-283 233q-15 12 -78 69q-30 27 -31 27h-1l1 -14v-36v-52v-61v-464h-57v699h54l245 -207q9 -7 27.5 -23.5t28.5 -24.5q27 -23 48 -39q7 -6 18 -15t15 -12l13 -10h1q0 14 -1 39t-1 95v199z" />
    <glyph glyph-name="glyph257" horiz-adv-x="684" 
d="M390 925l46 -24l-95 -161l-39 21zM537 700h57l-4 -699h-52l-320 485q-51 77 -57 87q-19 34 -21 34h-2l1 -14q1 -5 1.5 -18t0.5 -20q1 -24 3 -57q1 -22 1 -70v-427h-57v700h53l319 -483q43 -63 56 -85q21 -34 22 -34h1v15v39q0 35 -1 56t-1 66v425z" />
    <glyph glyph-name="glyph258" horiz-adv-x="684" 
d="M401 922l46 -24l-95 -161l-39 21zM537 700h57l1 -701h-57v298l-283 233q-15 12 -78 69q-30 27 -31 27h-1l1 -14v-36v-52v-61v-464h-57v699h54l245 -207q9 -7 27.5 -23.5t28.5 -24.5q27 -23 48 -39q7 -6 18 -15t15 -12l13 -10h1q0 14 -1 39t-1 95v199z" />
    <glyph glyph-name="glyph259" horiz-adv-x="684" 
d="M458 885l24 -41l-192 -105l-21 35zM537 700h57l1 -701h-57v298l-283 233q-15 12 -78 69q-30 27 -31 27h-1l1 -14v-36v-52v-61v-464h-57v699h54l245 -207q9 -7 27.5 -23.5t28.5 -24.5q27 -23 48 -39q7 -6 18 -15t15 -12l13 -10h1q0 14 -1 39t-1 95v199z" />
    <glyph glyph-name="glyph260" horiz-adv-x="684" 
d="M594 700h-57l-4 -199q-1 -42 1 -95q1 -25 1 -39h-1l-12 11q-12 10 -33 27t-48 39q-9 8 -27.5 24t-27.5 24l-245 207h-54v-699h57v464v61v53v36v14h1q1 0 31 -27q63 -57 78 -69l283 -233v-299h57v700zM349 732l-144 131l31 31l113 -103l113 103l31 -31z" />
    <glyph glyph-name="glyph261" horiz-adv-x="684" 
d="M535 699h57l1 -701h-57v298l-283 233q-15 12 -78 69q-30 27 -31 27h-1l1 -14v-36v-52v-61v-464h-57v699h54l245 -207q9 -7 27.5 -23.5t28.5 -24.5q27 -22 48 -39q7 -6 18 -15t15 -12l13 -10h1q0 14 -1 39t-1 95v199zM341 -124l8 5l-11 -1q-13 -1 -25 9q-12 11 -12 30
t12 29q13 11 29 11q18 0 30 -14q12 -13 12 -35q0 -23 -6 -44q-6 -22 -15 -41t-21 -36q-13 -18 -22 -27h-27q18 20 33 51t15 63z" />
    <glyph glyph-name="glyph262" horiz-adv-x="684" 
d="M458 849h46l1 -2q2 -38 -25 -63q-26 -25 -67 -25q-21 0 -36 9q-20 12 -29 19q-18 14 -27 20q-13 9 -30 9q-23 0 -36 -13t-13 -34h-46q0 19 6 36t18 29t29 18t36 6q23 0 39 -9q19 -10 30 -19q9 -7 27 -19q13 -9 28 -9q20 0 34 14q13 14 15 33zM537 700h57l1 -701h-57v298
l-283 233q-15 12 -78 69q-30 27 -31 27h-1l1 -14v-36v-52v-61v-464h-57v699h54l245 -207q9 -7 27.5 -23.5t28.5 -24.5q27 -23 48 -39q7 -6 18 -15t15 -12l13 -10h1q0 14 -1 39t-1 95v199z" />
    <glyph glyph-name="glyph263" horiz-adv-x="727" 
d="M411 919l46 -24l-95 -161l-39 21zM40 347l-3 -2q0 83 24 151t67 115t102 73q60 26 126 26q68 0 128 -26q59 -26 102 -73t67 -115t24 -150q0 -84 -24 -151q-24 -68 -67 -115t-102 -73q-58 -24 -126 -24q-66 0 -127 25q-59 26 -101 74t-66 115t-24 150zM102 350l-4 -3
q0 -71 20 -129q19 -56 54 -97q34 -39 83 -61q48 -21 105 -21t105 21t83 62q34 40 54 98t20 128q0 75 -19 131q-19 57 -54 96q-34 39 -83 60q-48 21 -104 21q-57 0 -105 -21q-47 -21 -82 -60t-54 -96q-19 -56 -19 -129z" />
    <glyph glyph-name="glyph264" horiz-adv-x="742" 
d="M617 52h81l-4 -58h-340q-70 0 -127 25q-58 25 -100 72q-42 46 -66 113q-24 66 -24 147q0 83 24 149q25 68 67 113q44 47 102 72q57 25 126 25q70 0 127 -25q59 -25 102 -72q43 -46 67 -112t24 -147q0 -112 -47 -192q-46 -79 -123 -115l1 -1q1 0 28 3t82 3zM102 357l-4 -3
q0 -69 20 -126q19 -55 54 -94q34 -39 83 -60q48 -21 104 -21t104 21q49 21 83 60t54 95q20 57 20 126q0 71 -20 128q-20 56 -54 95q-35 39 -82 60q-48 21 -103 21q-56 0 -104 -21q-47 -21 -82 -60q-34 -39 -54 -95q-19 -54 -19 -126z" />
    <glyph glyph-name="glyph265" horiz-adv-x="542" 
d="M320 917l46 -24l-95 -161l-39 21zM494 536l-54 -14l-4 -7q-12 67 -57 104q-46 38 -114 38q-35 0 -63 -9q-30 -10 -50 -25q-21 -17 -33 -40q-12 -24 -12 -52q0 -29 17 -52q16 -23 42 -39q25 -16 59 -30q8 -3 65 -25q34 -13 72 -30q40 -18 68 -40q31 -25 50 -57
q20 -34 20 -81q0 -43 -16 -78q-16 -36 -46 -61q-30 -26 -72 -39q-42 -15 -94 -15t-94 15q-40 13 -72 40q-30 25 -48 62q-18 36 -24 78l54 15q3 -33 17 -63t37 -50q24 -21 57 -33t75 -12q38 0 71 11q30 10 54 29q21 17 34 44q12 26 12 56q0 40 -19 66q-20 28 -49 45
q-32 19 -66 32q-24 9 -72 29q-35 15 -62 27q-32 14 -61 36q-28 20 -46 51q-18 30 -18 72q0 40 16 72q16 33 45 57q28 23 69 37q42 14 88 14q44 0 81 -12t67 -36q29 -23 49 -57q20 -33 27 -73z" />
    <glyph glyph-name="glyph266" horiz-adv-x="586" 
d="M568 700l-235 -338h119v-48h-133v-314h-56v314h-132v48h120l-235 338h64l169 -241l15 -24l14 -21l10 -15l4 -6h1l4 6l10 15q2 3 6.5 10.5t6.5 10.5l15 24l169 241h64z" />
    <glyph glyph-name="glyph267" horiz-adv-x="586" 
d="M423 846l-192 -105l-21 35l189 111zM568 700l-235 -338h119v-48h-133v-314h-56v314h-132v48h120l-235 338h64l169 -241l15 -24l14 -21l10 -15l4 -6h1l4 6l10 15q2 3 6.5 10.5t6.5 10.5l15 24l169 241h64z" />
    <glyph glyph-name="glyph268" horiz-adv-x="586" 
d="M290 851l-112 -103l-32 31l144 131l144 -131l-31 -31zM568 700l-235 -338h119v-48h-133v-314h-56v314h-132v48h120l-235 338h64l169 -241l15 -24l14 -21l10 -15l4 -6h1l4 6l10 15q2 3 6.5 10.5t6.5 10.5l15 24l169 241h64z" />
    <glyph glyph-name="glyph269" horiz-adv-x="586" 
d="M188 763h-1q-16 0 -28 12t-12 30t12 30t29 12q16 0 27 -12q11 -13 11 -30t-11 -30q-11 -12 -27 -12zM391 763h-1q-16 0 -28 12t-12 30t12 30t29 12t27 -12q11 -13 11 -30t-11 -30q-10 -12 -27 -12zM568 700l-235 -338h119v-48h-133v-314h-56v314h-132v48h120l-235 338h64
l169 -241l15 -24l14 -21l10 -15l4 -6h1l4 6l10 15q2 3 6.5 10.5t6.5 10.5l15 24l169 241h64z" />
    <glyph glyph-name="glyph270" horiz-adv-x="586" 
d="M359 776l-21 -35l-192 105l24 41zM568 700l-235 -338h119v-48h-133v-314h-56v314h-132v48h120l-235 338h64l169 -241l15 -24l14 -21l10 -15l4 -6h1l4 6l10 15q2 3 6.5 10.5t6.5 10.5l15 24l169 241h64z" />
    <glyph glyph-name="glyph271" horiz-adv-x="619" 
d="M360 923l46 -24l-95 -161l-39 21zM564 700v-52l-398 -541q-22 -28 -31 -40q-12 -15 -12 -16l1 -1q9 0 24 1t59 1h356v-53h-509v51l399 542q4 5 14 17t15 17q9 9 12 13l5 6l-2 1h-24h-61h-347v54h499z" />
    <glyph glyph-name="glyph272" horiz-adv-x="678" 
d="M406 921l46 -24l-95 -161l-39 21zM643 532l-57 -15l-4 -3q-32 69 -90 105t-132 36q-57 0 -105 -21t-82 -61q-35 -41 -54 -97t-19 -129q0 -71 20 -129q19 -56 54 -97q34 -39 83 -61q48 -21 104 -21q79 0 141 44q61 43 93 119l55 -16q-36 -97 -112 -149t-177 -52
q-66 0 -127 25q-59 26 -101 74t-66 115t-24 150t24 151t67 115t102 73q60 26 127 26q95 0 168 -48q72 -47 112 -134z" />
    <glyph glyph-name="glyph273" horiz-adv-x="591" 
d="M168 700h351l-3 -440q-2 -133 -66 -203q-65 -71 -191 -71q-95 0 -157 47q-64 48 -86 129l56 15q18 -66 69 -102t120 -36q101 0 150 57q50 58 50 160v390h-293v54z" />
    <glyph glyph-name="glyph274" horiz-adv-x="389" 
d="M223 53h122v-53h-301v53h122v594h-118v53h293v-53h-118v-594z" />
    <glyph glyph-name="glyph275" horiz-adv-x="389" 
d="M327 846l-192 -105l-21 35l189 111zM223 53h122v-53h-301v53h122v594h-118v53h293v-53h-118v-594z" />
    <glyph glyph-name="glyph276" horiz-adv-x="389" 
d="M194 851l-112 -103l-32 31l144 131l144 -131l-31 -31zM223 53h122v-53h-301v53h122v594h-118v53h293v-53h-118v-594z" />
    <glyph glyph-name="glyph277" horiz-adv-x="389" 
d="M92 763h-1q-16 0 -28 12t-12 30t12 30t29 12q16 0 27 -12q11 -13 11 -30t-11 -30q-11 -12 -27 -12zM295 763h-1q-16 0 -28 12t-12 30t12 30t29 12t27 -12q11 -13 11 -30t-11 -30q-10 -12 -27 -12zM223 53h122v-53h-301v53h122v594h-118v53h293v-53h-118v-594z" />
    <glyph glyph-name="glyph278" horiz-adv-x="389" 
d="M194 764q-16 0 -27 12q-11 13 -11 30q0 16 11 29q11 12 27 12t27 -12q11 -13 11 -29q0 -17 -11 -30q-11 -12 -27 -12zM223 53h122v-53h-301v53h122v594h-118v53h293v-53h-118v-594z" />
    <glyph glyph-name="glyph279" horiz-adv-x="389" 
d="M263 776l-21 -35l-192 105l24 41zM223 53h122v-53h-301v53h122v594h-118v53h293v-53h-118v-594z" />
    <glyph glyph-name="glyph280" horiz-adv-x="968" 
d="M220 646v-594h122v-52h-301v52h122v594h-118v53h293v-53h-118zM838 700h58l-3 -440q-2 -133 -66 -203q-65 -71 -191 -71q-95 0 -157 47q-64 48 -86 129l56 15q18 -66 69 -102t120 -36q100 0 150 57q50 58 50 160v444z" />
    <glyph glyph-name="glyph281" horiz-adv-x="969" 
d="M220 646v-594h122v-52h-301v52h122v594h-118v53h293v-53h-118zM546 700h351l-3 -440q-2 -133 -66 -203q-65 -71 -191 -71q-95 0 -157 47q-64 48 -86 129l56 15q18 -66 69 -102t120 -36q101 0 150 57q50 58 50 160v390h-293v54z" />
    <glyph glyph-name="glyph282" horiz-adv-x="817" 
d="M87 0v699h57v-699h-57zM394 700h351l-3 -440q-2 -133 -66 -203q-65 -71 -191 -71q-95 0 -157 47q-64 48 -86 129l56 15q18 -66 69 -102t120 -36q101 0 150 57q50 58 50 160v390h-293v54z" />
    <glyph glyph-name="glyph283" horiz-adv-x="389" 
d="M341 828v-45h-293v45h293zM223 53h122v-53h-301v53h122v594h-118v53h293v-53h-118v-594z" />
    <glyph glyph-name="glyph284" horiz-adv-x="389" 
d="M345 0h-158l-1 -2q-24 0 -48 -6q-23 -6 -42 -20q-18 -14 -30 -34q-12 -21 -12 -51q0 -37 23 -63q22 -25 65 -25t65 22q23 23 33 51l36 -16q-17 -42 -49 -68q-33 -27 -85 -27q-57 0 -94 35q-36 34 -36 92q0 38 15 66q16 30 38 46h-21v53h122v594h-118v53h293v-53h-118
v-594h122v-53z" />
    <glyph glyph-name="glyph285" horiz-adv-x="591" 
d="M168 700h351l-3 -440q-2 -133 -66 -203q-65 -71 -191 -71q-95 0 -157 47q-64 48 -86 129l56 15q18 -66 69 -102t120 -36q101 0 150 57q50 58 50 160v390h-293v54z" />
    <glyph glyph-name="glyph286" horiz-adv-x="591" 
d="M337 850l-112 -103l-32 31l144 131l144 -131l-31 -31zM168 700h351l-3 -440q-2 -133 -66 -203q-65 -71 -191 -71q-95 0 -157 47q-64 48 -86 129l56 15q18 -66 69 -102t120 -36q101 0 150 57q50 58 50 160v390h-293v54z" />
    <glyph glyph-name="glyph287" horiz-adv-x="684" 
d="M537 700h57l1 -701h-57v298l-283 233q-15 12 -78 69q-30 27 -31 27h-1l1 -14v-36v-52v-61v-464h-57v699h54l245 -207q9 -7 27.5 -23.5t28.5 -24.5q27 -23 48 -39q7 -6 18 -15t15 -12l13 -10h1q0 14 -1 39t-1 95v199z" />
    <glyph glyph-name="glyph288" horiz-adv-x="684" 
d="M390 925l46 -24l-95 -161l-39 21zM537 700h57l-4 -699h-52l-320 485q-51 77 -57 87q-19 34 -21 34h-2l1 -14q1 -5 1.5 -18t0.5 -20q1 -24 3 -57q1 -22 1 -70v-427h-57v700h53l319 -483q43 -63 56 -85q21 -34 22 -34h1v15v39q0 35 -1 56t-1 66v425z" />
    <glyph glyph-name="glyph289" horiz-adv-x="684" 
d="M401 922l46 -24l-95 -161l-39 21zM537 700h57l1 -701h-57v298l-283 233q-15 12 -78 69q-30 27 -31 27h-1l1 -14v-36v-52v-61v-464h-57v699h54l245 -207q9 -7 27.5 -23.5t28.5 -24.5q27 -23 48 -39q7 -6 18 -15t15 -12l13 -10h1q0 14 -1 39t-1 95v199z" />
    <glyph glyph-name="glyph290" horiz-adv-x="684" 
d="M458 885l24 -41l-192 -105l-21 35zM537 700h57l1 -701h-57v298l-283 233q-15 12 -78 69q-30 27 -31 27h-1l1 -14v-36v-52v-61v-464h-57v699h54l245 -207q9 -7 27.5 -23.5t28.5 -24.5q27 -23 48 -39q7 -6 18 -15t15 -12l13 -10h1q0 14 -1 39t-1 95v199z" />
    <glyph glyph-name="glyph291" horiz-adv-x="684" 
d="M594 700h-57l-4 -199q-1 -42 1 -95q1 -25 1 -39h-1l-12 11q-12 10 -33 27t-48 39q-9 8 -27.5 24t-27.5 24l-245 207h-54v-699h57v464v61v53v36v14h1q1 0 31 -27q63 -57 78 -69l283 -233v-299h57v700zM349 732l-144 131l31 31l113 -103l113 103l31 -31z" />
    <glyph glyph-name="glyph292" horiz-adv-x="684" 
d="M535 699h57l1 -701h-57v298l-283 233q-15 12 -78 69q-30 27 -31 27h-1l1 -14v-36v-52v-61v-464h-57v699h54l245 -207q9 -7 27.5 -23.5t28.5 -24.5q27 -22 48 -39q7 -6 18 -15t15 -12l13 -10h1q0 14 -1 39t-1 95v199zM341 -124l8 5l-11 -1q-13 -1 -25 9q-12 11 -12 30
t12 29q13 11 29 11q18 0 30 -14q12 -13 12 -35q0 -23 -6 -44q-6 -22 -15 -41t-21 -36q-13 -18 -22 -27h-27q18 20 33 51t15 63z" />
    <glyph glyph-name="glyph293" horiz-adv-x="684" 
d="M458 849h46l1 -2q2 -38 -25 -63q-26 -25 -67 -25q-21 0 -36 9q-20 12 -29 19q-18 14 -27 20q-13 9 -30 9q-23 0 -36 -13t-13 -34h-46q0 19 6 36t18 29t29 18t36 6q23 0 39 -9q19 -10 30 -19q9 -7 27 -19q13 -9 28 -9q20 0 34 14q13 14 15 33zM537 700h57l1 -701h-57v298
l-283 233q-15 12 -78 69q-30 27 -31 27h-1l1 -14v-36v-52v-61v-464h-57v699h54l245 -207q9 -7 27.5 -23.5t28.5 -24.5q27 -23 48 -39q7 -6 18 -15t15 -12l13 -10h1q0 14 -1 39t-1 95v199z" />
    <glyph glyph-name="glyph294" horiz-adv-x="727" 
d="M411 919l46 -24l-95 -161l-39 21zM40 347l-3 -2q0 83 24 151t67 115t102 73q60 26 126 26q68 0 128 -26q59 -26 102 -73t67 -115t24 -150q0 -84 -24 -151q-24 -68 -67 -115t-102 -73q-58 -24 -126 -24q-66 0 -127 25q-59 26 -101 74t-66 115t-24 150zM102 350l-4 -3
q0 -71 20 -129q19 -56 54 -97q34 -39 83 -61q48 -21 105 -21t105 21t83 62q34 40 54 98t20 128q0 75 -19 131q-19 57 -54 96q-34 39 -83 60q-48 21 -104 21q-57 0 -105 -21q-47 -21 -82 -60t-54 -96q-19 -56 -19 -129z" />
    <glyph glyph-name="glyph295" horiz-adv-x="742" 
d="M617 52h81l-4 -58h-340q-70 0 -127 25q-58 25 -100 72q-42 46 -66 113q-24 66 -24 147q0 83 24 149q25 68 67 113q44 47 102 72q57 25 126 25q70 0 127 -25q59 -25 102 -72q43 -46 67 -112t24 -147q0 -112 -47 -192q-46 -79 -123 -115l1 -1q1 0 28 3t82 3zM102 357l-4 -3
q0 -69 20 -126q19 -55 54 -94q34 -39 83 -60q48 -21 104 -21t104 21q49 21 83 60t54 95q20 57 20 126q0 71 -20 128q-20 56 -54 95q-35 39 -82 60q-48 21 -103 21q-56 0 -104 -21q-47 -21 -82 -60q-34 -39 -54 -95q-19 -54 -19 -126z" />
    <glyph glyph-name="glyph296" horiz-adv-x="542" 
d="M320 917l46 -24l-95 -161l-39 21zM494 536l-54 -14l-4 -7q-12 67 -57 104q-46 38 -114 38q-35 0 -63 -9q-30 -10 -50 -25q-21 -17 -33 -40q-12 -24 -12 -52q0 -29 17 -52q16 -23 42 -39q25 -16 59 -30q8 -3 65 -25q34 -13 72 -30q40 -18 68 -40q31 -25 50 -57
q20 -34 20 -81q0 -43 -16 -78q-16 -36 -46 -61q-30 -26 -72 -39q-42 -15 -94 -15t-94 15q-40 13 -72 40q-30 25 -48 62q-18 36 -24 78l54 15q3 -33 17 -63t37 -50q24 -21 57 -33t75 -12q38 0 71 11q30 10 54 29q21 17 34 44q12 26 12 56q0 40 -19 66q-20 28 -49 45
q-32 19 -66 32q-24 9 -72 29q-35 15 -62 27q-32 14 -61 36q-28 20 -46 51q-18 30 -18 72q0 40 16 72q16 33 45 57q28 23 69 37q42 14 88 14q44 0 81 -12t67 -36q29 -23 49 -57q20 -33 27 -73z" />
    <glyph glyph-name="glyph297" horiz-adv-x="586" 
d="M568 700l-235 -338h119v-48h-133v-314h-56v314h-132v48h120l-235 338h64l169 -241l15 -24l14 -21l10 -15l4 -6h1l4 6l10 15q2 3 6.5 10.5t6.5 10.5l15 24l169 241h64z" />
    <glyph glyph-name="glyph298" horiz-adv-x="586" 
d="M423 846l-192 -105l-21 35l189 111zM568 700l-235 -338h119v-48h-133v-314h-56v314h-132v48h120l-235 338h64l169 -241l15 -24l14 -21l10 -15l4 -6h1l4 6l10 15q2 3 6.5 10.5t6.5 10.5l15 24l169 241h64z" />
    <glyph glyph-name="glyph299" horiz-adv-x="586" 
d="M290 851l-112 -103l-32 31l144 131l144 -131l-31 -31zM568 700l-235 -338h119v-48h-133v-314h-56v314h-132v48h120l-235 338h64l169 -241l15 -24l14 -21l10 -15l4 -6h1l4 6l10 15q2 3 6.5 10.5t6.5 10.5l15 24l169 241h64z" />
    <glyph glyph-name="glyph300" horiz-adv-x="586" 
d="M188 763h-1q-16 0 -28 12t-12 30t12 30t29 12q16 0 27 -12q11 -13 11 -30t-11 -30q-11 -12 -27 -12zM391 763h-1q-16 0 -28 12t-12 30t12 30t29 12t27 -12q11 -13 11 -30t-11 -30q-10 -12 -27 -12zM568 700l-235 -338h119v-48h-133v-314h-56v314h-132v48h120l-235 338h64
l169 -241l15 -24l14 -21l10 -15l4 -6h1l4 6l10 15q2 3 6.5 10.5t6.5 10.5l15 24l169 241h64z" />
    <glyph glyph-name="glyph301" horiz-adv-x="586" 
d="M359 776l-21 -35l-192 105l24 41zM568 700l-235 -338h119v-48h-133v-314h-56v314h-132v48h120l-235 338h64l169 -241l15 -24l14 -21l10 -15l4 -6h1l4 6l10 15q2 3 6.5 10.5t6.5 10.5l15 24l169 241h64z" />
    <glyph glyph-name="glyph302" horiz-adv-x="619" 
d="M360 923l46 -24l-95 -161l-39 21zM564 700v-52l-398 -541q-22 -28 -31 -40q-12 -15 -12 -16l1 -1q9 0 24 1t59 1h356v-53h-509v51l399 542q4 5 14 17t15 17q9 9 12 13l5 6l-2 1h-24h-61h-347v54h499z" />
    <glyph glyph-name="glyph326" horiz-adv-x="647" 
d="M323 714v-6q68 0 120 -28t88 -78t54 -115q18 -66 18 -142t-18 -142q-18 -65 -54 -115t-88 -78q-53 -27 -120 -27q-66 0 -120 28q-53 29 -87 78q-35 50 -53 116t-18 143t18 143t53 116q34 49 87 78t120 29zM165 117l289 491v3q-27 24 -58 35q-33 12 -73 12q-55 0 -96 -24
t-69 -66t-42 -99q-13 -55 -13 -121q0 -69 15 -129q15 -59 47 -102zM481 582l-290 -492v-3q25 -22 59 -36q32 -13 74 -13q55 0 97 24t69 66q28 43 41 99q14 59 14 122q0 72 -16 130q-16 59 -48 103z" />
    <glyph glyph-name="glyph327" horiz-adv-x="356" 
d="M176 462v-4q-38 0 -68 15t-51 42t-33 65t-12 83t12 83t33 65t51 42t68 15t68 -15t51 -42t33 -64t12 -82t-12 -82t-33 -64t-51 -42t-68 -15zM178 506h-2q56 0 87 45q32 46 32 115q0 71 -31 115q-32 45 -87 45t-87 -45q-31 -44 -31 -115q0 -69 32 -115q31 -45 87 -45z" />
    <glyph glyph-name="glyph328" horiz-adv-x="312" 
d="M290 610v-39h-51v-102h-41v102h-190v31l199 259h32v-251h51zM123 611h77l-2 87q0 25 1 37q2 24 2 32q0 11 2 23l1 9h-1l-5 -8q-6 -7 -15 -21q-12 -18 -19 -28q-14 -20 -21 -29l-44 -55q-13 -16 -29 -32q-15 -15 -15 -16l1 -1q8 0 21 1t46 1z" />
    <glyph glyph-name="glyph329" horiz-adv-x="300" 
d="M68 692l1 -1l-3 -6q9 13 30 27q20 13 53 13q57 0 93 -37q36 -38 36 -96q0 -30 -10 -54q-10 -25 -27 -43q-15 -17 -41 -28q-23 -10 -52 -10q-30 0 -53 9q-22 9 -39 26q-16 16 -27 39q-10 21 -13 46l40 11q4 -38 27 -63q23 -26 64 -26t65 27t24 69q0 43 -24 70t-64 27
q-34 0 -54 -15t-27 -33l-37 10l34 208h195v-40h-162l-12 -65q-4 -25 -11 -46q-6 -18 -6 -19z" />
    <glyph glyph-name="glyph330" horiz-adv-x="307" 
d="M203 860l-132 -172l-1 -4q3 4 11 14q6 8 17 14q13 7 24 11q15 5 30 5q30 0 53 -10q25 -11 42 -28t28 -42q10 -23 10 -53q0 -31 -10 -55q-11 -26 -28 -43t-43 -28q-24 -10 -55 -10t-55 10q-26 11 -43 28t-28 44q-10 24 -10 56q0 37 12 69q13 33 37 66l94 128h47zM151 502
l-2 -2q42 0 68 26q25 25 27 71q0 46 -25 71q-26 26 -69 26q-44 0 -69 -25t-25 -70t26 -71t69 -26z" />
    <glyph glyph-name="glyph331" horiz-adv-x="273" 
d="M10 862h258v-29l-190 -363h-44l163 311q11 21 19 30q9 11 9 12l-1 1q-8 0 -21 -1t-43 -1h-150v40z" />
    <glyph glyph-name="glyph332" horiz-adv-x="303" 
d="M203 678v-1l1 -1q12 -2 27 -9q13 -6 28 -20q13 -11 22 -30q9 -18 9 -40q0 -51 -38 -83q-39 -33 -99 -33q-59 0 -98 33q-38 32 -38 83q0 22 9 40t21 30q13 13 27 20q15 7 27 9v1q-5 1 -19 8q-12 6 -24 18q-11 11 -19 27t-8 36q0 46 33 74q34 29 87 29t88 -29
q34 -28 34 -74q0 -20 -8 -36t-19 -27q-12 -12 -24 -18q-11 -5 -19 -7zM71 767h-2q0 -31 23 -51q22 -19 60 -19t60 19q23 20 23 51q0 30 -22 49t-60 19t-60 -19t-22 -49zM56 579h2q0 -35 26 -58q25 -22 69 -22t69 22q26 23 26 58q0 33 -27 54t-70 21t-69 -21t-26 -54z" />
    <glyph glyph-name="glyph333" horiz-adv-x="301" 
d="M89 470l133 167h-4q-14 -17 -31 -27q-19 -11 -43 -11q-60 0 -96 38q-36 37 -36 96q0 31 10 55q10 26 28 43q17 17 42 28q23 10 54 10t55 -10q25 -11 43 -28q19 -19 29 -43q11 -27 11 -55q0 -46 -19 -84q-19 -39 -45 -72l-82 -107h-49zM150 831h-2q-42 0 -67 -27t-27 -72
q0 -43 26 -69t69 -26t69 26t26 69q0 46 -25 72q-25 27 -69 27z" />
    <glyph glyph-name="glyph334" 
d="M324 714l-2 -1q68 0 116 -30q49 -31 80 -81t46 -117q15 -66 15 -136t-15 -136q-15 -67 -46 -117t-80 -81q-49 -29 -115 -29q-67 0 -116 29q-47 29 -79 81q-31 50 -46 117q-15 66 -15 137q0 70 15 136q15 67 46 117t80 81q48 30 116 30zM325 659h-1q-56 0 -93 -27t-61 -70
q-23 -42 -34 -99q-10 -53 -10 -114t10 -114q11 -57 34 -99q24 -43 61 -70t93 -27t93 27q39 28 62 70t34 99q10 53 10 114t-10 114q-11 57 -34 99q-24 43 -61 70q-38 27 -93 27z" />
    <glyph glyph-name="glyph335" 
d="M382 54h163l1 -54h-386v54h166v449v40q0 15 2 37q1 11 1 27v11h-1l-5 -6q-2 -2 -6 -6.5t-7 -7.5q-2 -2 -7.5 -8t-8.5 -9l-15 -15l-98 -95l-37 35l198 194h40v-646z" />
    <glyph glyph-name="glyph336" 
d="M169 53l2 -1l-2 -1q10 0 28 1t76 1h261v-53h-442v44q50 48 150 142t150 142q34 31 60 77t26 100q0 35 -12 63q-12 29 -33 50q-22 22 -51 32q-31 11 -64 11q-73 0 -117 -38q-43 -37 -60 -101l-53 14q24 86 84 131t148 45q46 0 87 -15t69 -42t45 -66q16 -38 16 -85
q0 -49 -17 -91q-16 -39 -42 -73q-24 -32 -56 -60q-30 -27 -57 -51q-31 -29 -66 -60t-63 -57t-48 -42z" />
    <glyph glyph-name="glyph337" 
d="M154 523l-51 13l7 1q18 84 77 131t147 47q58 0 98 -15q39 -14 67 -41q27 -26 39 -58q12 -33 12 -68q0 -38 -13 -67q-14 -31 -34 -51q-21 -21 -48 -33q-28 -13 -54 -14v-2q29 -2 57 -12t51 -32q23 -21 36 -52q14 -33 14 -72q0 -47 -17 -87q-16 -38 -47 -66
q-30 -27 -72 -42q-44 -14 -91 -14q-43 0 -87 13q-41 14 -72 39t-52 61q-20 35 -28 79l51 14q4 -33 20 -63q15 -28 39 -49t56 -33q31 -12 69 -12q42 0 74 12t53 33t32 50q11 30 11 62q0 70 -48 106t-127 36h-56v49h56q77 0 122 36t45 105q0 24 -9 48t-28 43q-20 20 -51 32
q-32 12 -75 12q-74 0 -115 -37t-58 -102z" />
    <glyph glyph-name="glyph338" 
d="M566 241v-52h-93v-189h-55v189h-346v41l358 469h43v-458h93zM257 242h165l-4 227v54q0 19 2 45q0 6 0.5 17t1.5 15l1 12h-1l-6 -8q-6 -8 -15 -21t-21 -30q-8 -11 -26 -35l-153 -200q-27 -36 -48 -59q-13 -14 -13 -16l1 -1h15h29h36h36z" />
    <glyph glyph-name="glyph339" 
d="M175 387l1 -2l1 -4q7 11 21 24t33 24t45 18q24 7 54 7q48 0 91 -17q42 -17 72 -48q31 -32 47 -75q17 -45 17 -96t-17 -96q-16 -43 -47 -75q-30 -31 -72 -48q-42 -18 -91 -18q-50 0 -90 15q-38 13 -70 40q-29 24 -49 62q-20 36 -27 79l52 14q13 -69 59 -115
q45 -45 122 -45q36 0 69 14q32 13 54 39t36 60q13 33 13 75t-13 75q-14 34 -36 60t-54 39q-33 14 -69 14t-63 -9q-25 -8 -46 -23q-19 -13 -31 -31q-11 -17 -19 -34l-49 14l61 375h337v-54h-294l-23 -134q-10 -57 -18 -90q-7 -31 -7 -34z" />
    <glyph glyph-name="glyph340" 
d="M411 696l-223 -304l3 2q22 30 59 48q36 18 87 18t93 -18q43 -18 72 -49q31 -32 47 -75q17 -45 17 -94q0 -52 -18 -96t-49 -75t-75 -49q-45 -17 -96 -17t-96 17q-43 18 -75 50q-31 31 -49 75q-18 43 -18 96q0 35 6 65q6 28 17 59q11 29 27 57t39 60l169 230h63zM328 38
l-1 -4q40 0 74 14q33 14 57 39q23 25 37 60q14 36 14 77q0 42 -12 76t-36 58q-25 25 -58 38q-36 14 -75 14q-42 0 -74 -13t-57 -38q-23 -23 -37 -58q-13 -33 -13 -75q0 -45 13 -78q14 -36 37 -59q25 -25 57 -38t74 -13z" />
    <glyph glyph-name="glyph341" 
d="M110 700h448l-2 -41l-342 -661h-60l290 557l18 33q3 6 17 28l12 20l5 8l-1 2h-9h-22h-30h-33h-291v54z" />
    <glyph glyph-name="glyph342" 
d="M406 369v-2l2 2q28 -3 57 -15q28 -12 53 -35q24 -23 39 -55q15 -33 15 -76q0 -46 -18 -84q-18 -37 -49 -64q-33 -28 -76 -41q-45 -15 -99 -15t-99 15q-43 13 -76 41q-31 27 -49 64q-18 38 -18 84q0 43 15 76q15 32 39 55q25 23 53 35q29 12 57 15v2q-16 1 -39 12
q-24 11 -44 30q-21 19 -36 48t-15 68t15 72q15 32 44 57q30 25 67 38q40 14 86 14q47 0 87 -14q39 -14 66 -39q27 -26 42 -58q15 -33 15 -72t-15 -68t-36 -48q-20 -19 -44 -30q-23 -11 -39 -12zM167 529v-3q0 -60 45 -96t116 -36q37 0 66 10q31 11 51 28q21 18 33 42t12 53
q0 31 -12 57t-33 44q-20 17 -51 28q-29 10 -66 10q-72 0 -116 -37q-45 -37 -45 -100zM142 191v-1q0 -72 50 -114t135 -42q87 0 137 42t50 114q0 70 -51 111q-52 41 -136 41q-86 0 -135 -40q-50 -41 -50 -111z" />
    <glyph glyph-name="glyph343" 
d="M222 0l235 302l-3 2q-26 -31 -66 -49q-39 -18 -82 -18q-56 0 -99 18q-44 18 -74 50q-29 31 -46 75q-16 42 -16 93q0 55 18 100q17 43 50 76q31 31 77 48t96 17q53 0 95 -16q44 -17 77 -48q33 -32 51 -76q18 -45 18 -103q0 -36 -7 -67q-8 -34 -22 -67q-15 -35 -39 -72
q-26 -41 -58 -81l-142 -184h-63zM312 662l1 -1q-37 0 -70 -12q-34 -12 -59 -36q-25 -23 -40 -60q-15 -36 -15 -84q0 -47 15 -81t41 -57q25 -22 59 -33q35 -11 69 -11q39 0 73 12t60 36t39 58q14 36 14 78q0 49 -15 85q-16 37 -40 59q-26 23 -60 35t-72 12z" />
    <glyph glyph-name="glyph344" 
d="M321 713l-2 -1q68 0 116 -30q49 -31 80 -81t46 -117q15 -66 15 -136t-15 -136q-15 -67 -46 -117t-80 -81q-49 -29 -115 -29q-67 0 -116 29q-47 29 -79 81q-31 50 -46 117q-15 66 -15 137q0 70 15 136q15 67 46 117t80 81q48 30 116 30zM175 125l278 473h-2q-23 28 -54 45
q-31 16 -75 16q-56 0 -93 -27t-61 -70q-23 -42 -34 -99q-10 -53 -10 -114q0 -63 12 -121t39 -103zM478 565l-276 -472l-2 -1q23 -24 53 -38q31 -14 70 -14q55 0 93 27q39 28 62 70t34 99q10 53 10 114q0 63 -10 116q-11 57 -34 99z" />
    <glyph glyph-name="glyph345" horiz-adv-x="352" 
d="M178 708v-4q38 0 68 -15t51 -42t33 -64t12 -82t-12 -82t-33 -64t-51 -42t-68 -15t-68 15t-51 42t-33 65t-12 83t12 83t33 65t51 42t68 15zM91 390l150 253q-27 21 -63 21q-56 0 -87 -45q-31 -44 -31 -115t31 -114zM264 619l-150 -254q28 -21 63 -21q55 0 87 45
q32 46 32 115q0 71 -32 115z" />
    <glyph glyph-name="glyph346" horiz-adv-x="352" 
d="M178 395v-4q38 0 68 -15t51 -42t33 -64q12 -38 12 -82t-12 -82q-12 -37 -33 -64t-51 -42q-31 -14 -68 -14t-68 14q-30 15 -51 42t-33 65q-12 37 -12 83t12 83q12 38 33 65t51 42t68 15zM91 77l150 253q-27 21 -63 21q-56 0 -87 -45q-31 -44 -31 -115t31 -114zM264 306
l-150 -254q28 -21 63 -21q55 0 87 45q32 46 32 115q0 71 -32 115z" />
    <glyph glyph-name="glyph347" horiz-adv-x="352" 
d="M178 870v-4q38 0 68 -15t51 -42t33 -64t12 -82t-12 -82t-33 -64t-51 -42t-68 -15t-68 15t-51 42t-33 65t-12 83t12 83t33 65t51 42t68 15zM91 552l150 253q-27 21 -63 21q-56 0 -87 -45q-31 -44 -31 -115t31 -114zM264 781l-150 -254q28 -21 63 -21q55 0 87 45
q32 46 32 115q0 71 -32 115z" />
    <glyph glyph-name="glyph348" horiz-adv-x="356" 
d="M176 -7v-3q-37 0 -68 14q-30 15 -51 42t-33 65q-12 37 -12 83q0 44 12 81q12 38 33 65t51 42t68 15t68 -15t51 -42t33 -64q12 -38 12 -81q0 -45 -12 -82t-33 -64t-51 -42q-31 -14 -68 -14zM178 36h-2q56 0 87 45q32 46 32 115q0 71 -31 115q-32 45 -87 45t-87 -45
q-31 -44 -31 -115q0 -69 32 -115q31 -45 87 -45z" />
    <glyph glyph-name="glyph349" horiz-adv-x="196" 
d="M125 392h30l-3 -393h-44v246q0 16 1 26l3 30q1 13 3 25l1 10h-1q-1 0 -9 -11t-18 -21l-45 -44l-28 26z" />
    <glyph glyph-name="glyph350" horiz-adv-x="302" 
d="M73 35l1 -1l-1 -6q5 0 11 1q9 1 21 3t27 3q10 1 32 1h113v-39h-254v30l154 138q18 15 42 51q19 28 19 60q0 36 -24 59q-25 23 -61 23q-42 0 -63 -21q-22 -22 -32 -60l-40 10q12 50 47 81q35 30 89 30q27 0 51 -9q26 -10 41 -25q16 -16 27 -39q10 -21 10 -48
q0 -41 -22 -73t-51 -58l-45 -39l-45 -39q-20 -16 -33 -24q-14 -8 -14 -9z" />
    <glyph glyph-name="glyph351" horiz-adv-x="299" 
d="M64 282l-39 12l-8 -3q7 49 44 78t86 29q63 0 95 -30t32 -74q0 -21 -7 -36t-20 -28q-11 -11 -27 -19q-15 -7 -30 -9v-1q18 -2 33 -7q17 -6 30 -18q14 -12 21 -28q8 -18 8 -39q0 -52 -36 -85q-35 -32 -93 -32q-26 0 -52 8q-25 9 -42 25q-19 17 -30 37t-13 45l40 10
q1 -39 29 -63q27 -24 68 -24q42 0 65 23t23 57q0 33 -25 54q-26 21 -66 21h-35v35h35q39 0 63 21t24 53q0 25 -19 45q-20 21 -64 21q-74 0 -90 -78z" />
    <glyph glyph-name="glyph352" horiz-adv-x="312" 
d="M288 141v-39h-51v-102h-41v102h-190v30l199 260h32v-251h51zM123 141h77l-4 88q-1 13 1 37t2 32q0 11 2 23l1 9h-1l-5 -8q-6 -8 -15 -21q-12 -18 -19 -28q-14 -20 -21 -29l-44 -55q-12 -16 -29 -33q-15 -15 -15 -16l1 -1q8 0 21 1t48 1z" />
    <glyph glyph-name="glyph353" horiz-adv-x="300" 
d="M68 221l1 -1l-3 -5q9 13 30 27q20 13 53 13q57 0 93 -37q36 -38 36 -96q0 -30 -10 -54q-10 -25 -27 -43q-16 -18 -41 -27q-23 -10 -52 -10q-30 0 -53 9q-21 7 -39 25q-16 16 -27 39q-10 21 -13 46l40 11q4 -38 27 -63q23 -26 64 -26t65 27t24 69q0 43 -24 70t-64 27
q-34 0 -54 -15t-27 -33l-37 9l34 209h195v-41h-162l-12 -65q-4 -25 -11 -46q-6 -18 -6 -19z" />
    <glyph glyph-name="glyph354" horiz-adv-x="307" 
d="M203 392l-132 -172l-1 -3q3 4 11 14q6 8 17 14q13 7 24 11q15 5 30 5q30 0 53 -10q25 -11 42 -28t28 -42q10 -23 10 -54t-10 -55q-11 -26 -28 -43t-43 -28q-26 -9 -55 -9t-55 9q-26 11 -43 28t-28 44q-10 24 -10 56q0 37 12 69q13 33 37 66l94 128h47zM151 32h-2
q42 0 68 26q25 25 27 71q0 44 -25 69q-26 26 -69 26t-69 -26q-25 -25 -25 -69q0 -45 26 -71t69 -26z" />
    <glyph glyph-name="glyph355" horiz-adv-x="273" 
d="M10 392h258v-30l-190 -362h-44l163 310q11 21 19 30q9 10 9 12l-1 1q-8 0 -21 -1t-43 -1h-150v41z" />
    <glyph glyph-name="glyph356" horiz-adv-x="303" 
d="M203 206v-1l1 -1q12 -2 27 -9q15 -8 28 -19t22 -30q9 -18 9 -40q0 -51 -38 -84q-36 -32 -99 -32q-62 0 -98 32q-38 33 -38 84q0 22 9 40t21 30q13 13 27 20q15 8 27 9v1q-7 1 -19 9q-12 7 -24 18q-11 10 -19 27q-8 18 -8 37q0 45 33 74q34 29 87 29t88 -29q34 -28 34 -74
q0 -19 -8 -37q-8 -17 -19 -27q-12 -11 -24 -18q-12 -8 -19 -9zM71 296h-2q0 -31 23 -51q22 -19 60 -19t60 19q23 20 23 51q0 30 -22 48q-23 18 -60 18t-60 -18q-22 -18 -22 -48zM56 108l2 -1q0 -34 26 -57q25 -22 69 -22t69 22q26 23 26 57q0 33 -27 55q-26 22 -70 22
q-43 0 -69 -21t-26 -55z" />
    <glyph glyph-name="glyph357" horiz-adv-x="301" 
d="M89 0l133 167l-4 -2q-14 -17 -31 -27q-19 -11 -43 -11q-60 0 -96 38q-36 37 -36 96q0 32 10 56q11 27 28 44t42 28q23 10 54 10t55 -10q25 -11 43 -28q19 -19 29 -43q11 -27 11 -55q0 -46 -19 -84q-19 -39 -45 -72l-82 -107h-49zM150 360h-2q-41 0 -67 -26
q-25 -25 -27 -71q0 -43 26 -69t69 -26t69 26t26 69q0 46 -25 71q-26 26 -69 26z" />
    <glyph glyph-name="glyph358" horiz-adv-x="356" 
d="M176 300v-4q-38 0 -68 15t-51 42t-33 65t-12 83t12 83t33 65t51 42t68 15t68 -15t51 -42t33 -64t12 -82t-12 -82t-33 -64t-51 -42t-68 -15zM178 344h-2q56 0 87 45q32 46 32 115q0 71 -31 115q-32 45 -87 45t-87 -45q-31 -44 -31 -115q0 -69 32 -115q31 -45 87 -45z" />
    <glyph glyph-name="glyph359" horiz-adv-x="196" 
d="M125 700h30l-3 -393h-44v248q0 16 1 26q2 20 3 29q2 14 3 24l1 10h-1q-1 0 -9 -11t-18 -21l-45 -44l-28 26z" />
    <glyph glyph-name="glyph360" horiz-adv-x="302" 
d="M73 344l1 -1l-1 -4q5 0 11 1q9 2 21 3t27 3q10 1 32 1h113v-41h-254v31l154 138q18 15 42 51q19 28 19 60q0 36 -24 59q-25 23 -61 23q-42 0 -63 -21q-22 -22 -32 -60l-40 10q12 50 47 81q35 30 89 30q27 0 51 -9q26 -10 41 -25q16 -16 27 -39q10 -21 10 -48
q0 -42 -22 -74t-51 -58l-45 -39l-45 -39q-20 -17 -33 -24q-14 -8 -14 -9z" />
    <glyph glyph-name="glyph361" horiz-adv-x="304" 
d="M64 591l-39 11h-8q7 49 44 78t86 29q63 0 95 -30t32 -74q0 -21 -7 -36t-20 -28q-12 -12 -27 -18q-13 -5 -30 -7v-1q15 -1 33 -8q17 -6 30 -18q14 -12 21 -28q8 -18 8 -39q0 -53 -36 -86t-93 -33q-28 0 -52 9t-42 24t-30 36q-11 20 -13 45l40 10q1 -39 29 -63
q27 -24 68 -24q42 0 65 23t23 57q0 35 -25 54q-26 20 -66 20h-35v35h35q39 0 63 21t24 52q0 24 -20 46q-19 21 -63 21q-74 0 -90 -78z" />
    <glyph glyph-name="glyph362" horiz-adv-x="312" 
d="M290 448v-39h-51v-102h-41v102h-190v31l199 259h32v-251h51zM123 449h77l-2 87q0 25 1 37q2 24 2 32q0 11 2 23l1 9h-1l-5 -8q-6 -7 -15 -21q-12 -18 -19 -28q-14 -20 -21 -29l-44 -55q-13 -16 -29 -32q-15 -15 -15 -16l1 -1q8 0 21 1t46 1z" />
    <glyph glyph-name="glyph363" horiz-adv-x="300" 
d="M68 530l1 -1l-3 -6q9 13 30 27q20 13 53 13q57 0 93 -37q36 -38 36 -96q0 -30 -10 -54q-10 -25 -27 -43q-15 -17 -41 -28q-23 -10 -52 -10q-30 0 -53 9q-22 9 -39 26q-16 16 -27 39q-10 21 -13 46l40 11q4 -38 27 -63q23 -26 64 -26t65 27t24 69q0 43 -24 70t-64 27
q-34 0 -54 -15t-27 -33l-37 10l34 208h195v-40h-162l-12 -65q-4 -25 -11 -46q-6 -18 -6 -19z" />
    <glyph glyph-name="glyph364" horiz-adv-x="307" 
d="M203 698l-132 -172l-1 -4q3 4 11 14q6 8 17 14q13 7 24 11q15 5 30 5q30 0 53 -10q25 -11 42 -28t28 -42q10 -23 10 -53q0 -31 -10 -55q-11 -26 -28 -43t-43 -28q-24 -10 -55 -10t-55 10q-26 11 -43 28t-28 44q-10 24 -10 56q0 37 12 69q13 33 37 66l94 128h47zM151 340
l-2 -2q42 0 68 26q25 25 27 71q0 46 -25 71q-26 26 -69 26q-44 0 -69 -25t-25 -70t26 -71t69 -26z" />
    <glyph glyph-name="glyph365" horiz-adv-x="273" 
d="M10 700h258v-29l-190 -363h-44l163 311q11 21 19 30q9 11 9 12l-1 1q-8 0 -21 -1t-43 -1h-150v40z" />
    <glyph glyph-name="glyph366" horiz-adv-x="303" 
d="M203 516v-1l1 -1q12 -2 27 -9q13 -6 28 -20q13 -11 22 -30q9 -18 9 -40q0 -51 -38 -83q-39 -33 -99 -33q-59 0 -98 33q-38 32 -38 83q0 22 9 40t21 30q13 13 27 20q15 7 27 9v1q-5 1 -19 8q-12 6 -24 18q-11 11 -19 27t-8 36q0 46 33 74q34 29 87 29t88 -29
q34 -28 34 -74q0 -20 -8 -36t-19 -27q-12 -12 -24 -18q-11 -5 -19 -7zM71 605h-2q0 -31 23 -51q22 -19 60 -19t60 19q23 20 23 51q0 30 -22 49t-60 19t-60 -19t-22 -49zM56 417h2q0 -35 26 -58q25 -22 69 -22t69 22q26 23 26 58q0 33 -27 54t-70 21t-69 -21t-26 -54z" />
    <glyph glyph-name="glyph367" horiz-adv-x="301" 
d="M89 308l133 167h-4q-14 -17 -31 -27q-19 -11 -43 -11q-60 0 -96 38q-36 37 -36 96q0 31 10 55q10 26 28 43q17 17 42 28q23 10 54 10t55 -10q25 -11 43 -28q19 -19 29 -43q11 -27 11 -55q0 -46 -19 -84q-19 -39 -45 -72l-82 -107h-49zM150 669h-2q-42 0 -67 -27t-27 -72
q0 -43 26 -69t69 -26t69 26t26 69q0 46 -25 72q-25 27 -69 27z" />
    <glyph glyph-name="glyph368" 
d="M548 536l-54 -14l-2 -9q-12 67 -57 104q-46 38 -114 38q-35 0 -63 -9q-30 -10 -50 -25q-21 -17 -33 -40q-12 -24 -12 -52q0 -29 17 -52q16 -23 42 -39q25 -16 59 -30q8 -3 65 -25q34 -13 72 -30q40 -18 68 -40q31 -25 50 -57q20 -34 20 -81q0 -41 -15 -75t-42 -60
q-29 -27 -66 -40q-39 -15 -85 -18v-77h-54v78q-91 9 -142 62q-52 54 -63 132l54 15q3 -33 17 -63t37 -50q24 -21 57 -33t75 -12q38 0 71 11q30 10 54 29q21 17 34 44q12 26 12 56q0 40 -19 66q-20 28 -49 45q-32 19 -66 32q-24 9 -72 29q-35 15 -62 27q-32 14 -61 36
q-28 20 -46 51q-18 30 -18 72q0 34 14 67q13 31 39 55t60 39q33 14 77 19v77h54v-77q79 -8 131 -54t66 -122z" />
    <glyph glyph-name="glyph369" 
d="M524 700l-166 -327l1 -6q37 27 87 27q38 0 68 -15t51 -42t33 -64t12 -81t-12 -82q-12 -37 -33 -64t-51 -42q-31 -14 -68 -14t-68 14q-30 15 -51 42t-33 65q-12 37 -12 83v15v15l-115 -226h-45l169 329q-41 -30 -93 -30q-38 0 -68 15t-51 42t-33 65q-12 37 -12 83t12 83
q12 38 33 65t51 42t68 15t68 -15t51 -42t33 -64q12 -38 12 -82q0 -20 -3 -40l121 236h44zM201 344h-2q55 0 87 45q32 46 32 115q0 71 -31 115q-31 45 -87 45t-87 -45q-31 -44 -31 -115q0 -69 32 -115q32 -45 87 -45zM449 36h-2q55 0 87 45q32 46 32 115q0 71 -31 115
q-31 45 -87 45t-87 -45q-31 -44 -31 -115q0 -69 32 -115q32 -45 87 -45z" />
    <glyph glyph-name="glyph370" 
d="M499 252l48 -13v-4q-22 -63 -71 -103q-48 -39 -113 -45v-104h-47v104q-45 5 -82 25t-64 54q-27 33 -42 80q-15 46 -15 102t15 102q15 47 42 80q28 34 64 53q38 19 81 24v104h48v-104q61 -6 108 -41t71 -93l-49 -13q-23 50 -61 75t-91 25q-78 0 -126 -55t-48 -156
q0 -50 12 -89q12 -38 35 -66t54 -41q33 -14 71 -14q55 0 98 29t62 84z" />
    <glyph glyph-name="glyph371" 
d="M387 54h183l-2 -54h-475v54q35 8 54 25q19 18 27 45q8 29 8 63q0 41 -4 80l-6 67h-68v49h64l-10 108q-4 48 8 90q12 41 37 69t62 45q36 16 80 18q31 1 66 -8q34 -9 62 -30q29 -21 51 -55q23 -35 36 -85l-50 -13q-22 75 -63 108t-103 32q-64 -1 -100 -46q-36 -46 -29 -124
l10 -106h226v-49h-222l6 -66q9 -98 -6 -149q-15 -52 -52 -68l1 -1l18 1h47h66h78z" />
    <glyph glyph-name="glyph372" 
d="M474 546l69 68l31 -36l-69 -69q29 -33 45 -78q16 -44 16 -97q0 -44 -14 -88q-13 -41 -39 -76l73 -73l-31 -32l-72 72q-31 -29 -72 -45q-42 -17 -87 -17q-43 0 -85 17q-40 16 -72 47l-72 -73l-31 32l73 74q-25 34 -38 75q-14 44 -14 89q0 51 15 96q14 43 44 79l-70 69
l32 32l70 -69q31 26 68 41q38 15 80 15t81 -14q37 -13 69 -39zM326 550v-2q-40 0 -75 -15t-60 -43t-39 -66q-14 -39 -14 -83t14 -83q14 -38 39 -66t60 -43t75 -15t75 15q34 15 60 44q25 29 39 66q14 39 14 83t-14 83q-14 37 -39 66q-26 29 -60 44q-35 15 -75 15z" />
    <glyph glyph-name="glyph373" 
d="M601 700l-200 -287h147v-44h-179l-17 -24v-20h196v-44h-196v-281h-56v281h-191v44h191v20l-17 24h-174v44h144l-200 287h64l169 -241l15 -24l14 -21l10 -15l4 -6h1l4 6l10 15q2 3 6.5 10.5t6.5 10.5l15 24l169 241h64z" />
    <glyph glyph-name="glyph374" 
d="M564 204l54 -15v-3q-33 -98 -103 -150q-68 -51 -165 -51q-55 0 -106 20q-50 21 -87 60t-63 93q-25 52 -34 122h-49v43h46q-1 4 -1 12v13v22h-45v44h49q7 68 33 124q25 55 63 94t87 60t107 21q90 0 157 -48q66 -47 103 -134l-56 -15q-30 71 -83 107t-122 36q-46 0 -84 -16
q-39 -17 -69 -48q-30 -32 -51 -76q-20 -44 -28 -103h253v-44h-257v-22v-12q0 -8 1 -12h255v-43h-252q16 -114 80 -178q63 -63 152 -63q75 0 131 42t84 120z" />
    <glyph glyph-name="glyph375" 
d="M560 700v-48l-132 -2q35 -27 56 -65h74v-46h-55q4 -18 5 -27q2 -18 2 -29q0 -46 -17 -86q-16 -37 -47 -67q-29 -27 -71 -43q-41 -15 -89 -15h-19l217 -271h-70l-216 272v48h89q35 0 65 12q31 12 53 33q23 21 36 51q13 29 13 66q0 30 -9 57h-291v46h267q-23 30 -57 48
t-76 18h-134v48h406z" />
    <glyph glyph-name="glyph414" horiz-adv-x="198" 
d="M98 465l-1 -1q-16 0 -28 12t-12 29q0 18 12 30t29 12q16 0 27 -12q11 -13 11 -29t-11 -29q-11 -12 -27 -12zM99 150l-1 -1q-16 0 -28 12t-12 29q0 18 12 30t29 12t27 -12q11 -13 11 -29t-11 -29q-10 -12 -27 -12z" />
    <glyph glyph-name="glyph415" horiz-adv-x="211" 
d="M107 474l-1 -1q-16 0 -28 12t-12 29q0 18 12 30t29 12t27 -12q11 -13 11 -29t-11 -29q-10 -12 -27 -12zM108 151l9 4l-11 2q-14 -2 -26 9q-12 10 -12 30q0 18 12 29q13 11 29 11q18 0 30 -14t12 -36t-6 -45t-15 -42t-21 -36t-22 -28h-27q18 19 33 51t15 65z" />
    <glyph glyph-name="glyph470" horiz-adv-x="798" 
d="M511 -2q6 0 6 5q0 6 -6 6t-6 -6q0 -5 6 -5zM577 24q0 -16 12 -16q11 0 11 16q0 17 -11 17q-12 0 -12 -17zM667 -1v39l-11 -38h-10l-11 38v-39h-15l4 52h19l8 -34l9 34h19l2 -52h-14zM453 -1l-13 52h15l7 -36l6 36h15l6 -36l7 36h14l-13 -52h-16l-6 34l-7 -34h-15zM434 19
h-19v-10h21v-10h-36v52h36v-11h-21v-10h19v-11zM392 51v-52h-15v52h15zM339 -1l-17 52h16l9 -39l10 39h15l-17 -52h-16zM285 51v-20h18v20h14v-52h-14v20h-18v-20h-15v52h15zM238 40h-14v11h41v-11h-14v-41h-13v41zM172 -1v52h18l16 -32v32h13v-52h-15l-19 34v-34h-13z
M136 -1v19l-17 33h17l7 -23l8 23h16l-17 -33v-19h-14zM620 22l-4 2q0 -14 -7 -21q-7 -6 -19 -6q-13 0 -20 7q-6 8 -6 18q0 13 7 20q8 8 21 8t21 -8q7 -7 7 -20zM569 49l-4 -12l-4 -1q-3 3 -9 3t-10 -4t-4 -12q0 -16 15 -16q6 0 9 3l3 -11q-8 -2 -14 -2q-14 0 -21 7
q-6 8 -6 18q0 14 9 21q10 8 21 8q9 0 15 -2zM123 49l-3 -12v-1q-2 2 -4 3q-4 2 -7 2q-7 0 -7 -4q0 -2 11 -7q14 -5 14 -15q0 -7 -6 -12q-5 -4 -19 -4q-8 0 -16 2l4 12q1 -1 5 -3q2 -1 8 -1q7 0 7 5q0 3 -9 6q-15 4 -15 15q0 7 6 12q7 5 16 5q10 0 15 -3zM309 175l89 79
l86 -79q13 -2 54 -4q38 -1 81 -3q-1 42 -3 78t-3 51l-81 91l81 89q1 17 3 54q1 33 3 80q-37 -1 -79 -3q-37 -1 -52 -3l-91 -81l-88 81q-15 2 -52 3q-37 2 -81 3q2 -43 3 -81q1 -37 3 -52l79 -89l-79 -89q-2 -16 -3 -54q-2 -42 -3 -79q47 2 80 3q35 1 53 5zM708 82h-44v-2
q-76 0 -120 3t-66 6q-21 3 -30 8q-8 5 -12 9l-27 23l-13 10l-11 -10l-27 -23q-4 -4 -12 -9q-9 -5 -30 -8q-28 -4 -66 -5q-58 -2 -118 -2h-43v43q0 62 2 120q1 38 5 66q3 21 8 30q4 7 9 12l24 27l10 12l-10 11l-24 27q-5 4 -9 12q-4 6 -7 30q-4 28 -5 66q-2 58 -2 119v44h43
q77 0 120 -3t66 -6q24 -3 30 -7q7 -5 12 -9l20 -19l18 -16l17 16l20 17q4 4 12 9t30 9t66 6q58 2 120 2h44v-44q0 -76 -3 -120t-6 -66q-3 -21 -8 -30q-5 -8 -9 -12l-22 -26l-11 -12l11 -13l25 -29q1 -2 3.5 -6t3.5 -6q4 -6 7 -30q3 -23 6 -64q3 -42 3 -115v-45z" />
  </font>
</defs>
</svg>
